<?xml version="1.0" encoding="UTF-8"?>
<svg width="580px" height="84px" viewBox="0 0 580 84" version="1.1" xmlns="http://www.w3.org/2000/svg" xmlns:xlink="http://www.w3.org/1999/xlink">
    <!-- Generator: Sketch 60.1 (88133) - https://sketch.com -->
    <title>Untitled 3</title>
    <desc>Created with Sketch.</desc>
    <g id="Page-1" stroke="none" stroke-width="1" fill="none" fill-rule="evenodd">
        <g id="morrison" fill-rule="nonzero">
            <polygon id="Path" fill="#E31B23" points="0 0 0 44.2 24.4 83.1 52.1 80.4 52.1 63.3 122.2 75.7 135.3 51.2 195.8 69.5 195.8 24.5 135.3 5.1 122.2 30.7 35.4 13.7 52.1 35.8 24.4 37.5"></polygon>
            <path d="M122.2,30.7 L135.3,5.1 L135.3,51.2 L122.2,75.7 L122.2,30.7 Z M24.4,37.5 L52.1,35.8 L52.1,80.4 L24.4,83.1 L24.4,37.5 Z" id="Shape" fill="#B5121B"></path>
            <polygon id="Path" fill="#E31B23" points="35.4 13.7 52.1 35.8 52.1 63.3 122.2 75.7 122.2 30.7"></polygon>
            <path d="M219.8,69.5 L219.8,24.5 L225.6,24.5 L242,53.3 L258.4,24.5 L264.3,24.5 L264.3,69.5 L256.4,69.5 L256.4,45.5 L242,69.5 L228.2,45.5 L228.2,69.5 L219.8,69.5 Z M313.5,30.8 C312.5,27.4 309.6,24.7 306.2,23.8 C305.6,23.7 304.9,23.7 304.3,23.7 L286.2,23.7 C282.3,24.1 279.1,26.8 277.9,30.5 C277.8,31.1 277.8,31.8 277.6,32.5 L277.6,61.7 C277.6,61.7 277.7,63 277.7,63.3 C278.6,66.7 281.4,69.4 284.8,70.1 C285.5,70.2 286.2,70.2 286.9,70.2 L304,70.2 C304,70.2 305.4,70.1 305.7,70.1 C309.4,69.4 312.3,66.7 313.3,63 C313.4,62.4 313.4,61.7 313.4,61.1 L313.4,32.7 C313.7,32.7 313.6,30.9 313.5,30.8 M305,59.6 C305,59.6 304.7,62.3 302.6,62.3 L288.6,62.3 C288.6,62.3 286,61.9 286,59.6 L286,34.4 C286,34.4 286.6,31.7 288.6,31.7 L302,31.7 C302.4,31.7 302.9,31.8 303.3,31.8 C304.4,32.2 305.2,33.2 305.2,34.4 L305.2,59.6 L305,59.6 L305,59.6 Z M529.4,30.8 C528.4,27.4 525.5,24.7 522.1,23.8 C521.5,23.7 520.8,23.7 520.2,23.7 L502.1,23.7 C498.2,24.1 495,26.8 494,30.5 C493.9,31.1 493.7,31.8 493.7,32.5 L493.7,61.7 C493.7,61.7 493.8,63 493.8,63.3 C494.7,66.7 497.4,69.4 500.9,70.1 C501.6,70.2 502.3,70.2 503,70.2 L520.1,70.2 C520.1,70.2 521.5,70.1 521.8,70.1 C525.5,69.4 528.4,66.7 529.4,63 C529.5,62.4 529.5,61.7 529.5,61.1 L529.5,32.7 C529.5,32.7 529.4,30.9 529.4,30.8 M521,59.6 C521,59.6 520.7,62.3 518.6,62.3 L504.6,62.3 C504.6,62.3 502,61.9 502,59.6 L502,34.4 C502,34.4 502.6,31.7 504.6,31.7 L518,31.7 C518.4,31.7 518.9,31.8 519.3,31.8 C520.4,32.2 521.2,33.2 521.2,34.4 L521,59.6 L521,59.6 Z M352.1,53.1 C352.1,53.1 359.2,51.1 359.5,44.3 L359.5,32.5 C358.8,28.2 355.4,24.9 350.9,24.5 L327.8,24.5 L327.8,69.6 L336.2,69.6 L336.2,53.1 L342.3,53.1 L353.7,69.5 L363.5,69.5 L352.1,53.1 L352.1,53.1 Z M351,42.4 C351,44.4 349.6,46 347.7,46.3 L336.3,46.3 L336.3,31.7 L346.6,31.7 C348.9,31.6 350.7,33.1 351,35.4 L351,42.4 Z M398.9,53.1 C398.9,53.1 406,51.1 406.3,44.3 L406.3,32.5 C405.6,28.2 402.2,24.9 397.7,24.5 L374.5,24.5 L374.5,69.6 L383.1,69.6 L383.1,53.1 L389.2,53.1 L400.6,69.5 L410.3,69.5 L398.9,53.1 Z M397.9,42.4 C397.9,44.4 396.5,46 394.5,46.3 L383.1,46.3 L383.1,31.7 L393.4,31.7 C395.7,31.6 397.5,33.1 397.8,35.4 L397.8,42.4 L397.9,42.4 L397.9,42.4 Z M422.1,24.5 L430.5,24.5 L430.5,69.4 L422.1,69.4 L422.1,24.5 Z M445.4,30.7 C446.4,26.8 449.8,24 453.8,23.6 L470.8,23.6 C475.1,23.9 478.5,26.9 479.5,30.9 C479.5,31 479.6,32.5 479.6,32.5 L479.6,38.2 L471.5,38.2 L471.5,34.1 C471.4,32.7 470.1,31.7 468.6,31.7 L456.3,31.7 C454.9,31.8 453.7,33.1 453.6,34.6 L453.6,38.7 C453.3,40 454.2,41.3 455.5,41.6 C457.9,42.3 471.3,46 471.3,46 C471.3,46 479.6,47.4 479.6,53.4 L479.6,61.5 C479.6,62.2 479.5,62.8 479.3,63.5 C478.3,67.6 474.6,70.6 470.3,70.5 L454.6,70.5 C454,70.5 453.3,70.4 452.7,70.4 C450.6,69.8 445.6,68 445,62 L445,55.9 L453.1,55.9 L453.1,58.9 C453.1,59.5 453.1,60 453.2,60.5 C453.5,61.8 454.8,62.6 456.1,62.5 L468.4,62.5 C468.4,62.5 471.4,62.2 471.4,59.5 L471.4,55.1 C471.4,55.1 471.7,53.2 468.4,52.5 L452.3,48.2 C452.3,48.2 445.2,47.1 445.2,40.2 L445.2,32.9 C445.2,31.9 445.2,31.4 445.4,30.7 M543.1,69.5 L543.1,24.5 L550.1,24.5 L571.4,45.8 L571.4,24.5 L580,24.5 L580,69.5 L571.4,69.5 L571.4,57.2 L551.8,37.8 L551.8,69.5 L543.1,69.5 Z" id="Shape" fill="#000000"></path>
        </g>
    </g>
</svg>