<?xml version="1.0" encoding="UTF-8"?>
<svg width="405px" height="42px" viewBox="0 0 405 42" version="1.1" xmlns="http://www.w3.org/2000/svg" xmlns:xlink="http://www.w3.org/1999/xlink">
    <!-- Generator: Sketch 60.1 (88133) - https://sketch.com -->
    <title>jpmc</title>
    <desc>Created with Sketch.</desc>
    <g id="Page-1" stroke="none" stroke-width="1" fill="none" fill-rule="evenodd">
        <g id="jpmc" fill-rule="nonzero">
            <path d="M37.4684211,8.06842105 L25.2,8.06842105 L25.2,33.4894737 L32.7157895,33.4894737 L32.7157895,24.5368421 L39.1263158,24.5368421 C46.5315789,24.5368421 50.9526316,20.8894737 50.9526316,16.2473684 C50.8421053,10.9421053 46.9736842,8.06842105 37.4684211,8.06842105 M43.4368421,16.1368421 C43.4368421,17.7947368 42.5526316,20.3368421 38.0210526,20.3368421 L32.7157895,20.3368421 L32.7157895,12.3789474 L38.0210526,12.3789474 C42.4421053,12.3789474 43.4368421,14.4789474 43.4368421,16.1368421 Z" id="XMLID_5_" fill="#000000"></path>
            <path d="M267.694737,13.4842105 C264.821053,13.4842105 262.278947,14.4789474 260.731579,15.9157895 L260.621053,15.9157895 L260.621053,8.17894737 L254.321053,8.17894737 L254.321053,33.6 L260.621053,33.6 L260.621053,20.1157895 C262.057895,18.4578947 264.047368,17.7947368 265.705263,17.7947368 C270.236842,17.7947368 270.236842,20.6684211 270.236842,24.4263158 L270.236842,33.6 L276.536842,33.6 L276.536842,22.4368421 C276.647368,18.0157895 275.431579,13.4842105 267.694737,13.4842105" id="XMLID_6_" fill="#000000"></path>
            <path d="M209.889474,13.4842105 C207.015789,13.4842105 204.363158,14.4789474 202.815789,15.9157895 L202.705263,15.9157895 L202.705263,13.9263158 L196.515789,13.9263158 L196.515789,33.6 L202.815789,33.6 L202.815789,20.1157895 C204.252632,18.4578947 206.242105,17.7947368 208.010526,17.7947368 C212.542105,17.7947368 212.542105,20.6684211 212.542105,24.4263158 L212.542105,33.6 L218.842105,33.6 L218.842105,22.4368421 C218.731579,18.0157895 217.626316,13.4842105 209.889474,13.4842105" id="XMLID_7_" fill="#000000"></path>
            <path d="M249.789474,28.6263158 C248.021053,29.0684211 245.368421,29.7315789 241.610526,29.7315789 C234.978947,29.7315789 231.110526,26.1947368 231.110526,20.8894737 C231.110526,15.6947368 235.2,12.1578947 240.947368,11.8263158 C243.710526,11.7157895 246.142105,12.1578947 247.910526,12.6 L250.563158,8.73157895 C247.578947,7.95789474 243.931579,7.62631579 240.505263,7.62631579 C229.784211,7.62631579 223.373684,13.0421053 223.373684,20.7789474 C223.373684,29.7315789 231.994737,33.6 240.615789,33.8210526 C243.268421,33.9315789 246.805263,33.4894737 249.789474,32.8263158 L249.789474,28.6263158" id="XMLID_8_" fill="#000000"></path>
            <polyline id="XMLID_9_" fill="#000000" points="73.9421053 26.1947368 67.4210526 8.06842105 55.4842105 8.06842105 55.4842105 33.4894737 62.6684211 33.4894737 62.6684211 13.3736842 63.1105263 13.3736842 70.5157895 33.4894737 77.2578947 33.4894737 84.6631579 13.3736842 85.1052632 13.3736842 85.1052632 33.4894737 92.2894737 33.4894737 92.2894737 8.06842105 80.4631579 8.06842105 73.9421053 26.1947368"></polyline>
            <path d="M122.131579,23.6526316 C122.131579,16.6894737 116.494737,13.1526316 109.310526,13.1526316 C102.126316,13.1526316 96.4894737,16.5789474 96.4894737,23.6526316 C96.4894737,30.6157895 102.126316,34.1526316 109.310526,34.1526316 C116.494737,34.1526316 122.131579,30.6157895 122.131579,23.6526316 M115.389474,23.6526316 C115.389474,27.5210526 113.4,30.0631579 109.310526,30.0631579 C105.221053,30.0631579 103.231579,27.4105263 103.231579,23.6526316 C103.231579,19.7842105 105.221053,17.1315789 109.310526,17.1315789 C113.4,17.2421053 115.389474,19.7842105 115.389474,23.6526316 Z" id="XMLID_12_" fill="#000000"></path>
            <path d="M154.184211,29.6210526 C150.536842,29.6210526 148.768421,26.7473684 148.768421,23.6526316 C148.768421,20.6684211 150.205263,17.4631579 154.405263,17.4631579 C158.052632,17.4631579 159.821053,20.2263158 159.821053,23.5421053 C159.710526,26.4157895 158.273684,29.6210526 154.184211,29.6210526 M160.042105,13.8157895 L160.042105,15.6947368 L159.931579,15.6947368 C158.605263,14.3684211 156.394737,13.3736842 152.747368,13.3736842 C145.452632,13.3736842 142.247368,18.6789474 142.247368,23.5421053 C142.247368,29.1789474 145.563158,33.4894737 152.305263,33.7105263 C155.731579,33.8210526 158.384211,32.3842105 159.710526,31.1684211 L159.821053,31.1684211 C159.821053,31.1684211 159.821053,31.6105263 159.821053,31.9421053 C159.821053,34.9263158 158.605263,37.9105263 152.526316,37.9105263 C150.094737,37.9105263 147.331579,37.4684211 144.678947,36.2526316 L144.678947,40.7842105 C147.221053,41.6684211 150.094737,42 153.410526,42 C163.578947,42 166.010526,36.4736842 166.010526,31.1684211 L166.010526,13.8157895 L160.042105,13.8157895 Z" id="XMLID_15_" fill="#000000"></path>
            <path d="M185.352632,28.1842105 C183.363158,29.7315789 181.263158,30.1736842 179.494737,30.1736842 C177.394737,30.2842105 175.847368,29.5105263 175.847368,27.5210526 C175.847368,25.0894737 179.384211,24.7578947 183.142105,24.7578947 L185.352632,24.7578947 L185.352632,28.1842105 M191.431579,21.1105263 C191.431579,16.0263158 188.336842,13.3736842 181.152632,13.3736842 C178.831579,13.3736842 175.405263,13.5947368 172.531579,14.3684211 L172.531579,18.3473684 C174.852632,17.5736842 177.615789,17.1315789 179.826316,17.1315789 C183.031579,17.1315789 185.463158,17.5736842 185.463158,21.4421053 L182.368421,21.4421053 C179.715789,21.4421053 176.178947,21.6631579 174.189474,22.3263158 C171.868421,23.1 169.768421,24.7578947 169.768421,27.6315789 C169.768421,32.2736842 173.857895,33.9315789 178.389474,33.9315789 C181.705263,33.9315789 184.136842,33.1578947 185.794737,31.5 L185.905263,31.5 L185.905263,33.4894737 L191.652632,33.4894737 L191.652632,21.1105263 L191.431579,21.1105263 Z" id="XMLID_18_" fill="#000000"></path>
            <path d="M296.1,28.1842105 C294.110526,29.7315789 292.010526,30.1736842 290.242105,30.1736842 C288.142105,30.2842105 286.594737,29.5105263 286.594737,27.5210526 C286.594737,25.0894737 290.131579,24.7578947 293.889474,24.7578947 L296.1,24.7578947 L296.1,28.1842105 M302.178947,21.1105263 C302.178947,16.0263158 299.084211,13.3736842 291.9,13.3736842 C289.578947,13.3736842 286.263158,13.5947368 283.278947,14.3684211 L283.278947,18.3473684 C285.6,17.5736842 288.363158,17.1315789 290.573684,17.1315789 C293.778947,17.1315789 296.210526,17.5736842 296.210526,21.4421053 L293.115789,21.4421053 C290.463158,21.4421053 286.926316,21.6631579 284.936842,22.3263158 C282.726316,23.1 280.515789,24.7578947 280.515789,27.6315789 C280.515789,32.2736842 284.494737,33.9315789 289.136842,33.9315789 C292.452632,33.9315789 294.884211,33.1578947 296.542105,31.5 L296.652632,31.5 L296.652632,33.4894737 L302.4,33.4894737 L302.4,21.1105263 L302.178947,21.1105263 Z" id="XMLID_21_" fill="#000000"></path>
            <path d="M11.3842105,8.06842105 L11.3842105,23.5421053 C11.3842105,27.0789474 9.72631579,29.1789474 6.18947368,29.1789474 C5.08421053,29.1789474 2.65263158,29.1789474 0.442105263,28.6263158 L0.442105263,33.4894737 C2.54210526,33.8210526 5.19473684,33.9315789 7.29473684,33.9315789 C14.3684211,33.9315789 18.7894737,30.1736842 18.7894737,24.3157895 L18.7894737,8.06842105 L11.3842105,8.06842105" id="XMLID_22_" fill="#000000"></path>
            <path d="M347.163158,29.0684211 C344.731579,29.7315789 343.184211,30.0631579 340.642105,30.0631579 C336.552632,30.0631579 333.789474,28.5157895 333.457895,25.4210526 L349.484211,25.4210526 C349.594737,24.5368421 349.594737,23.3210526 349.484211,22.4368421 C349.042105,17.4631579 345.947368,13.5947368 338.542105,13.5947368 C330.915789,13.5947368 327.6,18.6789474 327.6,23.9842105 C327.6,31.2789474 333.015789,34.0421053 340.089474,34.0421053 C343.073684,34.0421053 345.063158,33.6 347.163158,33.0473684 L347.163158,29.0684211 M338.984211,17.1315789 C341.968421,17.1315789 343.405263,18.7894737 343.847368,20.8894737 C343.957895,21.2210526 343.957895,21.5526316 343.957895,21.8842105 L333.568421,21.8842105 C333.789474,19.3421053 335.557895,17.1315789 338.984211,17.1315789 Z" id="XMLID_25_" fill="#000000"></path>
            <path d="M316.215789,13.4842105 C311.463158,13.4842105 306.6,15.0315789 306.6,19.5631579 C306.6,23.4315789 309.805263,24.6473684 313.452632,25.5315789 C317.321053,26.5263158 318.647368,26.8578947 318.757895,28.1842105 C318.868421,29.6210526 317.431579,30.2842105 314.005263,30.2842105 C311.794737,30.2842105 308.810526,29.7315789 306.821053,28.8473684 L306.821053,33.0473684 C310.026316,33.9315789 312.568421,34.0421053 314.778947,34.0421053 C320.194737,34.0421053 325.057895,32.4947368 325.057895,27.8526316 C325.057895,23.9842105 322.294737,22.5473684 317.873684,21.5526316 C314.668421,20.7789474 312.789474,20.4473684 312.789474,19.1210526 C312.789474,17.6842105 314.447368,17.2421053 317.1,17.2421053 C319.089474,17.2421053 321.078947,17.7947368 322.515789,18.2368421 L324.836842,14.9210526 C322.626316,14.0368421 319.752632,13.4842105 316.215789,13.4842105" id="XMLID_26_" fill="#000000"></path>
            <path d="M138.710526,13.4842105 C136.057895,13.4842105 133.515789,14.1473684 131.968421,16.9105263 L131.857895,16.9105263 L131.857895,13.9263158 L126,13.9263158 L126,33.6 L132.521053,33.6 L132.521053,23.9842105 C132.521053,21.8842105 132.852632,20.6684211 133.294737,20.0052632 C133.957895,18.7894737 134.842105,18.1263158 136.610526,17.9052632 C137.494737,17.7947368 138.710526,17.9052632 139.594737,18.3473684 L142.468421,14.1473684 C141.252632,13.7052632 140.257895,13.4842105 138.710526,13.4842105" id="XMLID_27_" fill="#000000"></path>
            <path d="M377.115789,0 C376.342105,0 375.678947,0.663157895 375.678947,1.43684211 L375.678947,11.7157895 L402.978947,11.7157895 L390.6,0 L377.115789,0" id="XMLID_28_" fill="#0079C1"></path>
            <path d="M403.973684,14.9210526 C403.973684,14.1473684 403.310526,13.4842105 402.536842,13.4842105 L392.257895,13.4842105 L392.257895,40.7842105 L404.084211,28.4052632 L403.973684,14.9210526" id="XMLID_29_" fill="#0079C1"></path>
            <path d="M389.052632,41.6684211 C389.826316,41.6684211 390.489474,41.0052632 390.489474,40.2315789 L390.489474,29.8421053 L363.189474,29.8421053 L375.568421,41.6684211 L389.052632,41.6684211" id="XMLID_30_" fill="#0079C1"></path>
            <path d="M362.194737,26.7473684 C362.194737,27.5210526 362.857895,28.1842105 363.631579,28.1842105 L373.910526,28.1842105 L373.910526,0.884210526 L362.084211,13.2631579 L362.084211,26.7473684" id="XMLID_31_" fill="#0079C1"></path>
        </g>
    </g>
</svg>