<?xml version="1.0" encoding="UTF-8"?>
<svg width="200px" height="168px" viewBox="0 0 200 168" version="1.1" xmlns="http://www.w3.org/2000/svg" xmlns:xlink="http://www.w3.org/1999/xlink">
    <!-- Generator: Sketch 63 (92445) - https://sketch.com -->
    <title>narwhal-white</title>
    <desc>Created with Sketch.</desc>
    <g id="Page-1" stroke="none" stroke-width="1" fill="none" fill-rule="evenodd">
        <g id="narwhal-white" fill="#000000" fill-rule="nonzero">
            <path d="M51.109375,41.1875 L50.46875,40.625 L51.640625,39.296875 L51.953125,39.578125 C52.36601,39.8950712 52.6242128,40.3729903 52.6629933,40.8920519 C52.7017737,41.4111135 52.5174543,41.9220946 52.15625,42.296875 C51.3352224,43.1389304 49.9997863,43.1940679 49.1121379,42.4225604 C48.2244895,41.6510529 48.0930399,40.3209586 48.8125,39.390625 C49.3650707,38.64154 50.4042787,38.4501069 51.1875,38.953125 L50.4375,39.8125 C50.1224334,39.6716455 49.7517973,39.7691813 49.546875,40.046875 C49.140625,40.515625 49.296875,41.109375 49.828125,41.609375 C50.359375,42.109375 51,42.140625 51.390625,41.609375 C51.6571828,41.3636383 51.7098027,40.962411 51.515625,40.65625 L51.109375,41.1875 Z" id="Path"></path>
            <path d="M57.5625,36.765625 C57.1320058,37.1478181 56.5631409,37.335901 55.9896677,37.2856482 C55.4161946,37.2353954 54.8887114,36.9512407 54.53125,36.5 C53.8175587,35.6093253 53.9486976,34.3111397 54.8260994,33.5811926 C55.7035012,32.8512455 57.0038786,32.9584932 57.7498346,33.8223254 C58.4957907,34.6861577 58.4124707,35.9882871 57.5625,36.75 L57.5625,36.765625 Z M55.265625,34.203125 C54.828125,34.59375 54.875,35.203125 55.375,35.765625 C55.875,36.328125 56.46875,36.4375 56.9375,36.046875 C57.2635722,35.565663 57.2199314,34.9242084 56.8316879,34.4915942 C56.4434444,34.05898 55.8104315,33.9464491 55.296875,34.21875 L55.265625,34.203125 Z" id="Shape"></path>
            <path d="M63.71875,31.890625 C63.0073542,32.4443034 62.0304183,32.5087272 61.2524748,32.0532631 C60.4745312,31.5977989 60.0525495,30.714348 60.1871816,29.8229906 C60.3218137,28.9316333 60.9858943,28.212223 61.8636534,28.006839 C62.7414126,27.8014549 63.6557405,28.1515384 64.171875,28.890625 C64.5327531,29.3400738 64.6890907,29.9200285 64.6030067,30.4899642 C64.5169226,31.0599 64.1962722,31.5678096 63.71875,31.890625 L63.71875,31.890625 Z M61.75,29.078125 C61.28125,29.40625 61.25,30.015625 61.671875,30.640625 C62.09375,31.265625 62.6875,31.4375 63.234375,31.109375 C63.6183386,30.6715726 63.6540177,30.0282751 63.3208237,29.5506971 C62.9876298,29.0731191 62.3715632,28.8845279 61.828125,29.09375 L61.75,29.078125 Z" id="Shape"></path>
            <path d="M66.671875,24.890625 L68.09375,24.140625 C69.1335986,23.5883403 70.4242778,23.9835889 70.9765625,25.0234375 C71.5288472,26.0632861 71.1335986,27.3539653 70.09375,27.90625 L68.75,28.6875 L66.671875,24.890625 Z M69.59375,27.125 C70.1027935,26.7942818 70.2750168,26.1295797 69.9906161,25.5932812 C69.7062155,25.0569828 69.0593501,24.8266458 68.5,25.0625 L68.09375,25.265625 L69.1875,27.34375 L69.59375,27.125 Z" id="Shape"></path>
            <path d="M81.578125,21.65625 L81.34375,20.875 L83.046875,20.375 L83.15625,20.78125 C83.3410907,21.2675124 83.306123,21.8100169 83.0603861,22.268526 C82.8146492,22.727035 82.3822632,23.0565441 81.875,23.171875 C80.7235007,23.4822794 79.534063,22.8200512 79.1913711,21.6777449 C78.8486792,20.5354386 79.4771668,19.3278328 80.609375,18.953125 C81.4725012,18.6100003 82.4533309,19.0009604 82.84375,19.84375 L81.75,20.171875 C81.5697984,19.8819384 81.207376,19.7633274 80.890625,19.890625 C80.296875,20.0625 80.09375,20.65625 80.296875,21.34375 C80.5,22.03125 81.015625,22.40625 81.59375,22.234375 C81.9518708,22.1613488 82.2115001,21.8497936 82.21875,21.484375 L81.578125,21.65625 Z" id="Path"></path>
            <path d="M89.375,21.421875 C88.4885401,21.6205341 87.5705313,21.2587371 87.0579606,20.5087051 C86.54539,19.7586732 86.5418215,18.771949 87.0489539,18.0182294 C87.5560862,17.2645097 88.4714542,16.8960823 89.3593278,17.0883246 C90.2472014,17.2805668 90.9281872,17.9946366 91.078125,18.890625 C91.211294,19.4543017 91.1031808,20.0479797 90.7798513,20.5285245 C90.4565217,21.0090694 89.9473151,21.3328759 89.375,21.421875 Z M88.796875,18.03125 C88.234375,18.125 87.9375,18.671875 88.0625,19.40625 C88.1875,20.140625 88.640625,20.546875 89.203125,20.453125 C89.765625,20.359375 90.078125,19.8125 89.953125,19.078125 C89.828125,18.34375 89.375,17.9375 88.796875,18.03125 Z" id="Shape"></path>
            <polygon id="Path" points="98.078125 16.1875 98.078125 17.140625 96.125 17.234375 96.125 17.90625 97.90625 17.8125 97.90625 18.75 96.125 18.84375 96.125 19.59375 98.09375 19.484375 98.09375 20.453125 94.96875 20.609375 94.75 16.34375"></polygon>
            <path d="M103.21875,19.3125 C103.293946,19.6078596 103.571218,19.8059109 103.875,19.78125 C104.21875,19.78125 104.453125,19.671875 104.46875,19.40625 C104.484375,19.140625 104.359375,19.109375 104.09375,19.03125 L103.28125,18.8125 C102.666364,18.7245118 102.219536,18.1829021 102.25,17.5625 C102.297009,17.1498886 102.50634,16.7729646 102.831761,16.5149734 C103.157182,16.2569823 103.571919,16.1391498 103.984375,16.1875 C104.836762,16.1244085 105.581657,16.7579176 105.65625,17.609375 L104.5625,17.609375 C104.479996,17.332629 104.226277,17.1423401 103.9375,17.140625 C103.609375,17.140625 103.390625,17.25 103.375,17.484375 C103.359375,17.71875 103.484375,17.796875 103.703125,17.859375 L104.53125,18.09375 C105.165792,18.1892438 105.624959,18.7496967 105.59375,19.390625 C105.59375,20.265625 104.78125,20.71875 103.84375,20.671875 C102.959949,20.7225238 102.182236,20.0935909 102.046875,19.21875 L103.21875,19.3125 Z" id="Path"></path>
            <path d="M117.546875,18.46875 L118.046875,23.03125 L116.953125,22.734375 L116.859375,21.859375 L115.296875,21.46875 L114.796875,22.203125 L113.71875,21.921875 L116.375,18.1875 L117.546875,18.46875 Z M115.984375,20.671875 L116.828125,20.890625 L116.703125,19.609375 L115.984375,20.671875 Z" id="Shape"></path>
            <path d="M123.125,23.28125 L122.609375,24.59375 L121.578125,24.203125 L123.140625,20.21875 L125,20.875 C125.395664,20.980555 125.724692,21.2551353 125.899347,21.6255241 C126.074001,21.9959129 126.076527,22.4244533 125.90625,22.796875 C125.731999,23.3351524 125.221657,23.6923918 124.65625,23.671875 L125,25.5625 L123.84375,25.109375 L123.53125,23.546875 L123.125,23.28125 Z M123.4375,22.4375 L124.09375,22.6875 C124.453125,22.828125 124.703125,22.6875 124.8125,22.421875 C124.872115,22.2858593 124.868183,22.1303815 124.801769,21.9975531 C124.735355,21.8647247 124.613332,21.7682924 124.46875,21.734375 L123.8125,21.484375 L123.4375,22.4375 Z" id="Shape"></path>
            <path d="M130,28.046875 C129.17779,27.655623 128.678092,26.8017388 128.7397,25.8932716 C128.801308,24.9848045 129.411712,24.2062019 130.279218,23.9295381 C131.146723,23.6528743 132.095197,23.9343207 132.67139,24.6393814 C133.247582,25.344442 133.334507,26.3299673 132.890625,27.125 C132.647394,27.6475779 132.19658,28.0445283 131.64742,28.2196657 C131.098261,28.394803 130.500869,28.3321452 130,28.046875 L130,28.046875 Z M131.5625,25.015625 C131.0625,24.75 130.5,25.015625 130.140625,25.640625 C129.78125,26.265625 129.890625,26.90625 130.40625,27.203125 C130.921875,27.5 131.484375,27.203125 131.84375,26.59375 C132.203125,25.984375 132.140625,25.296875 131.625,25.015625 L131.5625,25.015625 Z" id="Shape"></path>
            <path d="M136.09375,29.53125 L137.5,27.46875 L138.421875,28.109375 L137.015625,30.09375 C136.671875,30.59375 136.71875,31.015625 137.109375,31.28125 C137.5,31.546875 137.890625,31.453125 138.25,30.96875 L139.640625,28.96875 L140.5625,29.609375 L139.09375,31.6875 C138.498318,32.5504449 137.31607,32.7673069 136.453125,32.171875 C135.59018,31.576443 135.373318,30.3941949 135.96875,29.53125 L136.09375,29.53125 Z" id="Path"></path>
            <polygon id="Path" points="144.03125 38.0625 143.359375 37.46875 143.703125 34.34375 142.03125 36.203125 141.21875 35.484375 144.09375 32.359375 144.859375 33.046875 144.515625 35.90625 146.078125 34.15625 146.875 34.9375"></polygon>
            <path d="M150,38.140625 L151.0625,39.359375 C151.564905,39.9371404 151.720912,40.7390475 151.471755,41.4630255 C151.222597,42.1870035 150.606129,42.723063 149.854567,42.8692755 C149.103005,43.0154881 148.33053,42.7496405 147.828125,42.171875 L146.765625,40.953125 L150,38.140625 Z M148.53125,41.5 C148.810364,41.8153985 149.236539,41.9579334 149.649239,41.8739131 C150.061939,41.7898927 150.398465,41.4920819 150.532051,41.0926631 C150.665637,40.6932442 150.575989,40.2528985 150.296875,39.9375 L150,39.625 L148.21875,41.1875 L148.53125,41.5 Z" id="Shape"></path>
            <path d="M51.90625,125.796875 L49.71875,129.8125 L48.984375,128.953125 L49.40625,128.171875 L48.40625,127 L47.578125,127.3125 L46.859375,126.46875 L51.171875,124.90625 L51.90625,125.796875 Z M49.328125,126.65625 L49.890625,127.328125 L50.53125,126.21875 L49.328125,126.65625 Z" id="Shape"></path>
            <polygon id="Path" points="55.078125 129.21875 57.8125 131.8125 57.15625 132.515625 56.1875 131.609375 53.921875 134.03125 53.109375 133.265625 55.375 130.84375 54.40625 129.9375"></polygon>
            <polygon id="Path" points="60.71875 134.21875 61.609375 134.890625 59.640625 137.53125 61.203125 138.6875 60.625 139.453125 58.1875 137.640625"></polygon>
            <path d="M68.484375,139.421875 L67.734375,143.9375 L66.75,143.359375 L66.90625,142.5 L65.5625,141.71875 L64.890625,142.28125 L63.9375,141.71875 L67.484375,138.84375 L68.484375,139.421875 Z M66.328125,141.09375 L67.078125,141.53125 L67.3125,140.265625 L66.328125,141.09375 Z" id="Shape"></path>
            <polygon id="Path" points="75 147.296875 74.171875 146.9375 73.4375 143.9375 72.453125 146.234375 71.453125 145.8125 73.140625 141.875 74.109375 142.296875 74.6875 145.109375 75.625 142.9375 76.609375 143.375"></polygon>
            <polygon id="Path" points="80.171875 144.640625 83.78125 145.703125 83.5 146.625 82.234375 146.25 81.296875 149.375 80.21875 149.0625 81.15625 145.9375 79.890625 145.5625"></polygon>
            <path d="M89.4375,146.90625 L90.296875,151.390625 L89.1875,151.203125 L89.03125,150.328125 L87.46875,150.0625 L87.03125,150.828125 L85.9375,150.5625 L88.28125,146.640625 L89.4375,146.90625 Z M88,149.21875 L88.859375,149.359375 L88.640625,148.109375 L88,149.21875 Z" id="Shape"></path>
            <path d="M111.46875,149.609375 L111.328125,148.78125 L113.078125,148.484375 L113.078125,148.90625 C113.203022,149.411625 113.102606,149.946328 112.802867,150.371957 C112.503128,150.797586 112.033531,151.072303 111.515625,151.125 C110.316132,151.332107 109.175857,150.527618 108.96875,149.328125 C108.761643,148.128632 109.566132,146.988357 110.765625,146.78125 C111.664186,146.54575 112.590183,147.053333 112.875,147.9375 L111.75,148.140625 C111.60818,147.823896 111.25649,147.658004 110.921875,147.75 C110.3125,147.84375 110.046875,148.421875 110.171875,149.125 C110.296875,149.828125 110.75,150.265625 111.359375,150.15625 C111.719048,150.130379 112.011915,149.857037 112.0625,149.5 L111.46875,149.609375 Z" id="Path"></path>
            <polygon id="Path" points="119.34375 144.796875 119.609375 145.71875 117.734375 146.265625 117.921875 146.90625 119.640625 146.40625 119.90625 147.3125 118.1875 147.8125 118.390625 148.515625 120.265625 147.96875 120.546875 148.890625 117.609375 149.75 116.40625 145.65625"></polygon>
            <path d="M126.453125,146.78125 C125.92238,147.007978 125.321251,147.003777 124.793728,146.769651 C124.266204,146.535525 123.859805,146.092566 123.671875,145.546875 C123.291709,144.470975 123.843068,143.288782 124.911673,142.88857 C125.980278,142.488358 127.172572,143.017522 127.592689,144.078459 C128.012807,145.139397 127.506023,146.341373 126.453125,146.78125 Z M125.109375,143.65625 C124.578125,143.890625 124.421875,144.484375 124.71875,145.21875 C125.015625,145.953125 125.53125,146.203125 126.0625,145.984375 C126.59375,145.765625 126.765625,145.15625 126.484375,144.421875 C126.203125,143.6875 125.640625,143.390625 125.109375,143.609375 L125.109375,143.65625 Z" id="Shape"></path>
            <path d="M132.421875,142.203125 L133.109375,143.4375 L132.15625,143.984375 L130.03125,140.28125 L131.703125,139.328125 C132.029589,139.080559 132.44945,138.991477 132.848315,139.08515 C133.24718,139.178823 133.583493,139.445491 133.765625,139.8125 C134.093139,140.294104 134.054624,140.936011 133.671875,141.375 L135.234375,142.203125 L134.15625,142.8125 L132.59375,142.03125 L132.421875,142.203125 Z M131.96875,141.4375 L132.578125,141.09375 C132.921875,140.890625 132.984375,140.625 132.828125,140.359375 C132.761895,140.22149 132.636192,140.121509 132.486941,140.088003 C132.337689,140.054498 132.181312,140.091155 132.0625,140.1875 L131.46875,140.546875 L131.96875,141.4375 Z" id="Shape"></path>
            <path d="M139.625,137.484375 L139.140625,136.8125 L140.5625,135.765625 L140.8125,136.109375 C141.148084,136.505803 141.297472,137.02715 141.222764,137.541145 C141.148055,138.055139 140.856429,138.512386 140.421875,138.796875 C139.44233,139.40569 138.159686,139.162515 137.470955,138.237414 C136.782223,137.312313 136.917096,136.013807 137.78125,135.25 C138.485907,134.634738 139.548139,134.675857 140.203125,135.34375 L139.28125,136.015625 C139.012232,135.798728 138.628393,135.798728 138.359375,136.015625 C137.875,136.375 137.890625,137 138.359375,137.578125 C138.828125,138.15625 139.390625,138.34375 139.921875,137.984375 C140.233981,137.792117 140.370446,137.408717 140.25,137.0625 L139.625,137.484375 Z" id="Path"></path>
            <polygon id="Path" points="145.96875 134.109375 145.140625 134.875 142.265625 131.75 143.09375 130.984375"></polygon>
            <path d="M147.609375,126.34375 L151.875,128 L151.125,128.84375 L150.296875,128.515625 L149.25,129.671875 L149.671875,130.4375 L148.9375,131.265625 L146.875,127.125 L147.609375,126.34375 Z M148.796875,128.796875 L149.390625,128.140625 L148.203125,127.671875 L148.796875,128.796875 Z" id="Shape"></path>
            <path d="M101.5625,148.140625 C100.974267,147.912445 100.307816,148.152368 100,148.703125 C99.790466,148.272537 99.3508007,148.001988 98.871988,148.009001 C98.3931752,148.016014 97.9616224,148.299324 97.7647893,148.735864 C97.5679563,149.172405 97.6413639,149.683398 97.953125,150.046875 C98.5121844,150.807249 99.2059514,151.458649 100,151.96875 C100.794049,151.458649 101.487816,150.807249 102.046875,150.046875 C102.275187,149.74092 102.353201,149.348257 102.259186,148.978263 C102.165171,148.608268 101.909173,148.300477 101.5625,148.140625 L101.5625,148.140625 Z" id="Path"></path>
            <path d="M19.3125,65 C20.1418521,61.4619043 22.2944133,58.3756347 25.328125,56.375 C32.5080095,52.9392589 36.6496133,45.2621396 35.578125,37.375 C35.4445038,33.8063865 36.8099496,30.3446132 39.34375,27.828125 C41.7450479,25.0008355 45.2159745,23.3021765 48.921875,23.140625 L49.140625,23.140625 C49.6875,23.140625 50.25,23.140625 50.8125,23.140625 C57.828125,23.140625 65.34375,17.875 67.546875,11.546875 C69.5,7.296875 74.96875,4.171875 80.5625,4.171875 C82.6670723,4.13992608 84.7408329,4.6799679 86.5625,5.734375 C89.5668791,7.86145199 93.1795585,8.95786455 96.859375,8.859375 C100.97974,8.95192838 105.001203,7.5911582 108.21875,5.015625 C110.258409,3.65036222 112.671421,2.95157127 115.125,3.015625 C120.390625,3.015625 125.53125,5.6875 127.625,9.46875 C130.078125,15.34375 137.328125,19.953125 144.15625,19.953125 C145.015617,19.9498776 145.873053,19.8714536 146.71875,19.71875 C150.720533,19.5881069 154.573417,21.2426143 157.234375,24.234375 C159.730469,26.6264917 161.165292,29.9181448 161.21875,33.375 C160.3125,40.734375 165.6875,49.359375 172.65625,51.78125 C175.909288,53.4446537 178.313389,56.3987497 179.28125,59.921875 C179.810862,61.5870443 180.043572,63.3323645 179.96875,65.078125 L181.25,65.078125 C181.31965,63.2049783 181.065936,61.3338405 180.5,59.546875 C179.428466,55.621799 176.750487,52.331062 173.125,50.484375 C166.26289,47.6709298 161.979351,40.773172 162.5,33.375 C162.429125,29.5803217 160.849043,25.9703116 158.109375,23.34375 C155.377426,20.369413 151.581064,18.5947825 147.546875,18.40625 C147.187823,18.3847056 146.827802,18.3847056 146.46875,18.40625 C145.685435,18.5516133 144.890439,18.6248366 144.09375,18.625 C137.75,18.625 131.03125,14.375 128.734375,8.875 C126.390625,4.578125 120.921875,1.703125 115.09375,1.703125 C112.351996,1.63192011 109.657243,2.42449456 107.390625,3.96875 C104.414712,6.36167158 100.692994,7.63358138 96.875,7.5625 C93.450887,7.64625671 90.093123,6.6093002 87.3125,4.609375 C85.2681156,3.42570944 82.9401327,2.82075798 80.578125,2.859375 C74.5,2.859375 68.53125,6.265625 66.359375,11.015625 C64.296875,16.921875 57.328125,21.71875 50.828125,21.71875 C50.305955,21.7165339 49.7843138,21.6852355 49.265625,21.625 C45.068951,21.7434386 41.1206331,23.6409036 38.40625,26.84375 C35.5852342,29.7140179 34.0997999,33.6373787 34.3125,37.65625 C35.59375,44.328125 31.078125,52.765625 24.78125,55.390625 C21.2965646,57.4694065 18.8553586,60.9268355 18.0625,64.90625 C18.0625,65 18.0625,65 18.0625,65 L19.3125,65 Z" id="Path"></path>
            <path d="M180.6875,103.3125 C179.858148,106.850596 177.705587,109.936865 174.671875,111.9375 C167.49199,115.373241 163.350387,123.05036 164.421875,130.9375 C164.555496,134.506114 163.19005,137.967887 160.65625,140.484375 C158.240874,143.282574 154.771885,144.951989 151.078125,145.09375 L150.859375,145.09375 C150.3125,145.09375 149.75,145.09375 149.1875,145.09375 C142.171875,145.09375 134.65625,150.359375 132.453125,156.6875 C130.5,160.9375 125.03125,164.0625 119.4375,164.0625 C117.332928,164.094449 115.259167,163.554407 113.4375,162.5 C110.433121,160.372923 106.820442,159.27651 103.140625,159.375 C99.0202596,159.282447 94.9987965,160.643217 91.78125,163.21875 C89.7415911,164.584013 87.3285786,165.282804 84.875,165.21875 C79.609375,165.21875 74.46875,162.546875 72.375,158.765625 C69.921875,152.890625 62.671875,148.28125 55.84375,148.28125 C54.9843829,148.284497 54.1269474,148.362921 53.28125,148.515625 C49.2794674,148.646268 45.4265834,146.991761 42.765625,144 C40.2808196,141.635868 38.8364462,138.381813 38.75,134.953125 C39.65625,127.59375 34.28125,118.96875 27.3125,116.546875 C24.0594622,114.883471 21.655361,111.929375 20.6875,108.40625 C20.1578878,106.741081 19.9251784,104.99576 20,103.25 L18.75,103.25 C18.68035,105.123147 18.9340636,106.994285 19.5,108.78125 C20.5715341,112.706326 23.2495133,115.997063 26.875,117.84375 C33.7313432,120.655366 38.0136766,127.544885 37.5,134.9375 C37.5708747,138.732178 39.150957,142.342188 41.890625,144.96875 C44.6225743,147.943087 48.4189357,149.717717 52.453125,149.90625 C52.8121771,149.927794 53.1721979,149.927794 53.53125,149.90625 C54.3145654,149.760887 55.1095609,149.687663 55.90625,149.6875 C62.25,149.6875 68.96875,153.9375 71.265625,159.4375 C73.609375,163.734375 79.078125,166.609375 84.90625,166.609375 C87.6480036,166.68058 90.3427568,165.888005 92.609375,164.34375 C95.5852875,161.950828 99.3070062,160.678919 103.125,160.75 C106.549113,160.666243 109.906877,161.7032 112.6875,163.703125 C114.731884,164.886791 117.059867,165.491742 119.421875,165.453125 C125.5,165.453125 131.46875,162.046875 133.640625,157.296875 C135.703125,151.390625 142.671875,146.59375 149.171875,146.59375 C149.694045,146.595966 150.215686,146.627265 150.734375,146.6875 C154.961881,146.605233 158.948367,144.70311 161.671875,141.46875 C164.492891,138.598482 165.978325,134.675121 165.765625,130.65625 C164.484375,123.984375 169,115.546875 175.296875,112.921875 C178.78156,110.843093 181.222766,107.385665 182.015625,103.40625 C182.015625,103.3125 182.015625,103.3125 182.015625,103.3125 L180.6875,103.3125 Z" id="Path"></path>
            <path d="M178.578125,103.3125 C178.09375,103.3125 177.578125,104.109375 177.015625,104.484375 C170.235061,108.632726 166.897825,116.676159 168.75,124.40625 C169.251853,128.07662 168.179256,131.788147 165.796875,134.625 C163.653445,137.648635 160.346546,139.641834 156.671875,140.125 L156.25,140.125 C148.390388,140.47372 141.612756,145.759144 139.359375,153.296875 C137.703125,158.15625 131.734375,161.953125 125.765625,161.953125 C124.14918,161.962838 122.549879,161.621653 121.078125,160.953125 C118.483306,159.419127 115.513879,158.634852 112.5,158.6875 C107.702842,158.571227 103.05942,160.383569 99.609375,163.71875 C97.2769333,165.578537 94.3562734,166.542853 91.375,166.4375 C86.578125,166.4375 82,164.359375 79.890625,161.1875 C77.125,156.03125 70.421875,152.28125 63.96875,152.28125 C62.5845188,152.275522 61.2063863,152.464884 59.875,152.84375 C59.2685062,152.969529 58.650648,153.032362 58.03125,153.03125 C51.40625,153.03125 44.5,146.921875 44.078125,140.765625 C43.8301885,132.803679 38.5299323,125.887568 30.90625,123.578125 C27.4568052,122.189139 24.7476588,119.417649 23.4375,115.9375 C21.8777029,112.618249 21.7869617,108.795776 23.1875,105.40625 C23.6391816,104.752333 24.0165145,104.050075 24.3125,103.3125 L22.875,103.3125 C22.640625,103.3125 22.375,104.25 22.046875,104.78125 C19.0247403,112.653627 22.7460276,121.508912 30.484375,124.859375 C37.5769573,126.990578 42.5068841,133.425297 42.71875,140.828125 C43.171875,147.65625 50.734375,154.34375 57.96875,154.34375 C58.6928343,154.339819 59.414879,154.266568 60.125,154.125 C61.3536127,153.768407 62.6269418,153.58951 63.90625,153.59375 C69.90625,153.59375 76.125,157.046875 78.703125,161.859375 C81.25,165.4375 86.125,167.75 91.34375,167.75 L91.34375,167.75 C94.6634032,167.847175 97.9056059,166.736832 100.46875,164.625 C103.703832,161.536637 108.028267,159.851792 112.5,159.9375 C115.298922,159.883722 118.057754,160.608592 120.46875,162.03125 C122.150536,162.81636 123.987889,163.211604 125.84375,163.1875 C132.328125,163.1875 138.84375,159 140.6875,153.59375 C142.825548,146.649834 149.058463,141.769461 156.3125,141.359375 L156.65625,141.359375 C165.00687,140.041773 170.856018,132.405576 169.953125,124 C168.03125,117.484375 171.703125,108.828125 177.765625,105.59375 C178.715373,104.948019 179.576811,104.18113 180.328125,103.3125 L178.578125,103.3125 Z" id="Path"></path>
            <path d="M21.421875,65 C21.90625,65 22.421875,64.203125 22.984375,63.828125 C29.7649388,59.6797742 33.102175,51.6363411 31.25,43.90625 C30.7481469,40.2358801 31.8207443,36.5243528 34.203125,33.6875 C36.346555,30.6638654 39.6534537,28.6706662 43.328125,28.1875 L43.75,28.1875 C51.6096121,27.8387798 58.387244,22.5533555 60.640625,15.015625 C62.296875,10.15625 68.265625,6.359375 74.234375,6.359375 C75.8508203,6.34966239 77.4501211,6.69084658 78.921875,7.359375 C81.517646,8.89109533 84.4864183,9.6751973 87.5,9.625 C92.2971583,9.7412728 96.9405798,7.92893133 100.390625,4.59375 C102.723067,2.73396342 105.643727,1.76964686 108.625,1.875 C113.421875,1.875 118,3.953125 120.109375,7.125 C122.875,12.28125 129.578125,16.03125 136.03125,16.03125 C137.415481,16.0369776 138.793614,15.8476159 140.125,15.46875 C140.731494,15.3429711 141.349352,15.2801381 141.96875,15.28125 C148.59375,15.28125 155.5,21.390625 155.921875,27.546875 C156.169811,35.5088211 161.470068,42.4249323 169.09375,44.734375 C172.543195,46.1233607 175.252341,48.8948513 176.5625,52.375 C178.122297,55.6942509 178.213038,59.5167241 176.8125,62.90625 C176.375,63.625 176,65 175.6875,65 L177.125,65 C177.359375,65 177.625,64.0625 177.953125,63.53125 C180.97526,55.6588728 177.253972,46.8035875 169.515625,43.453125 C162.423043,41.3219222 157.493116,34.887203 157.28125,27.484375 C156.828125,20.65625 149.265625,13.96875 142.03125,13.96875 C141.307166,13.9726806 140.585121,14.0459315 139.875,14.1875 C138.646387,14.5440925 137.373058,14.72299 136.09375,14.71875 C130.09375,14.71875 123.875,11.265625 121.296875,6.453125 C118.828125,2.875 113.875,0.5625 108.65625,0.5625 C105.336597,0.46532493 102.094394,1.57566833 99.53125,3.6875 C96.2961676,6.77586332 91.9717335,8.46070779 87.5,8.375 C84.7010777,8.42877788 81.9422459,7.70390834 79.53125,6.28125 C77.8494638,5.49613999 76.0121114,5.10089559 74.15625,5.125 C67.671875,5.125 61.15625,9.3125 59.3125,14.71875 C57.1744522,21.6626659 50.9415365,26.5430389 43.6875,26.953125 L43.34375,26.953125 C39.2684953,27.455959 35.5904378,29.6435247 33.203125,32.984375 C30.6071469,36.167338 29.4726538,40.296893 30.078125,44.359375 C32,50.875 28.328125,59.53125 22.265625,62.765625 C21.3158765,63.4113558 20.4544391,64.1782453 19.703125,65.046875 L21.421875,65 Z" id="Path"></path>
            <path d="M47.28125,64.046875 C48.6395957,60.4201876 50.3784733,56.9476699 52.46875,53.6875 L86.40625,34.15625 L86.78125,34.734375 L48.578125,64.046875 L47.28125,64.046875 Z M50.71875,64.046875 L87.578125,35.78125 L88.046875,36.296875 L60.28125,64.046875 L50.71875,64.046875 Z M62.140625,64.046875 L88.96875,37.21875 L89.484375,37.6875 L69.25,64.046875 L62.140625,64.046875 Z M70.90625,64.046875 L90.515625,38.484375 L91.109375,38.859375 L76.5625,64.046875 L70.90625,64.046875 Z M78.078125,64.046875 L92.1875,39.515625 L92.8125,39.84375 L82.8125,64.046875 L78.078125,64.046875 Z M84.328125,64.046875 L94.0625,40.34375 L94.734375,40.5625 L88.484375,64 L84.328125,64.046875 Z M89.859375,64.046875 L96.109375,40.890625 L96.78125,41.046875 L93.640625,64.046875 L89.859375,64.046875 Z M95.046875,64.046875 L97.96875,41.1875 L98.671875,41.1875 L98.671875,64.046875 L95.046875,64.046875 Z M100.0625,64.046875 L100.0625,41.1875 L100.75,41.1875 L103.765625,64.015625 L100.0625,64.046875 Z M105.078125,64.046875 L101.96875,41.046875 L102.65625,40.890625 L108.90625,64.046875 L105.078125,64.046875 Z M110.296875,64.046875 L104.046875,40.609375 L104.703125,40.390625 L114.53125,64.09375 L110.296875,64.046875 Z M115.890625,64.046875 L105.78125,39.828125 L106.40625,39.515625 L120.578125,64.046875 L115.890625,64.046875 Z M122.140625,64.046875 L107.609375,38.859375 L108.1875,38.484375 L127.75,64.046875 L122.140625,64.046875 Z M129.453125,64.046875 L109.140625,37.671875 C109.3125,37.53125 109.5,37.375 109.65625,37.21875 L136.515625,64.046875 L129.453125,64.046875 Z M138.421875,64.046875 L110.609375,36.296875 C110.765625,36.125 110.921875,35.953125 111.0625,35.765625 L147.921875,64.046875 L138.421875,64.046875 Z M150.140625,64.046875 L111.859375,34.734375 L112.25,34.15625 L148.328125,54.984375 L148.328125,54.984375 C148.90625,55.9375 149.4375,56.921875 149.890625,57.90625 C150.03125,58.15625 150.15625,58.421875 150.28125,58.6875 C150.703125,59.5 151.09375,60.25 151.46875,61.171875 L151.78125,61.828125 C152.09375,62.5625 152.375,63.390625 152.65625,64.046875 L150.140625,64.046875 Z M146.875,52.59375 L112.890625,33.015625 C113,32.8125 113.109375,32.609375 113.203125,32.390625 L138.421875,42.84375 L138.421875,42.84375 C139.15625,43.53125 139.859375,44.234375 140.5625,44.953125 L140.84375,45.265625 C141.4375,45.875 142.015625,46.515625 142.578125,47.171875 C142.734375,47.328125 142.875,47.5 143.03125,47.671875 C143.552083,48.2864583 144.072917,48.9114583 144.59375,49.546875 L145.046875,50.109375 C145.65625,50.90625 146.25,51.671875 146.8125,52.5625 L146.8125,52.5625 M135.3125,40.0625 L113.703125,31.1875 C113.907791,30.6408545 114.079966,30.0825893 114.21875,29.515625 C116.149212,30.0229834 118.052699,30.6279272 119.921875,31.328125 L120.015625,31.328125 C120.90625,31.671875 121.78125,32.015625 122.640625,32.40625 L122.84375,32.484375 C123.677083,32.859375 124.489583,33.25 125.28125,33.65625 L125.546875,33.78125 C126.328125,34.1875 127.109375,34.59375 127.859375,35.03125 L128.125,35.1875 C128.890625,35.625 129.6875,36.078125 130.390625,36.5625 L130.609375,36.703125 C131.375,37.203125 132.171875,37.703125 132.859375,38.265625 L133,38.375 C133.765625,38.921875 134.5625,39.5 135.265625,40.09375 L135.265625,40.09375 M113.03125,29.15625 C112.899506,29.823902 112.722004,30.4817037 112.5,31.125 L112.21875,31.796875 C112.09375,32.078125 111.953125,32.359375 111.8125,32.625 L111.53125,33.09375 C111.24271,33.5866233 110.924412,34.0614611 110.578125,34.515625 L110.296875,34.875 C110.125,35.09375 109.9375,35.296875 109.75,35.5 C109.5625,35.703125 109.21875,36.046875 108.9375,36.3125 C108.65625,36.578125 108.4375,36.765625 108.15625,36.984375 L107.53125,37.46875 L106.921875,37.875 C106.625,38.0625 106.3125,38.25 105.984375,38.421875 L105.375,38.734375 L105.375,38.734375 C104.983743,38.9236745 104.582055,39.0906097 104.171875,39.234375 L104.171875,39.234375 L103.5,39.453125 C103.203125,39.546875 102.890625,39.625 102.59375,39.6875 L101.859375,39.859375 L101.859375,39.859375 C101.430605,39.9406741 100.997645,39.9980544 100.5625,40.03125 L100.5625,40.03125 L100.03125,40.03125 L100.03125,40.03125 L99.375,40.03125 L98.71875,40.03125 L98.125,40.03125 C97.6899618,39.9970395 97.2570561,39.9396665 96.828125,39.859375 L96.828125,39.859375 L96.125,39.703125 L95.21875,39.453125 L94.53125,39.234375 L94.53125,39.234375 C94.1200109,39.0933911 93.7181576,38.9263872 93.328125,38.734375 L93.328125,38.734375 L92.71875,38.421875 C92.40625,38.25 92.109375,38.078125 91.8125,37.875 L91.25,37.515625 L90.4375,36.890625 L89.75,36.296875 C89.484375,36.046875 89.234375,35.796875 89,35.53125 C88.765625,35.265625 88.640625,35.171875 88.484375,34.96875 C88.4233236,34.8988674 88.3659542,34.8258518 88.3125,34.75 C87.9296244,34.2527092 87.5799096,33.7307468 87.265625,33.1875 C87.15625,33.015625 87.0625,32.84375 86.96875,32.671875 C86.875,32.5 86.671875,32.125 86.546875,31.859375 C86.421875,31.59375 86.203125,31.078125 86.046875,30.671875 L86.046875,30.671875 C85.90625,30.28125 85.796875,29.890625 85.6875,29.484375 C86.8125,29.1875 87.9375,28.9375 89.09375,28.703125 L89.375,28.703125 C90.34375,28.515625 91.328125,28.359375 92.328125,28.21875 L93.1875,28.109375 C94.015625,28 94.859375,27.921875 95.703125,27.859375 L96.640625,27.859375 C97.765625,27.859375 98.890625,27.75 100.015625,27.75 C101.140625,27.75 102.140625,27.75 103.140625,27.859375 L103.90625,27.859375 C104.734375,27.859375 105.46875,27.984375 106.359375,28.078125 L106.875,28.078125 L107,28.078125 C107.890625,28.1875 108.765625,28.3125 109.640625,28.46875 L109.640625,28.46875 L109.953125,28.46875 C110.9375,28.65625 111.90625,28.859375 112.875,29.078125 L112.875,29.078125 M85.25,32.203125 C85.34375,32.40625 85.453125,32.609375 85.5625,32.8125 L54.15625,51.265625 C56.6440205,47.8295077 59.5110671,44.6846669 62.703125,41.890625 L62.703125,41.890625 L85.25,32.203125 Z M84.75,30.984375 L66,38.796875 L66,38.796875 L66.546875,38.421875 C66.796875,38.21875 67.0625,38.046875 67.328125,37.859375 L68.140625,37.28125 L69.140625,36.625 L70.328125,35.859375 L71.515625,35.171875 L72.59375,34.546875 L73.953125,33.828125 L74.625,33.484375 L74.890625,33.34375 L76.453125,32.640625 L77.3125,32.25 L78.875,31.578125 L79.671875,31.265625 C80.234375,31.046875 80.796875,30.84375 81.359375,30.65625 L82.140625,30.390625 L83.90625,29.828125 L84.03125,29.828125 L84.28125,29.828125 C84.3982473,30.2728707 84.5390757,30.7110032 84.703125,31.140625 M0.9375,65.359375 L199.0625,65.359375 L199.0625,64.046875 L154.125,64.046875 L153.765625,63.0625 L153.765625,63.0625 L153.53125,62.484375 L153.53125,62.484375 C152.669673,60.3452029 151.683611,58.2583001 150.578125,56.234375 L150.578125,56.234375 L150.578125,56.234375 C150.125,55.40625 149.640625,54.671875 149.140625,53.796875 L149.140625,53.796875 L149.140625,53.703125 C148.65625,52.921875 148.140625,52.140625 147.578125,51.390625 L147.578125,51.390625 C147.046875,50.609375 146.484375,49.828125 145.90625,49.078125 L145.90625,49.078125 L145.703125,48.8125 L145.703125,48.8125 C145.171875,48.125 144.625,47.453125 144.0625,46.796875 L143.90625,46.609375 L143.90625,46.609375 C143.328125,45.953125 142.75,45.296875 142.15625,44.65625 L142.15625,44.65625 L142.015625,44.5 L142.015625,44.5 C141.390625,43.84375 140.734375,43.1875 140.078125,42.5625 L140.078125,42.5625 L140.078125,42.5625 C137.302067,39.911978 134.27183,37.5411709 131.03125,35.484375 L131.03125,35.484375 L129.109375,34.328125 L129.015625,34.328125 C125.709698,32.4267595 122.224021,30.8566349 118.609375,29.640625 L118.4375,29.640625 L116.140625,28.6875 L116,28.6875 C96.8145682,23.1403405 76.1248182,27.916717 61.3125,41.3125 C61.2521484,41.3779592 61.1839206,41.4356905 61.109375,41.484375 C54.3003924,47.6978482 49.0677222,55.4424144 45.84375,64.078125 L0.9375,64.078125 L0.9375,65.359375 Z M47.265625,104.265625 L152.734375,104.265625 C152.109375,105.921875 151.390625,107.5625 150.609375,109.140625 L150.609375,109.140625 L150.46875,109.03125 C148.971223,107.717591 146.731902,107.717591 145.234375,109.03125 C144.232648,109.827317 142.814227,109.827317 141.8125,109.03125 C140.314973,107.717591 138.075652,107.717591 136.578125,109.03125 C135.576398,109.827317 134.157977,109.827317 133.15625,109.03125 C131.658723,107.717591 129.419402,107.717591 127.921875,109.03125 C126.927169,109.830663 125.510331,109.830663 124.515625,109.03125 C123.018098,107.717591 120.778777,107.717591 119.28125,109.03125 C118.279523,109.827317 116.861102,109.827317 115.859375,109.03125 C114.361848,107.717591 112.122527,107.717591 110.625,109.03125 C109.630294,109.830663 108.213456,109.830663 107.21875,109.03125 C105.721223,107.717591 103.481902,107.717591 101.984375,109.03125 C100.982648,109.827317 99.5642269,109.827317 98.5625,109.03125 C97.0649728,107.717591 94.8256522,107.717591 93.328125,109.03125 C92.3334191,109.830663 90.9165809,109.830663 89.921875,109.03125 C88.4243478,107.717591 86.1850272,107.717591 84.6875,109.03125 C83.6857731,109.827317 82.2673519,109.827317 81.265625,109.03125 C79.7680978,107.717591 77.5287772,107.717591 76.03125,109.03125 C75.0365441,109.830663 73.6197059,109.830663 72.625,109.03125 C71.1198208,107.722149 68.8801792,107.722149 67.375,109.03125 C66.3802941,109.830663 64.9634559,109.830663 63.96875,109.03125 C62.4712228,107.717591 60.2319022,107.717591 58.734375,109.03125 C57.7326481,109.827317 56.3142269,109.827317 55.3125,109.03125 C53.8149728,107.717591 51.5756522,107.717591 50.078125,109.03125 C49.9115521,109.181013 49.7215259,109.302419 49.515625,109.390625 L49.515625,109.390625 C48.676844,107.72266 47.9258194,106.011993 47.265625,104.265625 M50.109375,110.515625 C50.4350204,110.371349 50.7356498,110.176204 51,109.9375 C51.9904531,109.126096 53.4157969,109.126096 54.40625,109.9375 C55.9088682,111.237565 58.1380068,111.237565 59.640625,109.9375 C60.6360801,109.123659 62.0670449,109.123659 63.0625,109.9375 C64.5651182,111.237565 66.7942568,111.237565 68.296875,109.9375 C69.2873281,109.126096 70.7126719,109.126096 71.703125,109.9375 C73.2057432,111.237565 75.4348818,111.237565 76.9375,109.9375 C77.9329551,109.123659 79.3639199,109.123659 80.359375,109.9375 C81.8619932,111.237565 84.0911318,111.237565 85.59375,109.9375 C86.5952257,109.091432 88.0610243,109.091432 89.0625,109.9375 C90.5651182,111.237565 92.7942568,111.237565 94.296875,109.9375 C95.2923301,109.123659 96.7232949,109.123659 97.71875,109.9375 C99.2213682,111.237565 101.450507,111.237565 102.953125,109.9375 C103.923014,109.184262 105.280111,109.184262 106.25,109.9375 C106.973806,110.576081 107.909884,110.921539 108.875,110.90625 C109.836062,110.925282 110.768571,110.579081 111.484375,109.9375 C112.47983,109.123659 113.910795,109.123659 114.90625,109.9375 C116.408868,111.237565 118.638007,111.237565 120.140625,109.9375 C121.13608,109.123659 122.567045,109.123659 123.5625,109.9375 C125.065118,111.237565 127.294257,111.237565 128.796875,109.9375 C129.787328,109.126096 131.212672,109.126096 132.203125,109.9375 C133.715834,111.273995 135.987291,111.273995 137.5,109.9375 C138.495455,109.123659 139.92642,109.123659 140.921875,109.9375 C142.424493,111.237565 144.653632,111.237565 146.15625,109.9375 C147.146703,109.126096 148.572047,109.126096 149.5625,109.9375 C149.706789,110.060722 149.858084,110.175497 150.015625,110.28125 L150.015625,110.28125 C149.65625,110.96875 149.265625,111.65625 148.875,112.34375 C148.879487,112.374839 148.879487,112.406411 148.875,112.4375 C148.484375,113.125 148.0625,113.796875 147.640625,114.453125 L147.640625,114.453125 C146.777423,114.490726 145.954252,114.827729 145.3125,115.40625 C144.317045,116.220091 142.88608,116.220091 141.890625,115.40625 C140.388007,114.106185 138.158868,114.106185 136.65625,115.40625 C135.660795,116.220091 134.22983,116.220091 133.234375,115.40625 C131.731757,114.106185 129.502618,114.106185 128,115.40625 C127.009547,116.217654 125.584203,116.217654 124.59375,115.40625 C123.091132,114.106185 120.861993,114.106185 119.359375,115.40625 C118.36392,116.220091 116.932955,116.220091 115.9375,115.40625 C114.434882,114.106185 112.205743,114.106185 110.703125,115.40625 C109.712672,116.217654 108.287328,116.217654 107.296875,115.40625 C105.794257,114.106185 103.565118,114.106185 102.0625,115.40625 C101.067045,116.220091 99.6360801,116.220091 98.640625,115.40625 C97.1380068,114.106185 94.9088682,114.106185 93.40625,115.40625 C92.4157969,116.217654 90.9904531,116.217654 90,115.40625 C88.4973818,114.106185 86.2682432,114.106185 84.765625,115.40625 C83.7701699,116.220091 82.3392051,116.220091 81.34375,115.40625 C79.8411318,114.106185 77.6119932,114.106185 76.109375,115.40625 C75.1189219,116.217654 73.6935781,116.217654 72.703125,115.40625 C71.192962,114.110542 68.963288,114.110542 67.453125,115.40625 C66.4626719,116.217654 65.0373281,116.217654 64.046875,115.40625 C62.5442568,114.106185 60.3151182,114.106185 58.8125,115.40625 C57.8170449,116.220091 56.3860801,116.220091 55.390625,115.40625 C54.6079357,114.710904 53.574609,114.366462 52.53125,114.453125 L52.53125,114.453125 C52.140625,113.828125 51.75,113.1875 51.375,112.546875 L51.265625,112.375 C50.90625,111.75 50.546875,111.125 50.21875,110.5 L50.21875,110.5 M53.453125,115.84375 C53.8478675,115.914961 54.2154309,116.093337 54.515625,116.359375 C56.0131522,117.673034 58.2524728,117.673034 59.75,116.359375 C60.7517269,115.563308 62.1701481,115.563308 63.171875,116.359375 C64.6694022,117.673034 66.9087228,117.673034 68.40625,116.359375 C69.4009559,115.559962 70.8177941,115.559962 71.8125,116.359375 C73.3100272,117.673034 75.5493478,117.673034 77.046875,116.359375 C78.0486019,115.563308 79.4670231,115.563308 80.46875,116.359375 C81.9662772,117.673034 84.2055978,117.673034 85.703125,116.359375 C86.6978309,115.559962 88.1146691,115.559962 89.109375,116.359375 C90.6069022,117.673034 92.8462228,117.673034 94.34375,116.359375 C95.3454769,115.563308 96.7638981,115.563308 97.765625,116.359375 C99.2631522,117.673034 101.502473,117.673034 103,116.359375 C103.994706,115.559962 105.411544,115.559962 106.40625,116.359375 C107.124472,117.008981 108.062986,117.360923 109.03125,117.34375 C109.995526,117.36491 110.930592,117.01216 111.640625,116.359375 C112.642352,115.563308 114.060773,115.563308 115.0625,116.359375 C116.560027,117.673034 118.799348,117.673034 120.296875,116.359375 C121.298602,115.563308 122.717023,115.563308 123.71875,116.359375 C125.216277,117.673034 127.455598,117.673034 128.953125,116.359375 C129.947831,115.559962 131.364669,115.559962 132.359375,116.359375 C133.856902,117.673034 136.096223,117.673034 137.59375,116.359375 C138.595477,115.563308 140.013898,115.563308 141.015625,116.359375 C142.513152,117.673034 144.752473,117.673034 146.25,116.359375 L146.5625,116.140625 L146.5625,116.140625 C145.927083,117.067708 145.255208,117.973958 144.546875,118.859375 L144.21875,119.28125 C143.515625,120.171875 142.78125,121.046875 142.015625,121.890625 L142.015625,121.890625 L142.015625,121.890625 C140.518098,120.576966 138.278777,120.576966 136.78125,121.890625 C135.785795,122.704466 134.35483,122.704466 133.359375,121.890625 C131.861848,120.576966 129.622527,120.576966 128.125,121.890625 C127.134547,122.702029 125.709203,122.702029 124.71875,121.890625 C123.221223,120.576966 120.981902,120.576966 119.484375,121.890625 C118.48892,122.704466 117.057955,122.704466 116.0625,121.890625 C114.562405,120.583804 112.32822,120.583804 110.828125,121.890625 C109.837672,122.702029 108.412328,122.702029 107.421875,121.890625 C105.92178,120.583804 103.687595,120.583804 102.1875,121.890625 C101.192045,122.704466 99.7610801,122.704466 98.765625,121.890625 C97.2655303,120.583804 95.0313447,120.583804 93.53125,121.890625 C92.5407969,122.702029 91.1154531,122.702029 90.125,121.890625 C88.6249053,120.583804 86.3907197,120.583804 84.890625,121.890625 C83.8951699,122.704466 82.4642051,122.704466 81.46875,121.890625 C79.9686553,120.583804 77.7344697,120.583804 76.234375,121.890625 C75.2439219,122.702029 73.8185781,122.702029 72.828125,121.890625 C71.317962,120.594917 69.088288,120.594917 67.578125,121.890625 C66.5876719,122.702029 65.1623281,122.702029 64.171875,121.890625 C62.6743478,120.576966 60.4350272,120.576966 58.9375,121.890625 C58.8206166,122.001617 58.6892088,122.096231 58.546875,122.171875 L58.546875,122.171875 C57.703125,121.25 56.90625,120.296875 56.125,119.328125 L55.71875,118.828125 C54.96875,117.859375 54.15625,116.875 53.546875,115.859375 L53.546875,115.859375 M59.46875,123.140625 C59.6006587,123.04504 59.7259452,122.940635 59.84375,122.828125 C60.8392051,122.014284 62.2701699,122.014284 63.265625,122.828125 C64.7631522,124.141784 67.0024728,124.141784 68.5,122.828125 C69.4904531,122.016721 70.9157969,122.016721 71.90625,122.828125 C73.4037772,124.141784 75.6430978,124.141784 77.140625,122.828125 C78.1360801,122.014284 79.5670449,122.014284 80.5625,122.828125 C82.0600272,124.141784 84.2993478,124.141784 85.796875,122.828125 C86.7894805,122.022768 88.2105195,122.022768 89.203125,122.828125 C90.7006522,124.141784 92.9399728,124.141784 94.4375,122.828125 C95.4371866,122.026232 96.8596884,122.026232 97.859375,122.828125 C99.3569022,124.141784 101.596223,124.141784 103.09375,122.828125 C104.084203,122.016721 105.509547,122.016721 106.5,122.828125 C107.218222,123.477731 108.156736,123.829673 109.125,123.8125 C110.089276,123.83366 111.024342,123.48091 111.734375,122.828125 C112.734062,122.026232 114.156563,122.026232 115.15625,122.828125 C116.653777,124.141784 118.893098,124.141784 120.390625,122.828125 C121.38608,122.014284 122.817045,122.014284 123.8125,122.828125 C125.310027,124.141784 127.549348,124.141784 129.046875,122.828125 C130.039481,122.022768 131.460519,122.022768 132.453125,122.828125 C133.950652,124.141784 136.189973,124.141784 137.6875,122.828125 C138.682955,122.014284 140.11392,122.014284 141.109375,122.828125 C141.109375,122.828125 141.109375,122.828125 141.109375,122.828125 L141.109375,122.828125 C139.033125,125.042976 136.780977,127.086108 134.375,128.9375 L134.375,128.9375 C133.939541,128.87293 133.532324,128.682896 133.203125,128.390625 C131.705598,127.076966 129.466277,127.076966 127.96875,128.390625 C126.974044,129.190038 125.557206,129.190038 124.5625,128.390625 C123.064973,127.076966 120.825652,127.076966 119.328125,128.390625 C118.326398,129.186692 116.907977,129.186692 115.90625,128.390625 C114.408723,127.076966 112.169402,127.076966 110.671875,128.390625 C109.677169,129.190038 108.260331,129.190038 107.265625,128.390625 C105.768098,127.076966 103.528777,127.076966 102.03125,128.390625 C101.029523,129.186692 99.6111019,129.186692 98.609375,128.390625 C97.1118478,127.076966 94.8725272,127.076966 93.375,128.390625 C92.3802941,129.190038 90.9634559,129.190038 89.96875,128.390625 C88.4712228,127.076966 86.2319022,127.076966 84.734375,128.390625 C83.7326481,129.186692 82.3142269,129.186692 81.3125,128.390625 C79.8149728,127.076966 77.5756522,127.076966 76.078125,128.390625 C75.0834191,129.190038 73.6665809,129.190038 72.671875,128.390625 C71.1692527,127.074706 68.9244973,127.074706 67.421875,128.390625 C66.9880082,128.767698 66.4341668,128.978157 65.859375,128.984375 L65.859375,128.984375 C63.5552816,127.223698 61.3924354,125.285495 59.390625,123.1875 L59.390625,123.1875 M67.203125,130.015625 C67.6376294,129.871151 68.0368943,129.636915 68.375,129.328125 C69.3654531,128.516721 70.7907969,128.516721 71.78125,129.328125 C73.2838682,130.62819 75.5130068,130.62819 77.015625,129.328125 C78.0110801,128.514284 79.4420449,128.514284 80.4375,129.328125 C81.9401182,130.62819 84.1692568,130.62819 85.671875,129.328125 C86.6623281,128.516721 88.0876719,128.516721 89.078125,129.328125 C90.5807432,130.62819 92.8098818,130.62819 94.3125,129.328125 C95.3079551,128.514284 96.7389199,128.514284 97.734375,129.328125 C99.2369932,130.62819 101.466132,130.62819 102.96875,129.328125 C103.959203,128.516721 105.384547,128.516721 106.375,129.328125 C107.093222,129.977731 108.031736,130.329673 109,130.3125 C109.964276,130.33366 110.899342,129.98091 111.609375,129.328125 C112.60483,128.514284 114.035795,128.514284 115.03125,129.328125 C116.533868,130.62819 118.763007,130.62819 120.265625,129.328125 C121.26108,128.514284 122.692045,128.514284 123.6875,129.328125 C125.190118,130.62819 127.419257,130.62819 128.921875,129.328125 C129.912328,128.516721 131.337672,128.516721 132.328125,129.328125 C132.568499,129.559403 132.849162,129.744746 133.15625,129.875 L133.15625,129.875 C130.519732,131.806766 127.717086,133.500902 124.78125,134.9375 L124.65625,134.9375 L124.515625,134.84375 C123.018098,133.530091 120.778777,133.530091 119.28125,134.84375 C118.279523,135.639817 116.861102,135.639817 115.859375,134.84375 C114.361848,133.530091 112.122527,133.530091 110.625,134.84375 C109.630294,135.643163 108.213456,135.643163 107.21875,134.84375 C105.721223,133.530091 103.481902,133.530091 101.984375,134.84375 C100.982648,135.639817 99.5642269,135.639817 98.5625,134.84375 C97.0649728,133.530091 94.8256522,133.530091 93.328125,134.84375 C92.3334191,135.643163 90.9165809,135.643163 89.921875,134.84375 C88.4243478,133.530091 86.1850272,133.530091 84.6875,134.84375 C83.6857731,135.639817 82.2673519,135.639817 81.265625,134.84375 C79.7680978,133.530091 77.5287772,133.530091 76.03125,134.84375 C75.9210539,134.944588 75.8006061,135.033614 75.671875,135.109375 L75.671875,135.109375 L74.109375,134.28125 L73.421875,133.9375 C72.796875,133.609375 72.1875,133.25 71.578125,132.890625 L71.265625,132.71875 C70.578125,132.3125 69.90625,131.890625 69.234375,131.453125 L69.234375,131.453125 C68.546875,131 67.875,130.53125 67.203125,130.046875 M77.09375,135.75 C78.0746342,134.977941 79.4566158,134.977941 80.4375,135.75 C81.9401182,137.050065 84.1692568,137.050065 85.671875,135.75 C86.6623281,134.938596 88.0876719,134.938596 89.078125,135.75 C90.5807432,137.050065 92.8098818,137.050065 94.3125,135.75 C95.3079551,134.936159 96.7389199,134.936159 97.734375,135.75 C99.2369932,137.050065 101.466132,137.050065 102.96875,135.75 C103.959203,134.938596 105.384547,134.938596 106.375,135.75 C107.098806,136.388581 108.034884,136.734039 109,136.71875 C109.961062,136.737782 110.893571,136.391581 111.609375,135.75 C112.60483,134.936159 114.035795,134.936159 115.03125,135.75 C116.533868,137.050065 118.763007,137.050065 120.265625,135.75 C121.158158,135.028484 122.406276,134.941116 123.390625,135.53125 L123.390625,135.53125 C122.515625,135.921875 121.640625,136.296875 120.75,136.65625 L120.640625,136.65625 C119.78125,137 118.921875,137.3125 118.046875,137.609375 L117.828125,137.6875 C117,137.953125 116.15625,138.21875 115.3125,138.453125 L114.953125,138.546875 C114.15625,138.765625 113.390625,138.96875 112.546875,139.15625 L112.03125,139.265625 C111.28125,139.4375 110.46875,139.578125 109.75,139.703125 L109.0625,139.828125 C108.34375,139.953125 107.625,140.046875 106.890625,140.125 L106.09375,140.234375 C105.359375,140.234375 104.640625,140.359375 103.90625,140.40625 L103.09375,140.40625 C102.125,140.40625 101.15625,140.40625 100.171875,140.40625 L99.96875,140.40625 C99,140.40625 98.046875,140.40625 97.09375,140.40625 L96.34375,140.40625 C95.59375,140.40625 94.78125,140.296875 94.125,140.21875 L93.421875,140.140625 C92.671875,140.046875 91.859375,139.953125 91.171875,139.828125 L90.625,139.734375 C89.828125,139.59375 89.0625,139.453125 88.25,139.28125 L87.875,139.1875 C87.03125,139.015625 86.1875,138.8125 85.359375,138.578125 L85.140625,138.578125 C84.265625,138.34375 83.390625,138.078125 82.53125,137.796875 L82.4375,137.796875 C81.546875,137.5 80.65625,137.1875 79.78125,136.84375 L79.78125,136.84375 C78.890625,136.5 78,136.140625 77.140625,135.75 L77.140625,135.75 M199.1875,104.296875 L199.1875,102.984375 L0.9375,102.984375 L0.9375,104.296875 L45.859375,104.296875 C46.546875,106.125 47.3125,107.90625 48.171875,109.65625 L48.171875,109.65625 C48.375,110.09375 48.609375,110.515625 48.828125,110.953125 L48.828125,110.953125 C50.4512397,114.039657 52.3495622,116.973428 54.5,119.71875 C54.5681979,119.811074 54.6412159,119.899739 54.71875,119.984375 C55.40625,120.859375 56.125,121.71875 56.859375,122.546875 L56.859375,122.546875 C57.5,123.25 58.140625,123.9375 58.796875,124.609375 L58.796875,124.609375 C59.453125,125.28125 60.125,125.921875 60.8125,126.5625 L60.8125,126.5625 L62.84375,128.359375 L62.96875,128.453125 C63.671875,129.046875 64.390625,129.625 65.140625,130.1875 L65.140625,130.1875 L65.140625,130.1875 C68.38294,132.626527 71.870511,134.721164 75.546875,136.4375 L75.546875,136.4375 C76.4375,136.859375 77.34375,137.25 78.265625,137.625 L78.515625,137.71875 C79.34375,138.046875 80.1875,138.375 81.046875,138.65625 L81.484375,138.8125 C82.2864583,139.083333 83.0833333,139.333333 83.875,139.5625 L84.5,139.734375 L86.75,140.3125 L87.53125,140.484375 C88.234375,140.640625 88.96875,140.78125 89.6875,140.90625 L90.578125,141.078125 L92.703125,141.375 L93.65625,141.484375 C94.3854167,141.567708 95.1197917,141.630208 95.859375,141.671875 L96.75,141.671875 C97.765625,141.671875 98.78125,141.75 99.875,141.75 L100,141.75 C101.109375,141.75 102.1875,141.75 103.28125,141.65625 L104.265625,141.65625 C105.046875,141.65625 105.828125,141.53125 106.59375,141.4375 L107.640625,141.3125 L109.96875,140.953125 L110.84375,140.796875 C111.78125,140.609375 112.703125,140.40625 113.625,140.1875 L113.9375,140.1875 C117.206132,139.373587 120.395807,138.270273 123.46875,136.890625 L123.59375,136.890625 C124.59375,136.453125 125.578125,135.96875 126.546875,135.46875 L126.546875,135.46875 C127.9375,134.75 129.296875,133.90625 130.609375,133.140625 L130.84375,132.984375 C132.140625,132.15625 133.421875,131.28125 134.65625,130.359375 L134.65625,130.359375 C135.953125,129.375 137.21875,128.34375 138.4375,127.234375 L138.4375,127.234375 C139.625,126.171875 140.75,125.0625 141.84375,123.90625 L142.046875,123.6875 C143.125,122.53125 144.140625,121.34375 145.171875,120.109375 L145.328125,119.90625 C146.328125,118.640625 147.28125,117.328125 148.15625,115.984375 L148.15625,115.984375 L148.90625,114.8125 L148.90625,114.8125 C149.6875,113.5625 150.46875,112.28125 151.09375,110.96875 L151.09375,110.96875 C151.09375,110.8125 151.265625,110.640625 151.34375,110.46875 L151.34375,110.46875 C152.34315,108.505142 153.23,106.486253 154,104.421875 L199.1875,104.296875 Z" id="Shape"></path>
            <polygon id="Path" points="5.765625 79.5 5.53125 79.5 5.53125 90.4375 7.890625 90.4375 7.890625 92.75 0.9375 92.75 0.9375 90.453125 3.203125 90.453125 3.203125 77.671875 0.9375 77.671875 0.9375 75.375 8.296875 75.375 15.625 87.46875 15.859375 87.46875 15.859375 77.671875 13.5 77.671875 13.5 75.375 20.453125 75.375 20.453125 77.671875 18.203125 77.671875 18.203125 92.90625 13.890625 92.90625"></polygon>
            <path d="M41.265625,87.15625 L35.34375,87.15625 L34.25,90.375 L36.421875,90.375 L36.421875,92.75 L29.78125,92.75 L29.78125,90.453125 L31.671875,90.453125 L37.234375,75.359375 L41.546875,75.359375 L47.03125,90.453125 L49.09375,90.453125 L49.09375,92.75 L40.03125,92.75 L40.03125,90.453125 L42.359375,90.453125 L41.265625,87.15625 Z M36.0625,85.078125 L40.625,85.078125 L38.390625,78.6875 L38.296875,78.6875 L36.0625,85.078125 Z" id="Shape"></path>
            <path d="M65.625,90.375 L68.125,90.375 L68.125,92.75 L59.046875,92.75 L59.046875,90.453125 L61.40625,90.453125 L61.40625,77.671875 L59.046875,77.671875 L59.046875,75.375 L68.53125,75.375 C73.75,75.375 75.515625,77.59375 75.515625,79.765625 C75.515625,81.9375 74.21875,83.546875 70.15625,84.03125 L70.15625,84.203125 C73.46875,84.5 74.546875,85.96875 74.625,88.015625 L74.703125,89.046875 C74.703125,90.171875 74.984375,90.4375 75.515625,90.4375 C76.046875,90.4375 76.1875,90.0625 76.5625,88.875 L78.125,89.375 C77.625,91.4375 76.5625,93.015625 74.21875,93.015625 C71.515625,93.015625 70.296875,91.59375 70.296875,88.71875 L70.296875,87.8125 C70.296875,85.90625 69.8125,85.109375 67.875,85.109375 L65.625,85.109375 L65.625,90.375 Z M67.90625,83 C69.953125,83 70.859375,82.21875 70.859375,80.21875 C70.859375,78.21875 70.25,77.5625 67.984375,77.5625 L65.625,77.5625 L65.625,83 L67.90625,83 Z" id="Shape"></path>
            <polygon id="Path" points="104 77.640625 107 88.578125 107.203125 88.578125 110.328125 77.640625 108.09375 77.640625 108.09375 75.375 114.796875 75.375 114.796875 77.671875 112.796875 77.671875 108.109375 92.78125 103.96875 92.78125 101.140625 83.125 97.640625 92.75 93.546875 92.75 89.0625 77.671875 86.875 77.671875 86.875 75.375 95.78125 75.375 95.78125 77.640625 93.75 77.640625 96.875 88.578125 96.875 88.578125 100 79.828125 99.34375 77.59375 97.515625 77.59375 97.515625 75.375 106.25 75.375 106.25 77.640625"></polygon>
            <polygon id="Path" points="124.640625 90.375 127.015625 90.375 127.015625 77.671875 124.640625 77.671875 124.640625 75.375 133.625 75.375 133.625 77.671875 131.25 77.671875 131.25 82.609375 138 82.609375 138 77.671875 135.671875 77.671875 135.671875 75.375 144.6875 75.375 144.6875 77.671875 142.328125 77.671875 142.328125 90.375 144.6875 90.375 144.6875 92.75 135.671875 92.75 135.671875 90.453125 138.046875 90.453125 138.046875 84.8125 131.25 84.8125 131.25 90.375 133.578125 90.375 133.578125 92.75 124.640625 92.75"></polygon>
            <path d="M165.96875,87.15625 L160.0625,87.15625 L158.953125,90.375 L161.125,90.375 L161.125,92.75 L154.484375,92.75 L154.484375,90.453125 L156.375,90.453125 L161.953125,75.359375 L166.25,75.359375 L171.75,90.453125 L173.796875,90.453125 L173.796875,92.75 L164.734375,92.75 L164.734375,90.453125 L167.0625,90.453125 L165.96875,87.15625 Z M160.765625,85.078125 L165.28125,85.078125 L163.109375,78.6875 L163,78.6875 L160.765625,85.078125 Z" id="Shape"></path>
            <path d="M193,75.375 L193,77.609375 L190.390625,77.609375 L190.390625,90.4375 L193.34375,90.4375 C195.40625,90.4375 195.859375,89.90625 196.984375,85.515625 L199.0625,85.515625 L199.0625,92.75 L183.75,92.75 L183.75,90.453125 L186.109375,90.453125 L186.109375,77.671875 L183.75,77.671875 L183.75,75.375 L193,75.375 Z" id="Path"></path>
        </g>
    </g>
</svg>