<svg xmlns="http://www.w3.org/2000/svg" viewBox="0 0 343.12 343.12"><defs><style>.cls-1{fill:#508ab2;}</style></defs><title>Asset 2@2x</title><g id="Layer_2" data-name="Layer 2"><g id="Layer_1-2" data-name="Layer 1"><path class="cls-1" d="M335,153.24c-11.7-8.85-16.53-28.48-10.28-41.69,5-14.38-6-34.31-20.75-37.59-14.6-1.85-28.51-16.28-29.79-30.93-2.69-14.86-22.38-26.75-36.76-22.21-13.53,5.7-33,.07-41.25-11.91-9.89-11.53-32.7-11.94-42.94-.8-8.86,11.7-28.49,16.53-41.69,10.28-14.38-5-34.31,6-37.59,20.75C72.1,53.74,57.68,67.65,43,68.93,28.17,71.62,16.28,91.3,20.82,105.69c5.7,13.53.07,33-11.91,41.25-11.53,9.89-11.94,32.7-.8,42.94,11.7,8.85,16.53,28.49,10.28,41.69-5,14.38,6,34.31,20.75,37.59,14.6,1.85,28.51,16.28,29.79,30.93C71.62,315,91.3,326.84,105.69,322.3c13.53-5.7,33-.07,41.25,11.91,9.89,11.54,32.7,11.94,42.93.81,8.86-11.71,28.5-16.54,41.7-10.29,14.38,5,34.31-6,37.59-20.75,1.86-14.6,16.28-28.51,30.93-29.79,14.86-2.69,26.75-22.37,22.21-36.76-5.7-13.53-.07-33,11.91-41.25C345.74,186.29,346.15,163.48,335,153.24ZM207.47,277.41l-1.47.78c-1.87,1-4,2.27-6.17,3.57l-1.39.85-1.1.68c-.59.37-1.15.74-1.7,1.12L194,285.56a34,34,0,0,1-3.38,2.15,16.5,16.5,0,0,1-1.89.9,19.65,19.65,0,0,1-7.48,1.38h0a15.17,15.17,0,0,1-4.06-.5,11.62,11.62,0,0,1-2.43-.93,9.86,9.86,0,0,1-2-1.34,8.78,8.78,0,0,1-1.25-1.33,9.32,9.32,0,0,1-1.25,1.33,9.47,9.47,0,0,1-.89.69,11.19,11.19,0,0,1-3.85,1.68,14.46,14.46,0,0,1-1.73.3,17.72,17.72,0,0,1-2,.1,19.61,19.61,0,0,1-7.48-1.38,18.45,18.45,0,0,1-1.9-.9,33.89,33.89,0,0,1-3.37-2.15c-1.08-.76-2.16-1.54-3.33-2.27-1.55-1-3.14-1.93-4.68-2.84l-1.28-.75c-1.81-1-3.48-1.95-4.85-2.61-.65-.32-1.26-.59-1.75-.78,0,0,.77-5.18,7.06-8.34a20.46,20.46,0,0,1,4.48-1.6c3.92-.93,7.13-1.56,9.87-2.15.91-.19,1.77-.38,2.59-.57a30.78,30.78,0,0,0,8.37-3,4.69,4.69,0,0,0,2-3.38c.06-.35.12-.72.16-1.13a26.31,26.31,0,0,0,.13-2.85v0s.07-.64.07-2c0-.7,0-1.6-.07-2.71-.12-2.22-.38-5.29-1-9.33s-1.45-9.07-2.79-15.21q-1-4.61-2.37-10.07c-.36-1.42-.73-2.93-1.11-4.5-1.12-4.73-2.3-10-3.42-15.14q-.56-2.56-1.09-5c-.7-3.28-1.36-6.36-1.93-9-.28-1.33-.54-2.57-.78-3.67-.29-1.32-.55-2.64-.8-4-.47-2.49-.86-5-1.15-7.53-.17-1.49-.31-3-.4-4.49-.2-3.43-.25-6.83-.13-10.28s.41-6.94.88-10.56a20,20,0,0,1-3.79,1.93c-.58.33-1.11.6-1.59.82a8.18,8.18,0,0,1-2.51.75,5.58,5.58,0,0,1-1.08,0,3.6,3.6,0,0,1-2.88-1.9,3.83,3.83,0,0,1-.39-2.75c.55-2.49,2.61-3.9,6.21-5.61,3.28-1.55,6.77-3.28,6.77-3.28a10.91,10.91,0,0,1,.17-1.45c.09-.57.24-1.34.46-2.36,0-.22.1-.46.16-.7.43-1.9,1.09-4.48,2.13-8.1a34.25,34.25,0,0,1,8.12-14.7c.53-.54,1-1,1.51-1.41s.89-.75,1.29-1a14.57,14.57,0,0,1,1.36-.91,7,7,0,0,1,.91-.48l2-50.41.08-2c0-.1.08-.17.12-.26a.75.75,0,0,1,.15-.34.85.85,0,0,1,.61-.25.88.88,0,0,1,.88.85l.07,2,2,50.41a3,3,0,0,1,.43.21l.48.27a16,16,0,0,1,1.37.91c.26.19.55.41.85.66a25.4,25.4,0,0,1,4.07,4.24c.37.47.73,1,1.09,1.51a31.93,31.93,0,0,1,2.13,3.63,39.72,39.72,0,0,1,2.76,7.1c3,10.3,2.93,12.61,2.93,12.61s3.48,1.73,6.77,3.28c3.6,1.71,5.66,3.12,6.21,5.61a3.83,3.83,0,0,1-.39,2.75,3.6,3.6,0,0,1-2.88,1.9,8,8,0,0,1-4.56-1.25c-.3-.15-.57-.29-.91-.48-.12,0-.26-.12-.39-.18a19.49,19.49,0,0,1-3.12-1.64,108.41,108.41,0,0,1,.77,20.72c-.08,1.36-.19,2.71-.34,4-.29,2.7-.71,5.37-1.2,8-.26,1.33-.52,2.66-.81,4-.95,4.42-2.32,10.94-3.81,17.77s-3.09,14-4.53,19.67c-2.29,9.11-3.75,16.38-4.67,22.06-.37,2.27-.65,4.29-.87,6.07s-.36,3.33-.46,4.65q-.07,1-.12,1.83c0,1.11-.07,2-.07,2.71a18.76,18.76,0,0,0,.08,2.05l0,0a17.31,17.31,0,0,0,.52,4.94,5.26,5.26,0,0,0,.46,1,4,4,0,0,0,.49.7,3.89,3.89,0,0,0,.78.68c3.14,1.77,6.4,2.6,11,3.57l2.9.61c2.06.43,4.35.92,7,1.54,10.46,2.46,11.54,9.94,11.54,9.94C209.24,276.56,208.41,276.94,207.47,277.41Z"/></g></g></svg>