<svg id="Layer_1" data-name="Layer 1" xmlns="http://www.w3.org/2000/svg" viewBox="0 0 150 150"><defs><style>.cls-1{fill:#fff;}</style></defs><title>Narwhal Seal@2x</title><path class="cls-1" d="M43.71,69l-.41-.36.75-.85.2.18a1.17,1.17,0,0,1,.13,1.74,1.42,1.42,0,0,1-2.14-1.86,1.13,1.13,0,0,1,1.52-.28l-.48.55a.47.47,0,0,0-.57.15c-.26.3-.16.68.18,1s.75.34,1,0a.48.48,0,0,0,.08-.61Z"/><path class="cls-1" d="M47.84,66.17A1.34,1.34,0,0,1,45.9,66a1.34,1.34,0,1,1,1.94.16Zm-1.47-1.64c-.28.25-.25.64.07,1s.7.43,1,.18a.81.81,0,0,0-1.05-1.17Z"/><path class="cls-1" d="M51.78,63.05a1.41,1.41,0,1,1,.29-1.92A1.32,1.32,0,0,1,51.78,63.05Zm-1.26-1.8c-.3.21-.32.6-.05,1s.65.51,1,.3a.81.81,0,0,0-.9-1.29Z"/><path class="cls-1" d="M53.67,58.57l.91-.48a1.36,1.36,0,1,1,1.28,2.41L55,61ZM55.54,60a.75.75,0,0,0-.7-1.32l-.26.13.7,1.33Z"/><path class="cls-1" d="M63.21,56.5,63.06,56l1.09-.32.07.26a1.15,1.15,0,0,1-.82,1.53,1.41,1.41,0,0,1-.81-2.7,1.12,1.12,0,0,1,1.43.57l-.7.21a.45.45,0,0,0-.55-.18c-.38.11-.51.49-.38.93s.46.68.83.57a.5.5,0,0,0,.4-.48Z"/><path class="cls-1" d="M68.2,56.35a1.42,1.42,0,1,1,1.09-1.62A1.33,1.33,0,0,1,68.2,56.35Zm-.37-2.17c-.36.06-.55.41-.47.88s.37.73.73.67.56-.41.48-.88S68.2,54.12,67.83,54.18Z"/><path class="cls-1" d="M73.77,53l0,.61-1.25.06,0,.43,1.14-.06,0,.6-1.14.06,0,.48,1.26-.07,0,.62-2,.1-.14-2.73Z"/><path class="cls-1" d="M77.06,55a.4.4,0,0,0,.42.3c.22,0,.37-.07.38-.24s-.07-.19-.24-.24l-.52-.14a.77.77,0,0,1-.66-.8A1,1,0,0,1,77.55,53a1,1,0,0,1,1.07.91l-.7,0a.42.42,0,0,0-.4-.3c-.21,0-.35.07-.36.22s.07.2.21.24l.53.15a.8.8,0,0,1,.68.83c0,.56-.52.85-1.12.82a1.1,1.1,0,0,1-1.15-.93Z"/><path class="cls-1" d="M86.23,54.46l.32,2.92-.7-.19-.06-.56-1-.25-.32.47-.69-.18,1.7-2.39Zm-1,1.41.54.14-.08-.82Z"/><path class="cls-1" d="M89.8,57.54l-.33.84-.66-.25,1-2.55L91,56a.89.89,0,0,1,.58,1.23.81.81,0,0,1-.8.56L91,59l-.74-.29-.2-1ZM90,57l.42.16c.23.09.39,0,.46-.17a.32.32,0,0,0-.22-.44l-.42-.16Z"/><path class="cls-1" d="M94.2,60.59A1.42,1.42,0,1,1,96.05,60,1.32,1.32,0,0,1,94.2,60.59Zm1-1.94c-.32-.17-.68,0-.91.4s-.16.81.17,1,.69,0,.92-.39S95.57,58.83,95.24,58.65Z"/><path class="cls-1" d="M98.1,61.54,99,60.22l.59.41-.9,1.27c-.22.32-.19.59.06.76s.5.11.73-.2l.89-1.28.59.41-.94,1.33a1.19,1.19,0,0,1-2-1.38Z"/><path class="cls-1" d="M103.18,67l-.43-.38.22-2-1.07,1.19-.52-.46,1.84-2,.49.44-.22,1.83,1-1.12L105,65Z"/><path class="cls-1" d="M107,67.05l.68.78a1.37,1.37,0,1,1-2.07,1.8l-.68-.78Zm-.94,2.15a.75.75,0,0,0,1.13-1L107,68l-1.14,1Z"/><path class="cls-1" d="M44.22,123.15l-1.4,2.57-.47-.55.27-.5-.64-.75-.53.2-.46-.54,2.76-1Zm-1.65.55.36.43.41-.71Z"/><path class="cls-1" d="M46.25,125.34,48,127l-.42.45-.62-.58-1.45,1.55-.52-.49,1.45-1.55-.62-.58Z"/><path class="cls-1" d="M49.86,128.54l.57.43-1.26,1.69,1,.74-.37.49-1.56-1.16Z"/><path class="cls-1" d="M54.83,131.87l-.48,2.89-.63-.37.1-.55-.86-.5-.43.36-.61-.36,2.27-1.84Zm-1.38,1.07.48.28.15-.81Z"/><path class="cls-1" d="M59,136.91l-.53-.23L58,134.76l-.63,1.47-.64-.27,1.08-2.52.62.27.37,1.8.6-1.39.63.28Z"/><path class="cls-1" d="M62.31,135.21l2.31.68-.18.59-.81-.24-.6,2-.69-.2.6-2-.81-.24Z"/><path class="cls-1" d="M68.24,136.66l.55,2.87-.71-.12-.1-.56-1-.17-.28.49L66,139l1.5-2.51Zm-.92,1.48.55.09-.14-.8Z"/><path class="cls-1" d="M82.34,138.39l-.09-.53,1.12-.19,0,.27a1.15,1.15,0,0,1-1,1.42,1.41,1.41,0,0,1-.48-2.78,1.12,1.12,0,0,1,1.35.74l-.72.13a.45.45,0,0,0-.53-.25c-.39.06-.56.43-.48.88s.37.73.76.66a.49.49,0,0,0,.45-.42Z"/><path class="cls-1" d="M87.38,135.31l.17.59-1.2.35.12.41,1.1-.32.17.58-1.1.32.13.45,1.2-.35.18.59-1.88.55-.77-2.62Z"/><path class="cls-1" d="M91.93,136.58a1.33,1.33,0,0,1-1.78-.79,1.34,1.34,0,1,1,1.78.79Zm-.86-2c-.34.15-.44.53-.25,1s.52.63.86.49.45-.53.27-1S91.41,134.41,91.07,134.55Z"/><path class="cls-1" d="M95.75,133.65l.44.79-.61.35-1.36-2.37,1.07-.61a.88.88,0,0,1,1.32.31.82.82,0,0,1-.06,1l1,.53-.69.39-1-.5Zm-.29-.49.39-.22c.22-.13.26-.3.16-.47a.32.32,0,0,0-.49-.11l-.38.23Z"/><path class="cls-1" d="M100.36,130.63l-.31-.43.91-.67.16.22a1.16,1.16,0,0,1-.25,1.72,1.42,1.42,0,0,1-1.69-2.27,1.13,1.13,0,0,1,1.55.06l-.59.43a.47.47,0,0,0-.59,0c-.31.23-.3.63,0,1s.66.49,1,.26a.5.5,0,0,0,.21-.59Z"/><path class="cls-1" d="M104.42,128.47l-.53.49-1.84-2,.53-.49Z"/><path class="cls-1" d="M105.47,123.5l2.73,1.06-.48.54-.53-.21-.67.74.27.49-.47.53L105,124Zm.76,1.57.38-.42-.76-.3Z"/><path class="cls-1" d="M76,137.45a.81.81,0,0,0-1,.36.79.79,0,1,0-1.31.86A4.94,4.94,0,0,0,75,139.9a4.94,4.94,0,0,0,1.31-1.23A.81.81,0,0,0,76,137.45Z"/><path class="cls-1" d="M23.36,84.24a9.1,9.1,0,0,1,3.85-5.52,11.73,11.73,0,0,0,6.56-12.16,8.18,8.18,0,0,1,2.41-6.11,8.53,8.53,0,0,1,6.13-3h.14c.35,0,.71,0,1.07,0,4.49,0,9.3-3.37,10.71-7.42,1.25-2.72,4.75-4.72,8.33-4.72a7.44,7.44,0,0,1,3.84,1,10.9,10.9,0,0,0,6.59,2,11.23,11.23,0,0,0,7.27-2.46,7.59,7.59,0,0,1,4.42-1.28c3.37,0,6.66,1.71,8,4.13,1.57,3.76,6.21,6.71,10.58,6.71a9.43,9.43,0,0,0,1.64-.15,8.63,8.63,0,0,1,6.73,2.89A8.28,8.28,0,0,1,114.18,64c-.58,4.71,2.86,10.23,7.32,11.78a8.33,8.33,0,0,1,4.24,5.21,9.54,9.54,0,0,1,.44,3.3H127a10.44,10.44,0,0,0-.48-3.54,9.24,9.24,0,0,0-4.72-5.8A11,11,0,0,1,115,64a9.13,9.13,0,0,0-2.81-6.42,9.8,9.8,0,0,0-6.76-3.16,5.76,5.76,0,0,0-.69,0,8.34,8.34,0,0,1-1.52.14c-4.06,0-8.36-2.72-9.83-6.24-1.5-2.75-5-4.59-8.73-4.59a8.37,8.37,0,0,0-4.93,1.45A10.43,10.43,0,0,1,73,47.48a10.06,10.06,0,0,1-6.12-1.89,8.33,8.33,0,0,0-4.31-1.12c-3.89,0-7.71,2.18-9.1,5.22-1.32,3.78-5.78,6.85-9.94,6.85a9,9,0,0,1-1-.06,9.46,9.46,0,0,0-6.95,3.34,9.18,9.18,0,0,0-2.62,6.92c.82,4.27-2.07,9.67-6.1,11.35a9.18,9.18,0,0,0-4.3,6.09c0,.06,0,.06,0,.06Z"/><path class="cls-1" d="M126.64,108.76a9.1,9.1,0,0,1-3.85,5.52,11.73,11.73,0,0,0-6.56,12.16,8.18,8.18,0,0,1-2.41,6.11,8.53,8.53,0,0,1-6.13,2.95h-.14c-.35,0-.71,0-1.07,0-4.49,0-9.3,3.37-10.71,7.42-1.25,2.72-4.75,4.72-8.33,4.72a7.44,7.44,0,0,1-3.84-1,10.9,10.9,0,0,0-6.59-2,11.23,11.23,0,0,0-7.27,2.46,7.59,7.59,0,0,1-4.42,1.28c-3.37,0-6.66-1.71-8-4.13-1.57-3.76-6.21-6.71-10.58-6.71a9.43,9.43,0,0,0-1.64.15,8.63,8.63,0,0,1-6.73-2.89,8.28,8.28,0,0,1-2.57-5.79c.58-4.71-2.86-10.23-7.32-11.78a8.33,8.33,0,0,1-4.24-5.21,9.54,9.54,0,0,1-.44-3.3H23a10.44,10.44,0,0,0,.48,3.54,9.24,9.24,0,0,0,4.72,5.8A11,11,0,0,1,35,129a9.13,9.13,0,0,0,2.81,6.42,9.8,9.8,0,0,0,6.76,3.16,5.76,5.76,0,0,0,.69,0,8.34,8.34,0,0,1,1.52-.14c4.06,0,8.36,2.72,9.83,6.24,1.5,2.75,5,4.59,8.73,4.59a8.37,8.37,0,0,0,4.93-1.45A10.43,10.43,0,0,1,77,145.52a10.06,10.06,0,0,1,6.12,1.89,8.33,8.33,0,0,0,4.31,1.12c3.89,0,7.71-2.18,9.1-5.22,1.32-3.78,5.78-6.85,9.94-6.85a9,9,0,0,1,1,.06,9.39,9.39,0,0,0,7-3.34,9.18,9.18,0,0,0,2.62-6.92c-.82-4.27,2.07-9.67,6.1-11.35a9.18,9.18,0,0,0,4.3-6.09c0-.06,0-.06,0-.06Z"/><path class="cls-1" d="M125.29,108.76c-.31,0-.64.51-1,.75A11.74,11.74,0,0,0,119,122.26a8.4,8.4,0,0,1-1.89,6.54,8.52,8.52,0,0,1-5.84,3.52H111a11.83,11.83,0,0,0-10.81,8.43c-1.06,3.11-4.88,5.54-8.7,5.54a7.15,7.15,0,0,1-3-.64A10.43,10.43,0,0,0,83,144.2a11.47,11.47,0,0,0-8.25,3.22,8,8,0,0,1-5.27,1.74c-3.07,0-6-1.33-7.35-3.36-1.77-3.3-6.06-5.7-10.19-5.7a9.43,9.43,0,0,0-2.62.36,5.76,5.76,0,0,1-1.18.12c-4.24,0-8.66-3.91-8.93-7.85a11.88,11.88,0,0,0-8.43-11A8.5,8.5,0,0,1,26,116.84a8.35,8.35,0,0,1-.16-6.74,6.84,6.84,0,0,0,.72-1.34h-.92c-.15,0-.32.6-.53.94a10.07,10.07,0,0,0,5.4,12.85,11,11,0,0,1,7.83,10.22c.29,4.37,5.13,8.65,9.76,8.65a7.26,7.26,0,0,0,1.38-.14,8.58,8.58,0,0,1,2.42-.34c3.84,0,7.82,2.21,9.47,5.29C63,148.52,66.12,150,69.46,150h0a8.78,8.78,0,0,0,5.84-2A10.85,10.85,0,0,1,83,145a9.67,9.67,0,0,1,5.1,1.34,7.89,7.89,0,0,0,3.44.74c4.15,0,8.32-2.68,9.5-6.14a11.12,11.12,0,0,1,10-7.83h.22A10.15,10.15,0,0,0,119.77,122c-1.23-4.17,1.12-9.71,5-11.78a8.45,8.45,0,0,0,1.64-1.46Z"/><path class="cls-1" d="M24.71,84.24c.31,0,.64-.51,1-.75A11.74,11.74,0,0,0,31,70.74a8.4,8.4,0,0,1,1.89-6.54,8.52,8.52,0,0,1,5.84-3.52H39a11.83,11.83,0,0,0,10.81-8.43c1.06-3.11,4.88-5.54,8.7-5.54a7.15,7.15,0,0,1,3,.64A10.46,10.46,0,0,0,67,48.8a11.47,11.47,0,0,0,8.25-3.22,8,8,0,0,1,5.27-1.74c3.07,0,6,1.33,7.35,3.36,1.77,3.3,6.06,5.7,10.19,5.7a9.43,9.43,0,0,0,2.62-.36,5.76,5.76,0,0,1,1.18-.12c4.24,0,8.66,3.91,8.93,7.85a11.88,11.88,0,0,0,8.43,11A8.5,8.5,0,0,1,124,76.16a8.35,8.35,0,0,1,.16,6.74c-.28.46-.52,1.34-.72,1.34h.92c.15,0,.32-.6.53-.94a10.07,10.07,0,0,0-5.4-12.85,11,11,0,0,1-7.83-10.22c-.29-4.37-5.13-8.65-9.76-8.65a7.26,7.26,0,0,0-1.38.14,8.58,8.58,0,0,1-2.42.34c-3.84,0-7.82-2.21-9.47-5.29C87.05,44.48,83.88,43,80.54,43a8.78,8.78,0,0,0-5.84,2A10.85,10.85,0,0,1,67,48a9.67,9.67,0,0,1-5.1-1.34,7.89,7.89,0,0,0-3.44-.74c-4.15,0-8.32,2.68-9.5,6.14a11.12,11.12,0,0,1-10,7.83h-.22a9.39,9.39,0,0,0-6.49,3.86,9.34,9.34,0,0,0-2,7.28c1.23,4.17-1.12,9.71-5,11.78a8.45,8.45,0,0,0-1.64,1.46Z"/><path class="cls-1" d="M41.26,83.63A35.08,35.08,0,0,1,44.58,77L66.3,64.5l.24.37L42.09,83.63Zm2.2,0L67.05,65.54l.3.33L49.58,83.63Zm7.31,0L67.94,66.46l.33.3L55.32,83.63Zm5.61,0L68.93,67.27l.38.24L60,83.63Zm4.59,0L70,67.93l.4.21L64,83.63Zm4,0L71.2,68.46l.43.14-4,15Zm3.54,0,4-14.82.43.1L70.93,83.63Zm3.32,0L73.7,69l.45,0V83.63Zm3.21,0V69l.44,0,1.93,14.61Zm3.21,0L76.26,68.91l.44-.1,4,14.82Zm3.34,0-4-15,.42-.14,6.29,15.17Zm3.58,0L78.7,68.13l.4-.2,9.07,15.7Zm4,0-9.3-16.12.37-.24L92.76,83.63Zm4.68,0-13-16.88c.11-.09.23-.19.33-.29L98.37,83.63Zm5.74,0L81.79,65.87c.1-.11.2-.22.29-.34l23.59,18.1Zm7.5,0L82.59,64.87l.25-.37,23.09,13.33h0c.37.61.71,1.24,1,1.87.09.16.17.33.25.5.27.52.52,1,.76,1.59l.2.42c.2.47.38,1,.56,1.42ZM105,76.3,83.25,63.77c.07-.13.14-.26.2-.4l16.14,6.69h0c.47.44.92.89,1.37,1.35l.18.2c.38.39.75.8,1.11,1.22.1.1.19.21.29.32q.5.59,1,1.2l.29.36c.39.51.77,1,1.13,1.57h0m-7.36-8L83.77,62.6a9.48,9.48,0,0,0,.33-1.07,37.78,37.78,0,0,1,3.65,1.16l.06,0c.57.22,1.13.44,1.68.69l.13.05q.8.36,1.56.75l.17.08c.5.26,1,.52,1.48.8l.17.1c.49.28,1,.57,1.45.88l.14.09c.49.32,1,.64,1.44,1l.09.07c.49.35,1,.72,1.45,1.1h0m-14.23-7A9.5,9.5,0,0,1,83,62.56l-.18.43c-.08.18-.17.36-.26.53l-.18.3a9,9,0,0,1-.61.91l-.18.23c-.11.14-.23.27-.35.4s-.34.35-.52.52-.32.29-.5.43l-.4.31-.39.26c-.19.12-.39.24-.6.35l-.39.2h0a7.35,7.35,0,0,1-.77.32h0l-.43.14c-.19.06-.39.11-.58.15l-.47.11h0a7.53,7.53,0,0,1-.83.11h0l-.34,0h0l-.42,0-.42,0H73.8a7.86,7.86,0,0,1-.83-.11h0l-.45-.1-.58-.16-.44-.14h0a6.56,6.56,0,0,1-.77-.32h0l-.39-.2c-.2-.11-.39-.22-.58-.35l-.36-.23-.52-.4-.44-.38c-.17-.16-.33-.32-.48-.49s-.23-.23-.33-.36a1.71,1.71,0,0,1-.11-.14,9.15,9.15,0,0,1-.67-1c-.07-.11-.13-.22-.19-.33s-.19-.35-.27-.52-.22-.5-.32-.76h0c-.09-.25-.16-.5-.23-.76.72-.19,1.44-.35,2.18-.5l.18,0c.62-.12,1.25-.22,1.89-.31l.55-.07c.53-.07,1.07-.12,1.61-.16l.6,0c.72,0,1.44-.07,2.16-.07s1.36,0,2,.07l.49,0c.53,0,1,.08,1.57.14l.33,0h.08c.57.07,1.13.15,1.69.25h0l.2,0c.63.12,1.25.25,1.87.39h0m-17.68,2c.06.13.13.26.2.39L45.66,75.45a36.14,36.14,0,0,1,5.47-6h0Zm-.32-.78-12,5h0l.35-.24c.16-.13.33-.24.5-.36l.52-.37.64-.42.76-.49.76-.44.69-.4.87-.46.43-.22.17-.09,1-.45.55-.25,1-.43.51-.2q.54-.21,1.08-.39l.5-.17,1.13-.36.08,0,.16,0a8.21,8.21,0,0,0,.27.84M11.6,84.47H138.4v-.84H109.64l-.23-.63h0l-.15-.37h0a37.82,37.82,0,0,0-1.89-4h0l0,0c-.29-.53-.6-1-.92-1.56h0l0-.06c-.31-.5-.64-1-1-1.48l0,0c-.34-.5-.7-1-1.07-1.48h0l-.13-.17h0q-.51-.66-1.05-1.29l-.1-.12h0c-.37-.42-.74-.84-1.12-1.25h0l-.09-.1h0c-.4-.42-.82-.84-1.24-1.24h0l0,0a37.43,37.43,0,0,0-5.79-4.53h0l-1.23-.74-.06,0a37.06,37.06,0,0,0-6.66-3l-.11,0L85.33,61l-.09,0a36.9,36.9,0,0,0-35,8.08.69.69,0,0,1-.13.11,37.18,37.18,0,0,0-9.77,14.46H11.6Zm29.65,24.9h67.5c-.4,1.06-.86,2.11-1.36,3.12h0l-.09-.07a2.54,2.54,0,0,0-3.35,0,1.76,1.76,0,0,1-2.19,0,2.54,2.54,0,0,0-3.35,0,1.76,1.76,0,0,1-2.19,0,2.54,2.54,0,0,0-3.35,0,1.74,1.74,0,0,1-2.18,0,2.54,2.54,0,0,0-3.35,0,1.76,1.76,0,0,1-2.19,0,2.54,2.54,0,0,0-3.35,0,1.74,1.74,0,0,1-2.18,0,2.54,2.54,0,0,0-3.35,0,1.76,1.76,0,0,1-2.19,0,2.54,2.54,0,0,0-3.35,0,1.74,1.74,0,0,1-2.18,0,2.54,2.54,0,0,0-3.35,0,1.76,1.76,0,0,1-2.19,0,2.54,2.54,0,0,0-3.35,0,1.74,1.74,0,0,1-2.18,0,2.56,2.56,0,0,0-3.36,0,1.74,1.74,0,0,1-2.18,0,2.54,2.54,0,0,0-3.35,0,1.76,1.76,0,0,1-2.19,0,2.54,2.54,0,0,0-3.35,0,1.31,1.31,0,0,1-.36.23h0a34.29,34.29,0,0,1-1.44-3.28m1.82,4a2.15,2.15,0,0,0,.57-.37,1.72,1.72,0,0,1,2.18,0,2.56,2.56,0,0,0,3.35,0,1.73,1.73,0,0,1,2.19,0,2.56,2.56,0,0,0,3.35,0,1.72,1.72,0,0,1,2.18,0,2.56,2.56,0,0,0,3.35,0,1.73,1.73,0,0,1,2.19,0,2.56,2.56,0,0,0,3.35,0A1.72,1.72,0,0,1,68,113a2.56,2.56,0,0,0,3.35,0,1.73,1.73,0,0,1,2.19,0,2.56,2.56,0,0,0,3.35,0A1.72,1.72,0,0,1,79,113a2.48,2.48,0,0,0,1.68.62,2.43,2.43,0,0,0,1.67-.62,1.73,1.73,0,0,1,2.19,0,2.56,2.56,0,0,0,3.35,0,1.73,1.73,0,0,1,2.19,0,2.56,2.56,0,0,0,3.35,0,1.72,1.72,0,0,1,2.18,0A2.56,2.56,0,0,0,99,113a1.73,1.73,0,0,1,2.19,0,2.56,2.56,0,0,0,3.35,0,1.72,1.72,0,0,1,2.18,0,3.15,3.15,0,0,0,.29.22h0c-.23.44-.48.88-.73,1.32a.21.21,0,0,1,0,.06c-.25.44-.52.87-.79,1.29h0a2.38,2.38,0,0,0-1.49.61,1.73,1.73,0,0,1-2.19,0,2.56,2.56,0,0,0-3.35,0,1.73,1.73,0,0,1-2.19,0,2.56,2.56,0,0,0-3.35,0,1.72,1.72,0,0,1-2.18,0,2.56,2.56,0,0,0-3.35,0,1.73,1.73,0,0,1-2.19,0,2.56,2.56,0,0,0-3.35,0,1.72,1.72,0,0,1-2.18,0,2.56,2.56,0,0,0-3.35,0,1.73,1.73,0,0,1-2.19,0,2.56,2.56,0,0,0-3.35,0,1.72,1.72,0,0,1-2.18,0,2.56,2.56,0,0,0-3.35,0,1.73,1.73,0,0,1-2.19,0,2.56,2.56,0,0,0-3.35,0,1.72,1.72,0,0,1-2.18,0,2.58,2.58,0,0,0-3.36,0,1.72,1.72,0,0,1-2.18,0,2.56,2.56,0,0,0-3.35,0,1.73,1.73,0,0,1-2.19,0,2.45,2.45,0,0,0-1.83-.61h0c-.25-.4-.5-.81-.74-1.22l-.07-.11c-.23-.4-.46-.8-.67-1.2h0m2.07,3.42a1.4,1.4,0,0,1,.68.33,2.54,2.54,0,0,0,3.35,0,1.76,1.76,0,0,1,2.19,0,2.54,2.54,0,0,0,3.35,0,1.74,1.74,0,0,1,2.18,0,2.54,2.54,0,0,0,3.35,0,1.76,1.76,0,0,1,2.19,0,2.54,2.54,0,0,0,3.35,0,1.74,1.74,0,0,1,2.18,0,2.54,2.54,0,0,0,3.35,0,1.76,1.76,0,0,1,2.19,0,2.54,2.54,0,0,0,3.35,0,1.74,1.74,0,0,1,2.18,0,2.44,2.44,0,0,0,1.68.63,2.39,2.39,0,0,0,1.67-.63,1.76,1.76,0,0,1,2.19,0,2.54,2.54,0,0,0,3.35,0,1.76,1.76,0,0,1,2.19,0,2.54,2.54,0,0,0,3.35,0,1.74,1.74,0,0,1,2.18,0,2.54,2.54,0,0,0,3.35,0,1.76,1.76,0,0,1,2.19,0,2.54,2.54,0,0,0,3.35,0l.2-.14h0q-.61.89-1.29,1.74l-.21.27c-.45.57-.92,1.13-1.41,1.67h0l0,0a2.54,2.54,0,0,0-3.35,0,1.73,1.73,0,0,1-2.19,0,2.54,2.54,0,0,0-3.35,0,1.72,1.72,0,0,1-2.18,0,2.54,2.54,0,0,0-3.35,0,1.73,1.73,0,0,1-2.19,0,2.55,2.55,0,0,0-3.35,0,1.72,1.72,0,0,1-2.18,0,2.55,2.55,0,0,0-3.35,0,1.73,1.73,0,0,1-2.19,0,2.55,2.55,0,0,0-3.35,0,1.72,1.72,0,0,1-2.18,0,2.55,2.55,0,0,0-3.35,0,1.73,1.73,0,0,1-2.19,0,2.55,2.55,0,0,0-3.35,0,1.72,1.72,0,0,1-2.18,0,2.58,2.58,0,0,0-3.36,0,1.72,1.72,0,0,1-2.18,0,2.54,2.54,0,0,0-3.35,0,1.14,1.14,0,0,1-.25.18h0c-.54-.59-1.05-1.2-1.55-1.82l-.26-.32c-.48-.62-1-1.25-1.39-1.9h0m3.79,4.66a2.31,2.31,0,0,0,.24-.2,1.73,1.73,0,0,1,2.19,0,2.54,2.54,0,0,0,3.35,0,1.72,1.72,0,0,1,2.18,0,2.54,2.54,0,0,0,3.35,0,1.73,1.73,0,0,1,2.19,0,2.54,2.54,0,0,0,3.35,0,1.73,1.73,0,0,1,2.18,0,2.54,2.54,0,0,0,3.35,0,1.75,1.75,0,0,1,2.19,0,2.54,2.54,0,0,0,3.35,0,1.72,1.72,0,0,1,2.18,0,2.44,2.44,0,0,0,1.68.63,2.39,2.39,0,0,0,1.67-.63,1.75,1.75,0,0,1,2.19,0,2.54,2.54,0,0,0,3.35,0,1.73,1.73,0,0,1,2.19,0,2.54,2.54,0,0,0,3.35,0,1.73,1.73,0,0,1,2.18,0,2.54,2.54,0,0,0,3.35,0,1.73,1.73,0,0,1,2.19,0s0,0,0,0h0A36,36,0,0,1,97,125.16h0a1.45,1.45,0,0,1-.75-.35,2.54,2.54,0,0,0-3.35,0,1.74,1.74,0,0,1-2.18,0,2.54,2.54,0,0,0-3.35,0,1.76,1.76,0,0,1-2.19,0,2.54,2.54,0,0,0-3.35,0,1.74,1.74,0,0,1-2.18,0,2.54,2.54,0,0,0-3.35,0,1.76,1.76,0,0,1-2.19,0,2.54,2.54,0,0,0-3.35,0,1.74,1.74,0,0,1-2.18,0,2.54,2.54,0,0,0-3.35,0,1.76,1.76,0,0,1-2.19,0,2.54,2.54,0,0,0-3.35,0,1.74,1.74,0,0,1-2.18,0,2.55,2.55,0,0,0-3.36,0,1.55,1.55,0,0,1-1,.38h0a35.59,35.59,0,0,1-4.14-3.71h0m5,4.37a2.09,2.09,0,0,0,.75-.44,1.72,1.72,0,0,1,2.18,0,2.56,2.56,0,0,0,3.35,0,1.73,1.73,0,0,1,2.19,0,2.56,2.56,0,0,0,3.35,0,1.72,1.72,0,0,1,2.18,0,2.56,2.56,0,0,0,3.35,0,1.73,1.73,0,0,1,2.19,0,2.56,2.56,0,0,0,3.35,0,1.72,1.72,0,0,1,2.18,0,2.44,2.44,0,0,0,1.68.63,2.39,2.39,0,0,0,1.67-.63,1.73,1.73,0,0,1,2.19,0,2.56,2.56,0,0,0,3.35,0,1.73,1.73,0,0,1,2.19,0,2.56,2.56,0,0,0,3.35,0,1.72,1.72,0,0,1,2.18,0,1.75,1.75,0,0,0,.53.35h0A35.38,35.38,0,0,1,90.86,129l-.08,0-.09-.06a2.54,2.54,0,0,0-3.35,0,1.76,1.76,0,0,1-2.19,0,2.54,2.54,0,0,0-3.35,0,1.74,1.74,0,0,1-2.18,0,2.54,2.54,0,0,0-3.35,0,1.76,1.76,0,0,1-2.19,0,2.54,2.54,0,0,0-3.35,0,1.74,1.74,0,0,1-2.18,0,2.54,2.54,0,0,0-3.35,0,1.76,1.76,0,0,1-2.19,0,2.54,2.54,0,0,0-3.35,0,1.37,1.37,0,0,1-.23.17h0l-1-.53-.44-.22c-.4-.21-.79-.44-1.18-.67l-.2-.11c-.44-.26-.87-.53-1.3-.81l0,0c-.44-.29-.87-.59-1.3-.9m6.33,3.65a1.73,1.73,0,0,1,2.14,0,2.56,2.56,0,0,0,3.35,0,1.72,1.72,0,0,1,2.18,0,2.56,2.56,0,0,0,3.35,0,1.73,1.73,0,0,1,2.19,0,2.56,2.56,0,0,0,3.35,0,1.72,1.72,0,0,1,2.18,0,2.48,2.48,0,0,0,1.68.62,2.43,2.43,0,0,0,1.67-.62,1.73,1.73,0,0,1,2.19,0,2.56,2.56,0,0,0,3.35,0,1.75,1.75,0,0,1,2-.14h0c-.56.25-1.12.49-1.69.72l-.07,0c-.55.22-1.1.42-1.66.61l-.14.05c-.53.17-1.07.34-1.61.49l-.23.06c-.51.14-1,.27-1.54.39l-.33.07c-.48.11-1,.2-1.46.28l-.44.08c-.46.08-.92.14-1.39.19l-.51.07c-.47,0-.93.08-1.4.11l-.52,0c-.62,0-1.24,0-1.87,0h-.13c-.62,0-1.23,0-1.84,0l-.48,0c-.48,0-1-.07-1.42-.12l-.45-.05c-.48-.06-1-.12-1.44-.2l-.35-.06c-.51-.09-1-.18-1.52-.29l-.24-.06c-.54-.11-1.08-.24-1.61-.39l-.14,0c-.56-.15-1.12-.32-1.67-.5l-.06,0c-.57-.19-1.14-.39-1.7-.61h0c-.57-.22-1.14-.45-1.69-.7h0m78.11-20.13v-.84H11.6v.84H40.35c.44,1.17.93,2.31,1.48,3.43h0c.13.28.28.55.42.83h0a37.1,37.1,0,0,0,3.63,5.61,2.09,2.09,0,0,0,.14.17c.44.56.9,1.11,1.37,1.64h0c.41.45.82.89,1.24,1.32h0c.42.43.85.84,1.29,1.25l0,0,1.3,1.15.08.06c.45.38.91.75,1.39,1.11l0,0h0a37.39,37.39,0,0,0,6.66,4h0c.57.27,1.15.52,1.74.76l.16.06c.53.21,1.07.42,1.62.6l.28.1q.77.26,1.53.48l.4.11,1.44.37.5.11c.45.1.92.19,1.38.27l.57.11,1.36.19.61.07q.7.08,1.41.12l.57,0c.65,0,1.3.05,2,.05H75c.71,0,1.4,0,2.1-.06l.63,0c.5,0,1-.08,1.49-.14l.67-.08,1.49-.23.56-.1c.6-.12,1.19-.25,1.78-.39l.2,0a36.32,36.32,0,0,0,6.1-2.11l.08,0c.64-.28,1.27-.59,1.89-.91h0c.89-.46,1.76-1,2.6-1.49l.15-.1c.83-.53,1.65-1.09,2.44-1.68h0c.83-.63,1.64-1.29,2.42-2l0,0c.76-.68,1.48-1.39,2.18-2.13l.13-.14c.69-.74,1.34-1.5,2-2.29l.1-.13c.64-.81,1.25-1.65,1.81-2.51h0l.48-.75h0c.5-.8,1-1.62,1.4-2.46h0c0-.1.11-.21.16-.32h0a37.17,37.17,0,0,0,1.7-3.87Z"/><path class="cls-1" d="M14.69,93.52h-.15v7h1.51V102H11.6v-1.47h1.45V92.35H11.6V90.88h4.71L21,98.62h.15V92.35H19.64V90.88h4.45v1.47H22.65v9.75H19.89Z"/><path class="cls-1" d="M37.41,98.42H33.62l-.7,2.06h1.39V102H30.06v-1.47h1.21l3.56-9.66h2.76l3.51,9.66h1.32V102h-5.8v-1.47h1.49Zm-3.33-1.33H37L35.57,93h-.06Z"/><path class="cls-1" d="M53,100.48H54.6V102H48.79v-1.47H50.3V92.35H48.79V90.88h6.07c3.34,0,4.47,1.42,4.47,2.81s-.83,2.42-3.43,2.73v.11c2.12.19,2.81,1.13,2.86,2.44l.05.66c0,.72.18.89.52.89s.43-.24.67-1l1,.32c-.32,1.32-1,2.33-2.5,2.33-1.73,0-2.51-.91-2.51-2.75v-.58c0-1.22-.31-1.73-1.55-1.73H53Zm1.46-4.72c1.31,0,1.89-.5,1.89-1.78s-.39-1.7-1.84-1.7H53v3.48Z"/><path class="cls-1" d="M77.56,92.33l1.92,7h.13l2-7H80.18V90.88h4.29v1.47H83.19l-3,9.67H77.54l-1.81-6.18L73.49,102H70.87L68,92.35h-1.4V90.88H72.3v1.45H71l2,7H73l2-5.6-.42-1.43H73.41V90.88H79v1.45Z"/><path class="cls-1" d="M90.77,100.48h1.52V92.35H90.77V90.88h5.75v1.47H95v3.16h4.32V92.35H97.83V90.88h5.77v1.47h-1.51v8.13h1.51V102H97.83v-1.47h1.52V96.92H95v3.56h1.49V102H90.77Z"/><path class="cls-1" d="M117.22,98.42h-3.78l-.71,2.06h1.39V102h-4.25v-1.47h1.21l3.57-9.66h2.75l3.52,9.66h1.31V102h-5.8v-1.47h1.49Zm-3.33-1.33h2.89L115.39,93h-.07Z"/><path class="cls-1" d="M134.52,90.88v1.43h-1.67v8.21h1.89c1.32,0,1.61-.34,2.33-3.15h1.33V102h-9.8v-1.47h1.51V92.35H128.6V90.88Z"/></svg>