<?xml version="1.0" encoding="UTF-8"?>
<svg width="1200px" height="850px" viewBox="0 0 1200 850" version="1.1" xmlns="http://www.w3.org/2000/svg" xmlns:xlink="http://www.w3.org/1999/xlink">
    <!-- Generator: Sketch 60.1 (88133) - https://sketch.com -->
    <title>vectorstock_21155352</title>
    <desc>Created with Sketch.</desc>
    <defs>
        <polygon id="path-1" points="0 0.04 1200 0.04 1200 850 0 850"></polygon>
    </defs>
    <g id="vectorstock_21155352" stroke="none" stroke-width="1" fill="none" fill-rule="evenodd">
        <g id="Group-9">
            <mask id="mask-2" fill="white">
                <use xlink:href="#path-1"></use>
            </mask>
            <g id="Clip-2"></g>
            <path d="M825,507 C756.713,624.428 688.834,737.374 620.842,850 L876.688,850 C909.418,749.341 944.34,649.038 980,548 C1044.96,362.256 1125.8,185.709 1183.51,0 L1128.13,0 C1021.39,164.648 926.207,331.513 825,507 Z" id="Fill-1" fill="#CFEBF3" opacity="0.4" mask="url(#mask-2)"></path>
            <path d="M298,283 C192.951,350.183 95.369,417 0,486.171 L0,850 L620.842,850 C688.834,737.374 756.713,624.428 825,507 C926.207,331.513 1021.39,164.648 1128.13,0 L771.234,0 C609.823,82.072 458.825,179.444 298,283 Z" id="Fill-4" fill-opacity="0" fill="#EEF8FA" mask="url(#mask-2)"></path>
            <path d="M453,76 C299.735,139.984 149.915,208.641 0,276.116 L0,486.171 C95.369,417 192.951,350.183 298,283 C458.825,179.444 609.823,82.072 771.234,0 L642.338,0 C579.481,25.486 516.051,49.78 453,76 Z" id="Fill-6" fill="#CFEBF3" opacity="0.4" mask="url(#mask-2)"></path>
            <path d="M355.282,120.425 C428.215,96.585 500.502,70.853 572.555,44.485 C608.503,31.329 644.383,17.986 680.245,4.597 C684.288,3.087 688.319,1.551 692.345,0 L686.908,0 C660.197,10.117 633.27,19.704 606.455,29.503 C570.446,42.661 534.384,55.671 498.221,68.398 C425.902,93.849 353.23,118.331 279.9,140.719 C208.535,162.507 136.667,181.581 62.306,189.682 C41.536,191.944 20.785,193.12 0,193.659 L0,197.706 C46.301,196.057 92.415,190.773 137.999,181.801 C211.833,167.268 283.854,143.775 355.282,120.425" id="Fill-7" fill="#FFFFFE" mask="url(#mask-2)"></path>
            <path d="M1019.12,533.597 C1021.59,525.379 1022.85,515.274 1016.53,508.471 C1014.46,506.24 1009.66,506.203 1006.91,506.236 C1001.88,506.298 996.819,507.722 992.061,509.234 C982.522,512.267 973.36,516.74 964.907,522.066 C951.529,530.496 938.396,539.319 925.572,548.57 C913.13,557.546 901.89,568.142 890.309,578.19 C881.226,586.072 872.404,594.226 862.434,600.985 C858.778,603.463 853.338,606.937 848.833,604.801 C844.751,602.867 845.835,595.546 846.304,592.06 C847.393,583.962 850.253,576.213 852.835,568.506 C855.226,561.368 856.449,553.731 858.754,546.52 C861.229,538.773 864.16,531.177 867.273,523.667 C879.657,493.783 894.854,464.766 909.598,435.993 C924.624,406.666 940.355,377.704 956.442,348.946 C972.387,320.441 988.201,291.688 1005.36,263.896 C1022.19,236.648 1039.41,209.649 1056.6,182.63 C1090.96,128.611 1125.36,74.512 1155.69,18.091 C1158.92,12.086 1162.1,6.053 1165.24,0 L1164.12,0 C1136.8,50.96 1106.1,100.111 1075.02,148.828 C1057.77,175.868 1040.33,202.78 1023.11,229.838 C1005.72,257.166 989.218,284.929 973.092,313.019 C940.316,370.108 908.672,427.898 880.338,487.339 C873.925,500.793 867.257,514.059 861.646,527.884 C858.814,534.859 856.29,541.955 854.029,549.135 C851.966,555.686 850.879,562.613 848.619,569.07 C845.75,577.27 833.573,608.085 850.482,609.424 C858.946,610.094 866.157,603.272 872.559,598.711 C883.848,590.666 894.028,580.457 904.521,571.365 C917.05,560.507 929.761,550.493 943.471,541.151 C954.353,533.735 965.326,525.951 977.11,520.019 C986.473,515.306 997.314,510.628 1007.96,510.508 C1021.14,510.359 1016.09,528.466 1013.49,536.025 C1011.98,540.416 1009.99,544.577 1007.95,548.729 C1004.78,555.158 1002.49,562.068 999.668,568.663 C993.354,583.402 986.23,597.785 978.867,612.024 C948.271,671.187 916.404,729.73 885.231,788.593 C874.389,809.066 863.55,829.542 852.678,850 L858.905,850 C894.667,783.11 929.837,715.897 965.444,648.935 C980.338,620.926 995.199,592.873 1007.14,563.445 C1011.14,553.579 1016.05,543.81 1019.12,533.597 Z" id="Fill-8" fill="#FFFFFE" mask="url(#mask-2)"></path>
        </g>
        <path d="M622.5,305.75 C622.5,297.88 615.561,291.5 607,291.5 C598.439,291.5 591.5,297.88 591.5,305.75 C591.5,313.62 598.439,320 607,320 C615.561,320 622.5,313.62 622.5,305.75" id="Fill-10" fill="#15182A"></path>
        <path d="M550.004,410.666 C550.621,406.057 449.656,336 459.666,326.167 C458.081,326.377 446.846,333.568 446.247,333.988 C417.305,353.951 385.383,368.917 354.449,383.883 C354.18,384.018 353.91,384.166 353.641,384.301 L354.449,385.873 C345.725,393.355 336.79,400.539 327.705,407.544 C307.711,422.913 286.91,437.324 265.658,451.722 C232.734,473.676 202.803,499.61 176.854,529.542 C164.807,543.155 153.87,557.612 145.324,573.176 C153.388,560.673 176.852,559.546 185.848,573.451 C193.824,585.423 192.029,604.013 209,610 C226.959,616.974 237.718,614.352 252.684,630.319 C259.167,636.833 262.584,640.333 265.658,642.292 C269.229,644.566 273.856,646.496 278.25,647.25 C285.371,648.472 302.75,648.75 302.75,648.75 C307.479,638.707 342.762,656.318 340.998,659.331 C340.953,659.337 388.646,681.572 388.601,681.577 C387.6,681.686 390.722,700.56 391.6,701.076 C417.1,716.075 459.098,687.577 488.781,704.827 C490.83,706.018 485.977,708.746 484.986,711.06 C481.895,720.328 491.228,724.334 498.044,727.259 C506.407,730.84 514.141,733.531 521.029,735.26 C526.834,737.195 533.103,738.301 539.166,739.371 C542.423,739.945 545.791,740.539 548.96,741.247 L549,741.064 L549.09,741.139 C595.873,681.008 618.396,607.842 643.793,537.533 C645.991,530.381 657.999,498.811 665.242,479.669 C662.084,480.343 549.76,412.535 550.004,410.666" id="Fill-11" fill="#9B2445"></path>
        <path d="M261.479,731.952 C261.479,731.952 246.092,712.922 235.336,726.612 C223.381,741.835 217.529,758.539 210.744,776.834 C203.959,795.132 206.336,822.751 214.055,827.374 C221.772,831.996 229.338,821.785 235.516,812.263 C241.693,802.742 241.741,807.46 247.125,788.508 C252.509,769.557 257.326,763.424 260.736,755.961 C264.145,748.501 262.695,743.123 262.695,743.123 L261.479,731.952" id="Fill-12" fill="#15182A"></path>
        <path d="M269.129,743.894 C269.129,743.894 293.086,739.314 291.705,755.768 C290.168,774.102 286.732,783.611 282.996,799.334 C278.666,817.563 260.448,837.777 251.801,836.854 C243.15,835.931 242.332,822.001 242.998,814.668 C243.977,803.907 242.998,809.334 251.253,788.59 C258.295,770.892 259.234,763.811 261.328,756.227 C263.422,748.64 267.852,745.41 267.852,745.41 L269.129,743.894" id="Fill-13" fill="#15182A"></path>
        <path d="M325.876,697.916 C324.444,699.786 323.61,700.912 323.61,700.912 C323.609,700.912 323.609,700.913 323.607,700.914 C319.959,705.029 316.41,709.331 312.938,713.691 C318.335,707.658 323.704,701.512 329.211,695.444 C328.07,696.236 326.962,697.063 325.876,697.916" id="Fill-14" fill="#DF9379"></path>
        <path d="M502.199,619.296 C493.732,618.83 485.234,618.096 478.768,617.616 C464.168,615.738 450.546,611.037 436.925,604.443 C432.486,602.453 428.092,600.278 423.785,597.937 C401.623,585.95 381.504,569.543 366.846,549.849 C362.977,544.851 358.827,550.477 355.732,544.618 C354.797,548.288 354.102,541.561 352.246,545.146 C345.677,563.501 341.909,582.855 333.295,600.277 C330.419,606.08 319.637,627.636 319.637,627.636 C314.524,629.291 298.175,638.014 289.395,650.277 C276.713,665.371 260.541,712.507 247.664,724 C238.328,726.664 238.478,730.329 234.314,737.052 C229.424,745.547 226.893,753.328 222.115,762.58 C217.446,771.585 217.115,776.533 216.115,788.079 C216.115,792.378 223.613,816.573 242.08,794.145 C243.104,792.901 255.704,761.935 262.893,753.264 C266.943,748.608 273.594,742.367 277.688,738.013 C287.443,727.635 300.485,718.979 313.435,707.156 C316.113,704.842 318.828,702.29 321.733,699.357 C325.783,695.268 336.512,684.453 331.02,691.335 C331.396,691.012 331.762,690.698 332.126,690.384 C333.692,688.652 333.685,689.04 332.126,690.384 C331.176,691.435 330.226,692.484 329.276,693.535 C327.938,695.235 326.787,696.726 325.876,697.916 C326.962,697.063 328.07,696.236 329.211,695.444 C338.092,685.661 347.336,676.093 357.684,667.587 C356.708,673.247 354.757,678.908 349.879,681.738 C343.336,687.012 335.88,690.812 329.211,695.444 C323.704,701.512 318.335,707.658 312.938,713.691 C309.314,718.244 305.772,722.86 302.293,727.398 C296.654,734.754 290.822,742.359 284.933,749.271 C280.55,754.922 277.418,751.262 273.113,756.58 C272.043,757.902 266.748,767.991 265.664,769.334 C259.496,785.661 246.547,807.425 260.33,815.334 C267.125,819.233 273.343,817.318 282.33,801.334 C284.074,796.563 290.788,781.451 294.996,774.668 C303.777,760.518 323.5,750.906 334.82,742.932 C339.867,739.555 345.004,736.423 349.971,733.396 C357.448,728.838 365.181,724.124 372.783,718.462 C379.863,713.322 382.779,710.947 389.512,704.994 C390.742,703.907 394.264,701.861 396.031,700.86 C397.295,700.39 398.587,699.933 399.93,699.502 C406.747,697.61 411.832,695.075 415.728,689.428 C416.356,688.453 435.551,669.577 439.955,664.428 C440.098,664.346 449.569,659.479 449.711,659.397 C466.889,649.345 464.143,648.022 480.826,634.694 C482.691,633.405 484.598,631.997 486.617,630.507 C491.856,626.64 497.274,622.642 502.199,620.602 L504.687,619.499 L502.199,619.296" id="Fill-15" fill="#8F6A4E"></path>
        <path d="M319.637,675.749 C319.996,675.589 320.359,675.441 320.725,675.3 C320.387,674.806 320.033,674.321 319.637,673.862 C319.637,674.806 319.637,674.806 319.637,675.749" id="Fill-16" fill="#DF9379"></path>
        <path d="M329.299,693.509 C329.293,693.517 329.287,693.524 329.28,693.53 C329.32,693.577 329.353,693.627 329.393,693.673 C329.359,693.62 329.332,693.563 329.299,693.509" id="Fill-17" fill="#DF9379"></path>
        <path d="M358.659,667.258 C380.341,643.75 398.478,618.954 415.463,593.166 C396.61,581.736 379.646,567.046 366.846,549.849 C362.977,544.851 358.827,550.477 355.732,544.618 C354.797,548.288 354.102,541.561 352.246,545.146 C345.677,563.501 341.909,582.855 333.295,600.277 C330.419,606.08 319.637,627.636 319.637,627.636 C317.129,628.447 311.918,630.963 306.223,634.759 C310.46,648.382 315.223,662.089 322.021,674.837 C334.336,670.842 349.504,676.111 358.659,667.258" id="Fill-18" fill="#8F6A4E"></path>
        <path d="M323.539,650.276997 C323.527,650.273 324.083,654.085 322.809,658.353 C321.561,662.67 318.657,665.437 318.661994,665.371 C318.705,665.327 318.864,661.647 320.055,657.519 C321.292,653.377 323.528,650.274 323.539,650.276997" id="Fill-19" fill="#B27058"></path>
        <path d="M331.344,677.636 C331.361,677.705 334.124,675.505 339.444,673.574 C344.809,671.517 352.075,670.25 358.329,665.984 C364.474,661.854 368.305,655.461 371.866,651.101 C375.325,646.676 378.221,644.627 378.17,644.617 C378.194,644.656 376.445,647.597 374.326,652.594 C372.141,657.32 369.377,665.354 361.497,670.791 C353.659,675.974 345.193,675.805 340.089,676.38 C334.72,676.835 331.361,677.698 331.344,677.636" id="Fill-20" fill="#502C21"></path>
        <path d="M350.367,670.873641 C350.313,670.826 346.372,677.301 338.223,686.486 C330.145,695.739 317.187,706.886 302.292,717.871 C272.443,739.287 254.96,764.277 255.25,764.428928 C254.747,764.618 267.883,735.598 298.843,713.264 C313.771,702.247 327.218,692.548 336.194,684.445 C345.218,676.424 350.32,670.822 350.367,670.873641" id="Fill-21" fill="#502C21"></path>
        <path d="M691.586,339.595 C691.586,356.99 679.834,371.094 665.337,371.094 C650.84,371.094 639.088,356.99 639.088,339.595 C639.088,322.199 650.84,308.096 665.337,308.096 C679.834,308.096 691.586,322.199 691.586,339.595" id="Fill-22" fill="#15182A"></path>
        <path d="M984.546,113.006 C990.717,118.634 1004.22,122.675 1007,130.477 C1013.45,132.909 1017.46,132.161 1022.41,127.865 C1012.95,119.899 1003.19,112.244 994.479,103.534 C990.349,100.436 986.221,105.887 984.546,113.006" id="Fill-23" fill="#855C42"></path>
        <path d="M1039.08,97.25 C1038.67,94.75 1036.17,91.75 1034.83,91.5 C1035.92,89.68 1035.58,86.25 1034.67,84.917 C1030.75,81.167 1027.75,79.5 1024.42,77 C1023.4,75.742 1022.88,74.474 1021.64,72.799 C1020.87,72.544 1020.32,72.135 1019.8,71.391 C1019.42,71.168 1019.04,70.905 1018.64,70.672 C1004.28,62.371 978.438,51.31 968,59 C955.278,69.477 924.982,120.006 921,123 C919.937,124.047 847.454,199.086 845,201 C845.583,209.576 851.077,212.023 856.795,219.268 C868.021,233.485 869.949,235.604 883,239 C888.965,231.279 940.924,164.858 959,144 C958.634,141.564 955.782,141.375 957.065,139.451 C958.562,137.955 963.052,136.458 966.045,134.961 C973.526,128.975 981.01,121.492 984.003,112.514 C984.169,112.68 984.367,112.84 984.546,113.006 C986.221,105.887 990.349,100.436 994.479,103.534 C1003.19,112.244 1012.95,119.899 1022.41,127.865 C1025.78,124.938 1030.86,121.625 1036.17,115.25 C1037.54,113.486 1036.19,107.012 1037.17,105.5 C1038.25,102.166 1038.5,99.75 1039.08,97.25" id="Fill-24" fill="#A17A58"></path>
        <path d="M984.003,112.514 C981.01,121.492 973.526,128.975 966.045,134.961 C963.052,136.458 958.562,137.955 957.065,139.451 C955.782,141.375 957.993,144.39 957.05,145.84 C963.8,146.186 970.296,147.428 982.506,142.443 C992.982,137.955 998.968,131.221 1001.96,128.227 C1003.81,129.15 1005.47,129.898 1007,130.477 C1004.14,122.447 989.896,118.406 984.003,112.514" id="Fill-25" fill="#855C42"></path>
        <path d="M1013.6,129.473 C1012.71,128.901 1011.82,128.33 1010.94,127.748 C1010.11,127.737 1011.85,127.109 1011.88,127.017 C1014.62,125.883 1017.26,125.256 1019.94,123.707 C1022.99,121.943 1025.75,119.85 1028.43,117.575 C1031.49,114.977 1034.08,112.009 1035.89,108.615 C1034.95,119.118 1023.06,126.412 1013.6,129.473 Z M1038.26,106.963 C1038.05,106.389 1037.52,106.127 1037.02,106.149 C1037.72,104.388 1038.21,102.523 1038.45,100.541 C1038.63,99.03 1036.25,98.807 1035.86,100.191 C1034.03,106.702 1028.02,112.035 1022.99,116.25 C1020.37,118.439 1017.6,120.435 1014.75,122.318 C1013.21,123.346 1011.44,124.015 1010.67,125.576 C1007.51,124.586 1004.63,122.674 1001.58,121.363 C1000.24,120.435 998.898,119.506 997.553,118.584 C997.548,118.581 997.542,118.576 997.537,118.573 C998.25,118.834 999.181,118.893 999.953,119.049 C999.946,119.066 1003.33,120.289 1004.4,119.967 C1005.21,120.136 1006.08,119.584 1007.42,118.81 C1007.59,118.74 1007.75,118.675 1007.9,118.617 C1012.55,116.82 1016.75,114.178 1020.69,111.149 C1028.04,105.505 1034.54,98.107 1035.54,88.568 C1035.71,86.956 1033.2,86.715 1032.78,88.195 C1030.39,96.76 1023.24,103.853 1016.32,109.076 C1013.23,111.409 1009.91,113.466 1006.5,115.293 C1005.53,115.811 1004.15,116.202 1002.88,116.729 C999.156,115.439 995.406,114.482 991.483,113.887 C990.016,112.836 988.485,111.916 986.964,111.401 C987.858,109.951 988.995,108.937 990.477,109.09 C992.525,109.303 995.4,107.947 997.526,107.758 C1000.06,107.531 1002.63,107.537 1005.17,107.426 C1011.73,107.14 1020.26,104.975 1023.42,98.477 C1025.23,94.763 1023.67,92.078 1021.1,90.1 C1022.83,88.201 1024.13,85.416 1024.77,83.701 C1026.52,78.975 1025.75,75.125 1020,71.5 C1019.19,70.988 1018.5,70.587 1018.59,70.688 C1019.06,71.188 1019.53,71.875 1020.19,72.75 C1022.39,75.686 1022.28,79.231 1021.29,82.741 C1020.86,84.277 1019.75,86.759 1018.29,88.35 C1017.42,87.9 1016.53,87.5 1015.67,87.145 C1009.17,84.447 1002.42,81.836 995.643,79.936 C990.471,78.485 986.732,80.114 981.555,81.536 C977.524,82.643 973.528,83.899 969.479,84.935 C964.671,86.164 961.526,84.07 958.883,80.023 C957.63,78.106 954.229,79.291 955.036,81.645 C956.938,87.195 959.511,90.902 965.876,91.289 C968.869,91.471 972.021,90.354 974.834,89.509 C978.846,88.305 982.882,87.185 986.917,86.066 C988.195,85.713 989.475,85.363 990.754,85.015 C991.146,84.907 991.454,84.867 991.67,84.85 C994.081,85.437 996.47,86.116 998.837,86.854 C1004.53,88.629 1011.06,90.916 1016.4,93.606 C1020.66,95.75 1015.3,98.113 1013,99.288 C1009.18,101.236 1004.75,101.076 1000.58,101.27 C996.87,101.441 993.183,101.797 989.651,102.992 C987.178,103.83 985.345,106.967 984.019,109.027 C982.75,111 980.979,116.225 980.467,117.76 C978.778,122.826 975.456,126.586 971.147,129.63 C963.178,135.261 953.359,139.313 943.596,139.533 C942.842,139.55 942.689,140.63 943.419,140.842 C952.13,143.373 959.995,139.556 967.689,135.747 C975.255,132.004 981.209,126.83 984.145,118.774 C984.309,118.326 984.492,117.719 984.702,117.035 C985.166,115.5 985,115.667 987.666,117.09 C989.786,118.544 991.893,120.008 993.995,121.471 C994.583,121.834 995.083,122.084 995.745,122.68 C1001.32,126.537 1004.72,129.109 1010.75,132.416 C1012.09,133.152 1013.99,133.297 1015.58,132.75 C1016.39,132.722 1017.32,132.221 1017.71,132.117 C1019.42,131.671 1021.1,130.787 1022.67,130.005 C1025.83,128.424 1028.94,126.582 1031.67,124.318 C1036.99,119.904 1040.8,113.968 1038.26,106.963 L1038.26,106.963 Z" id="Fill-26" fill="#633A27"></path>
        <path d="M875.72,160.541 L895.61,135.164 C895.61,135.164 902.47,150.253 914.129,158.483 C925.788,166.714 936.762,170.144 936.762,170.144 L918.244,194.835 L875.72,160.541" id="Fill-27" fill="#FFFFFE"></path>
        <path d="M687.787,434.204 C687.787,434.204 698.077,416.371 711.793,403.34 C725.512,390.309 774.895,355.328 798.213,332.694 C821.532,310.061 840.053,286.741 847.597,280.568 C855.141,274.396 857.885,275.082 865.428,268.908 C872.972,262.736 923.042,193.463 923.042,193.463 C923.042,193.463 906.583,183.861 894.922,171.515 C883.26,159.17 876.402,150.254 876.402,150.254 C876.402,150.254 866.114,170.145 860.628,172.887 C855.141,175.631 848.969,176.316 847.597,181.803 C846.224,187.29 848.281,195.521 848.281,195.521 C848.281,195.521 841,188 836,197 C833.766,201.021 837.994,207.867 837.994,207.867 C837.994,207.867 832.507,206.494 830.449,209.238 C828.392,211.982 820.848,208.553 816.732,214.039 C812.616,219.525 814.676,227.071 814.676,227.071 C814.676,227.071 806.443,225.014 803.015,229.814 C799.586,234.615 803.016,242.846 800.271,244.904 C797.526,246.961 788.611,244.904 785.867,249.704 C783.124,254.506 786.552,255.877 780.38,259.992 C774.208,264.107 740.602,290.171 740.602,290.171 L674.757,321.035 L687.787,434.204" id="Fill-28" fill="#15182A"></path>
        <path d="M711.632,325.523 C712.544,324.444 750.332,281.234 750.541,276.386 C765.297,265.387 801.423,242.713 805.419,238.717 C810.403,234.736 814.399,230.74 819.383,226.745 C823.377,222.764 824.366,217.766 828.361,213.785 C835.576,203.369 843.432,194.238 853.489,186.382 C854.072,194.958 856.168,202.531 860.282,210.791 C866.599,224.201 876.026,231.384 889.077,234.781 C885.726,239.106 882.177,243.401 878.242,247.696 C873.918,252.889 870.34,258.83 864.923,263.56 C863.53,264.487 862.14,265.416 860.763,266.358 C853.653,271.177 846.68,276.266 840.334,282.626 C830.352,292.594 826.864,297.592 817.886,307.559 C797.936,330.516 776.476,344.973 754.537,365.924 C740.56,379.902 721.612,390.857 706.646,403.832 C704.837,405.643 692.438,418.151 688.189,424.795 C687.68,411.058 683.302,408.441 683.943,394.986 C684.946,386.008 681.699,364.053 684.692,356.076 L664.863,328.765 C668.604,328.765 704.524,328.689 705.646,328.017 C705.72,329.004 711.707,326.51 711.632,325.523" id="Fill-29" fill="#15182A"></path>
        <path d="M679.455,286.396 C679.466,286.443 679.478,286.486 679.489,286.531 L680.517,287.265 C680.503,287.086 680.339,286.323 679.455,286.396" id="Fill-30" fill="#E8A284"></path>
        <path d="M668.725,347.965 C670.73,354.955 672.721,359.938 669.728,367.93 C667.737,374.904 662.25,379.5 656.5,387.5 C647.5,398.75 616.285,437.645 611,437 L598,362 C607.982,354.023 652.516,346.35 661.496,337.369 L668.725,347.965" id="Fill-31" fill="#8F6A4E"></path>
        <path d="M144.467,574.736 C144.748,574.214 145.038,573.695 145.324,573.176 C145.029,573.631 144.752,574.098 144.5,574.583 L144.467,574.736" id="Fill-32" fill="#871F2D"></path>
        <path d="M627.725,490.488 C627.719,490.492 627.713,490.495 627.707,490.498 C627.703,490.503 627.695,490.51 627.691,490.514 L627.725,490.488" id="Fill-33" fill="#15182A"></path>
        <path d="M459.406,442.449 C459.406,442.449 410.052,454.244 396.334,469.333 C387.99,478.51 373.197,489.778 320.577,577.534 C320.577,577.534 337.039,654.354 391.908,670.813 C446.777,687.274 442.603,678.58 442.603,678.58 C442.603,678.58 523.6,621.583 553.37,585.797 C568.725,567.341 578.06,552.189 580.805,539.843 C583.549,527.498 563.658,502.12 554.057,490.461 C544.455,478.802 479.296,439.706 459.406,442.449" id="Fill-34" fill="#15182A"></path>
        <polyline id="Fill-35" fill="#15182A" points="473.333 429.913 474.322 428.911 474.056 428.647 473.066 429.649 473.333 429.913"></polyline>
        <path d="M327.705,407.544 C307.711,422.913 286.91,437.324 265.658,451.722 C232.734,473.676 202.803,499.61 176.854,529.542 C164.403,543.61 153.133,558.576 144.467,574.736 C138.049,586.694 133.064,599.295 130.086,612.706 C118.937,599.774 108.355,582.749 105.02,568.453 C100.615,549.584 104,528.001 108.041,518.215 C120.688,504.687 133.498,491.246 147.926,478.602 C166.887,461.646 187.838,447.683 209.793,434.707 C256.41,406.916 441.461,325.352 489.096,300.597 L453.098,345.595 C444.373,353.077 336.79,400.539 327.705,407.544" id="Fill-36" fill="#E36B51"></path>
        <path d="M675.07,179.379 C675.418,179.039 675.766,178.699 676.115,178.364 C675.992,178.361 675.866,178.361 675.714,178.361 C675.504,178.709 675.281,179.035 675.07,179.379" id="Fill-37" fill="#93352A"></path>
        <polyline id="Fill-38" fill="#B86E5B" points="588.414 303.572 604.379 307.064 593.404 333.006 578.937 325.523 588.414 303.572"></polyline>
        <path d="M668.349,337.645 C671.379,333.749 673.333,331.166 673.333,331.166 C664,325.334 661.422,324.155 654.074,318.514 C647.333,313.5 644.15,307.912 639.5,303 C636.483,300.244 634.167,293.915 633,292 C631.847,290.1 627.509,276.501 627,270.5 L622.302,273.108 C619.638,274.725 617.588,276.086 615.432,276.819 C616.346,279.572 616.749,282.746 616.839,285.17 C615.522,288.178 613.232,291.365 611.871,294.09 C611.557,294.584 611.242,295.063 610.912,295.541 C604.764,304.729 596.621,312.602 590.23,321.627 C589.998,324.713 589.953,327.826 590.116,330.924 C614.888,323.435 643.893,326.35 668.349,337.645" id="Fill-39" fill="#855C42"></path>
        <path d="M590.116,330.924 C590.521,338.615 592.254,346.2 595.902,352.964 C603.519,368.213 619.861,378.194 636.951,380.305 L637.806,372.912 C645.032,367.139 660.406,347.857 668.349,337.645 C643.893,326.35 614.888,323.435 590.116,330.924" id="Fill-40" fill="#8F6A4E"></path>
        <path d="M331.5,581.25 C331.366,581.593 331.217,581.882 331.06,582.14 C331.064,582.137 331.069,582.133 331.074,582.13 C331.642,581.253 331.845,580.366 331.5,581.25" id="Fill-41" fill="#6D1B26"></path>
        <path d="M331.074,582.13 C331.069,582.133 331.064,582.137 331.06,582.14 C330.965,582.295 330.865,582.43 330.763,582.557 C330.876,582.42 330.98,582.275 331.074,582.13" id="Fill-42" fill="#6D1B26"></path>
        <path d="M330.217,583.096 C330.282,583.049 330.343,582.981 330.406,582.926 C330.341,582.981 330.275,583.034 330.206,583.081 C330.21,583.086 330.213,583.091 330.217,583.096" id="Fill-43" fill="#6D1B26"></path>
        <path d="M330.449,582.887 C330.435,582.9 330.42,582.913 330.406,582.926 C330.42,582.913 330.435,582.899 330.449,582.887" id="Fill-44" fill="#6D1B26"></path>
        <path d="M330.449,582.887 C330.557,582.788 330.662,582.682 330.763,582.557 C330.664,582.675 330.561,582.786 330.449,582.887" id="Fill-45" fill="#6D1B26"></path>
        <path d="M357.365,668.568 C357.125,668.845 356.883,669.121 356.642,669.397 C356.896,669.143 357.135,668.862 357.365,668.568" id="Fill-46" fill="#DF9379"></path>
        <path d="M338.732,691.077 C338.566,691.275 338.4,691.473 338.232,691.67 C338.628,691.417 339.033,691.178 339.432,690.93 C339.199,690.979 338.967,691.03 338.732,691.077" id="Fill-47" fill="#DF9379"></path>
        <path d="M671.167,329.879 C664.442,337.891 657.182,346.18 650.124,353.888 C645.436,359.006 640.012,363.838 635.655,369.207 C634.155,371.054 633.396,372.164 634.642,374.3 C635.11,375.102 636.187,374.529 636.051,373.705 C635.696,371.513 645.518,364.07 646.909,362.659 C650.886,358.625 654.703,354.438 658.501,350.235 C663.816,344.355 669.57,337.756 674.657,331.644 C673.48,331.084 672.316,330.496 671.167,329.879" id="Fill-48" fill="#502C21"></path>
        <path d="M348.674,652.507 C348.019,652.202 347.434,652 347,652 C336,655 327,664 317,669 C304,675 291,680 277,685 C273,686 269,684 265,685 C259.291,687.537 253.581,688.865 247.871,689.499 L252.5,725.5 L262,727 L314.336,688.769 C304.369,694.887 294.454,700.867 288,708 C294.454,700.867 304.369,694.887 314.336,688.769 L345.667,664 C349.121,659.631 348.001,658.029 348.674,652.507" id="Fill-49" fill="#181312"></path>
        <path d="M478,485 C478,485 509.112,528.478 531.423,535.732 C563,546 574.633,531.617 574.633,531.617 C574.633,531.617 610.299,494.578 640.478,479.491 C670.655,464.402 673.397,456.857 676.141,440.396 C678.885,423.936 678.885,345.746 678.885,345.746 L617.83,426.663 C617.83,426.663 601.381,341.631 600.01,330.656 C598.638,319.683 595.209,304.594 595.209,304.594 L478,485" id="Fill-50" fill="#FFFFFE"></path>
        <path d="M506.979,440.396 L478,485 C478,485 509.112,528.478 531.423,535.732 C563,546 574.633,531.617 574.633,531.617 C574.633,531.617 595.121,510.347 618.179,493.478 C613.078,487.008 607.771,480.771 602,475 C567.977,488.231 515.207,480.912 506.979,440.396" id="Fill-51" fill="#E9E9E4"></path>
        <path d="M694.645,441.065 C693.275,430.093 694.645,366.306 689.16,352.589 C683.672,338.871 665.667,343 665.667,343 C665.667,343 669.268,385.511 663.781,411.573 C658.295,437.638 658.979,436.95 647.32,453.412 C635.661,469.872 600.682,493.878 586.277,514.454 C579.064,524.759 564.108,545.731 550.976,564.102 C545.768,580.337 544.889,598.187 560.572,608.091 C560.996,608.356 561.428,608.604 561.863,608.847 C569.025,609.475 571.706,609.96 573.933,607.733 C576.676,604.988 628.116,527.485 642.52,508.968 C656.924,490.449 672.013,489.077 684.357,473.987 C696.704,458.898 696.018,452.04 694.645,441.065" id="Fill-52" fill="#15182A"></path>
        <path d="M378.474,465.088 C381.561,465.088 383.617,464.059 385.676,464.059 C388.762,463.028 392.877,465.088 394.935,460.973 C396.992,457.886 393.906,450.684 395.964,446.569 C398.021,441.424 400.078,443.482 403.165,443.482 C409.338,444.511 412.424,447.598 414.482,440.396 C415.511,435.252 416.539,430.107 418.598,425.992 C413.453,422.906 407.279,428.051 402.137,430.107 C396.992,432.166 391.848,434.223 387.732,437.31 C382.589,440.396 379.502,442.454 377.445,448.626 C376.416,451.713 374.359,459.943 379.502,462.001 L378.474,465.088" id="Fill-53" fill="#15182A"></path>
        <path d="M907.279,213.029 C903.164,215.088 899.049,221.26 896.993,224.347 C894.934,226.404 894.088,229.256 893.906,231.549 C893,243 885.675,246.98 882.589,248.01 C879.503,249.038 878.474,251.096 879.503,255.211 C880.531,259.326 881.559,260.355 878.474,263.441 C876.416,266.527 873.33,267.557 870.243,268.586 C864.07,269.614 862.013,266.527 858.926,262.412 L907.279,213.029" id="Fill-54" fill="#15182A"></path>
        <path d="M335.264,422.906 C339.379,423.936 342.465,417.763 344.523,414.676 C346.58,410.561 347.609,405.417 346.58,399.244 C345.553,394.1 344.523,388.955 351.725,387.928 C355.84,387.928 360.984,389.984 364.07,387.928 C362.013,384.84 362.013,371.465 365.1,369.408 C369.215,366.322 378.474,368.38 381.561,371.465 C384.646,369.408 383.617,365.293 386.704,362.207 C388.762,359.121 392.877,361.178 396.992,362.207 C401.107,364.264 402.137,365.293 398.021,369.408 C393.906,372.494 389.791,374.553 385.676,378.668 C381.561,384.84 376.416,389.984 371.271,395.129 C366.128,400.272 359.955,404.388 355.84,410.561 C351.725,417.763 346.58,421.877 340.408,427.021 L335.264,422.906" id="Fill-55" fill="#15182A"></path>
        <path d="M549.256,538.133 C548.867,537.888 566.269,514.316 588.008,486 C611.398,458.367 616.373,428.801 617.157,429.079 C617.084,429.08 616.012,436.253 613.264,447.791 C610.664,459.543 602.417,474.313 591.626,488.677 C569.631,517.322 548.929,537.808 549.256,538.133" id="Fill-56" fill="#7C818E"></path>
        <path d="M811.58,306.596 C811.428,306.231 790.482,326.302 758.278,341.576 C725.795,357.472 695.659,354.67 696.086,354.594 C696.01,354.65 725.003,352.949 756.39,337.491 C787.813,322.625 811.41,306.263 811.58,306.596" id="Fill-57" fill="#3B476A"></path>
        <path d="M867.077,266.098 C867.288,266.151 850.593,267.395 832.367,258.945 C813.934,250.917 803.886,237.475 804.08,237.6 C804.08,237.656 816.684,247.271 834.215,254.842 C851.512,262.923 867.038,266.126 867.077,266.098" id="Fill-58" fill="#3B476A"></path>
        <path d="M870.077,249.6 C870.201,249.511 857.085,252.275 841.508,247.572 C833.806,245.207 827.364,241.151 823.768,237.176 C820.089,233.248 819.161,230.017 819.079,230.1 C818.869,230.415 827.912,239.53 842.841,243.274 C857.352,247.712 870.077872,249.527 870.077,249.6" id="Fill-59" fill="#3B476A"></path>
        <path d="M867.077,236.1 C867.385,236.458 857.137,236.469 849.038,228.177 C840.669,220.309 839.854,210.37 840.078,210.602 C840.005,210.75 844.692,218.042 852.174,224.95 C859.229,232.322 866.86,236.288 867.077,236.1" id="Fill-60" fill="#3B476A"></path>
        <path d="M798.08,267.598 C798.065,267.679 803.048,272.311 808.424,277.939 C813.47,283.919 818.651,287.471 819.079,287.098 C819.438,287.775 810.973,287.847 805.161,281.038 C799.234,274.784 797.987,267.527 798.08,267.598" id="Fill-61" fill="#3B476A"></path>
        <path d="M177,572 L252.5,725.5 L326,662.5 C326,662.5 236.565,497.989 228,492 C222.176,487.927 177,572 177,572" id="Fill-62" fill="#1C1614"></path>
        <path d="M351,653 C350.857,652.714 350.672,652.263 350.459,651.754 C350.654,651.815 350.838,651.894 351,652 L245.676,479.331 L224.342,485.998 C224.342,485.998 204.5,506.5 203.5,525 C202.5,543.5 247.871,689.499 247.871,689.499 C253.581,688.865 259.291,687.537 265,685 C269,684 273,686 277,685 C291,680 304,675 317,669 C326.725,664.138 329.852,657.395 340.132,654.268 C340.25,654.939 340.387,655.548 340.5,656 C341,659 341,663 345,662.5 C347.5,662 349,659.5 351,658 C352,656.5 351.5,654.5 351,653" id="Fill-63" fill="#1C1614"></path>
        <path d="M225.299,486.656 C215.817,492.071 209.785,499.854 205.86,510.005 C201.819,520.459 206.446,533.156 210.936,542.703 C215.502,552.415 221.248,561.752 226.249,571.257 C241.463,600.173 255.958,629.776 273.397,657.441 C275.444,660.688 277.541,664.093 280.199,666.885 C282.607,669.415 286.276,670.983 289.299,672.586 C294.803,675.505 300.763,677.118 306.997,676.452 C315.559,675.537 322.314,669.69 328.526,664.23 C331.555,661.568 334.544,658.8 338.127,656.896 C339.534,656.147 341.223,655.774 342.776,656.15 C344.965,656.679 348.729,659.255 346.646,661.646 C345.622,662.823 347.176,664.377 348.354,663.354 C354.385,658.11 347.368,651.417 341.248,651.158 C333.923,650.848 327.471,658.528 322.47,662.886 C318.886,666.008 315.038,668.961 310.55,670.646 C302.935,673.504 295.363,670.38 288.735,666.598 C284.249,664.038 282.392,662.035 279.414,657.531 C271.411,645.428 264.606,632.487 257.622,619.784 C249.102,604.289 240.794,588.679 232.465,573.081 C227.334,563.472 222.355,553.733 216.77,544.376 C211.935,536.274 208.231,526.768 208.084,517.24 C207.902,505.385 217.708,494.782 225.782,487.281 C226.119,486.968 225.687,486.435 225.299,486.656" id="Fill-64" fill="#151210"></path>
        <polyline id="Fill-65" fill="#CCC4B6" points="255.914 612.39 242 590 229 607 240 627 255.914 612.39"></polyline>
        <path d="M331.00024,654 C331.054,653.995 321.996,648.104 309.978,635.6 C297.904,623.215 282.847,604.559 269.193,582.069 C255.525,559.589 245.979,537.579 240.588,521.147 C235.087,504.701 234.044,493.953 234,493.999846 C233.301,494.477 252.06,532.176 279.452,575.845 C305.567,620.293 330.205,654.443 331.00024,654" id="Fill-66" fill="#4F4C49"></path>
        <path d="M249,622 C249.313,622.418 240.962,621.285 236.827,613 C232.503,605.239 233.936,597.824 234,598 C233.94,598.043 235.539,604.661 239.451,611.547 C242.924,618.795 248.825,622.172 249,622" id="Fill-67" fill="#4F4C49"></path>
        <path d="M314.963,550.851 C309.684,543.857 303.877,537.001 296.489,532.183 C292.908,529.847 288.344,528.235 284.061,528.779 C282.887,528.928 279.408,530.425 280.073,532.256 C280.727,534.055 281.93,535.042 283.54,536.021 C286.774,537.986 289.859,539.748 292.756,542.253 C298.033,546.817 302.375,552.835 306.347,558.527 C306.535,558.797 306.713,559.07 306.897,559.341 C309.278,556.26 311.967,553.409 314.963,550.851" id="Fill-68" fill="#161311"></path>
        <path d="M320.671,596.671 C320.832,596.498 320.992,596.325 321.152,596.152 C320.244,595.624 319.336,595.096 318.429,594.566 C317.176,598.548 315.607,602.257 314.123,606.176 C312.663,610.031 313.402,613.667 316.77,616.104 C319.008,617.725 321.858,614.025 319.724,612.276 C315.142,608.521 324.354,599.45 321.407,594.178 C320.271,592.145 317.204,594.378 318.848,596.152 C319.008,596.325 319.168,596.498 319.329,596.671 C319.671,597.04 320.329,597.04 320.671,596.671" id="Fill-69" fill="#595956"></path>
        <path d="M316.864,613.963 C316.765,614.224 316.665,614.484 316.565,614.746 C316.318,615.089 316.731,615.652 317.134,615.486 C320.444,614.119 321.872,610.117 323.45,607.109 C325.696,602.828 327.303,598.079 328.322,593.364 C328.695,591.642 326.057,590.907 325.678,592.636 C324.854,596.389 323.583,600.014 322.198,603.593 C321.434,605.567 320.572,607.501 319.643,609.402 C319.382,609.823 319.161,610.262 318.977,610.718 C318.786,611.195 317.136,613.965 317.136,613.963 C317.117,613.828 316.883,613.828 316.864,613.963" id="Fill-70" fill="#595956"></path>
        <path d="M326,523.5 C326,523.5 367.728,474.227 365.5,473 C352.254,465.697 349.391,456.271 344.152,441.711 C343.928,441.065 343.704,440.422 343.479,439.764 C341.893,433.403 294.99,513.998 293,515 C291.997,519.984 279.641,549.506 278.638,557.482 C278.42,558.803 280.842,563.798 284.529,569.265 C284.637,569.332 284.734,569.376 284.805,569.364 C286.702,569.045 288.954,570.142 290.43,571.627 C292.237,573.447 292.537,575.821 293.906,577.911 C295.865,580.9 298.18,581.669 301.453,581.397 C303.798,581.203 305.203,582.018 306.771,583.944 C308.207,585.707 309.193,589.646 311.781,589.59451 C314.848,589.531 317.887,588.329 320.969,588.677 C322.928,588.898 324.43,587.045 325.681,585.191 C326.869,584.768 327.969,584.199 329.016,583.544 C329.104,583.542 329.191,583.532 329.279,583.521 C330.25,583.375 330.492,582.671 330.75,582 C331.375,580.375 331.75,578.5 332.076,575.921 C332.75,573.125 333.932,566.611 335.502,563.469 C337.493,557.482 338.014,555.476 339,548.5 C339,546.495 337.003,543.005 336,541 C331,536.25 326,523.5 326,523.5" id="Fill-71" fill="#A17A58"></path>
        <path d="M333.398,436.75 L323,456 C323,456 326.977,471.817 343.875,478.766 C360.773,485.715 365,484 365,484 L379.135,463.18 L335.006,432.079 L333.398,436.75" id="Fill-72" fill="#FFFFFE"></path>
        <path d="M323.334,580.333 C322.876,579.898 321.667,578.583 321.529,574.947 C321.416,571.956 322.029,568.961 322.527,565.968 C322.527,563.475 324.024,554.994 318.536,558.485 C315.543,559.982 314.047,565.968 313.549,568.961 C313.05,571.954 314.547,573.451 316.043,575.447 C317.703,577.107 320.82,581.367 321.089,581.774 C322.247,583.528 323.881,584.329 325.754,584.375 C325.563,584.643 325.364,584.917 325.16,585.191 C326.467,584.768 327.677,584.199 328.829,583.544 C326.805,583.572 324.453,581.396 323.334,580.333" id="Fill-73" fill="#B06351"></path>
        <path d="M322.602,562.507 C321.736,560.914 320.814,559.352 319.848,557.833 C316.548,558.813 315.957,561.461 314.375,564.625 C313.865,566.152 313.125,569.125 313.75,571.582 C314.59,573.524 315.344,575.513 315.971,577.57 C317.172,581.51 317.181,585.767 317.734,589.824 C318.135,592.764 319.063,596.419 318.828,599.333 C318.459,603.911 324.4,604.413 326.603,601.438 C330.183,596.601 330.107,590.001 329.207,583.795 C327.334,574 324.666,567.333 322.602,562.507" id="Fill-74" fill="#161311"></path>
        <path d="M593.838,289.504 C584.92,290.19 571.183,292.92 571.183,292.92 C571.183,292.92 522.85,279.902 515.99,279.902 C509.133,279.902 505.018,288.818 500.902,290.877 C496.787,292.934 387.391,371.809 373.673,380.725 C359.955,389.642 353.782,399.93 344.181,414.333 C334.578,428.736 323.605,428.051 326.348,432.166 C329.091,436.281 333.893,451.371 346.238,458.229 C358.584,465.088 372.987,470.575 377.102,469.888 C381.218,469.202 395.622,445.197 398.365,443.14 C401.107,441.082 485.45,395.114 487.508,392.37 C489.566,389.627 468.322,427.364 464.894,430.794 C461.465,434.223 428.334,434 406.334,453.333 C400.045,458.859 389,468.667 389,468.667 C389,468.667 388.062,481.152 392.21,498.17 C409.118,531.296 435.949,566.701 474,552 C483,549 490,539 499,532 C502.941,528.715 506.667,525.323 510.354,521.965 C519.545,511.369 527.827,501.587 532.109,495.952 C545.141,478.805 565.717,455.484 573.948,441.082 C582.178,426.679 586.978,389.642 590.408,367.693 C593.838,345.746 600.696,314.882 602.068,308.709 C603.439,302.536 611.67,291.563 611.67,291.563 C611.67,291.563 602.754,288.818 593.838,289.504" id="Fill-75" fill="#15182A"></path>
        <path d="M266.731,537.442 C271.12,538.633 276.196,535.528 280.083,533.852 C282.308,532.892 280.697,529.079 278.43,529.932 C276.329,530.723 274.234,531.53 272.153,532.371 C270.103,533.199 267.857,533.7 266.111,535.092 C265.258,535.771 265.795,537.188 266.731,537.442" id="Fill-76" fill="#595956"></path>
        <path d="M414.482,421.877 C414.7,421.654 405.06,414.391 392.444,399.461 C389.536,395.481 385.919,392.035 381.84,387.921 C380.833,386.957 379.845,385.927 378.723,385.049 L377.072,383.663 L376.657,383.313 L376.448,383.138 L376.396,383.094 C373.917,384.353 379.742,381.348 379.146,381.676 L379.15,381.71 L379.165,381.849 L379.287,382.958 C379.605,385.927 379.894,388.981 380.491,392.084 C382.52,404.545 386.797,417.866 391.893,431.654 L392.841,434.235 L392.915,434.437 C396.523,432.71 388.02,436.842 388.883,436.396 L388.837,436.33 L388.652,436.062 L388.283,435.526 L387.549,434.456 C386.634,433.013 385.503,431.641 384.392,430.275 C382.184,427.535 379.806,424.88 377.582,422.109 C373.08,416.416 369.942,410.507 365.723,406.163 C364.671,405.2 363.609,404.04 362.477,403.575 L361.648,403.115 L361.545,403.055 L361.494,403.025 L361.468,403.011 C362.512,402.252 359.094,404.687 363.802,401.307 L363.817,401.579 L363.845,402.122 L363.95,404.277 C364.198,407.145 364.822,409.941 365.544,412.625 C367.063,417.987 369.072,422.875 370.903,427.342 C377.365,445.542 385.389,455.143 383.617,455.828 C385.367,455.09 376.441,446.212 368.849,428.261 C366.753,423.883 364.45,419.048 362.602,413.522 C361.715,410.746 360.916,407.806 360.513,404.64 L360.301,402.224 L360.249,401.614 L360.224,401.308 C364.929,397.901 361.55,400.374 362.611,399.618 L362.649,399.636 L362.728,399.672 L362.883,399.744 L364.132,400.342 C365.897,401.089 367.07,402.334 368.389,403.459 C373.275,408.208 376.667,414.257 380.921,419.389 C383.105,422.017 385.498,424.615 387.834,427.456 C389.007,428.873 390.195,430.29 391.253,431.923 L392.072,433.112 L392.482,433.708 L392.686,434.007 L392.738,434.082 C393.629,433.683 385.105,437.767 388.705,436.016 L388.69,435.975 L388.63,435.813 L387.67,433.208 C382.528,419.299 378.407,405.566 376.737,392.652 C376.23,389.442 376.042,386.268 375.838,383.192 L375.76,382.044 L375.75,381.901 L375.748,381.865 C375.143,382.156 380.979,379.153 378.522,380.438 L378.576,380.487 L378.791,380.683 L379.22,381.073 L380.914,382.62 C382.068,383.614 383.042,384.722 384.043,385.774 C387.815,389.913 391.626,394.058 394.225,398.086 C405.762,413.479 414.732,421.695 414.482,421.877" id="Fill-77" fill="#56638C"></path>
        <path d="M572.918,322.083 C572.905,322.149 570.274,320.586 566.06,318.688 C563.952,317.797 561.394,316.922 558.664,316.881 L557.635,316.87 L557.506,316.867 L557.49,316.866 C557.055,317.297 561.244,313.11 559.471,314.887 L559.472,314.896 L559.478,315.01 L559.496,315.313 L559.512,315.618 L559.524,315.848 L559.527,315.886 L559.528,315.905 C561.353,314.085 557.042,318.397 557.481,317.952 L557.472,317.953 L556.854,317.983 L556.543,317.999 L556.465,318.002 C555.529,317.068 558.545,320.094 554.365,315.908 L554.366,315.896 L554.367,315.874 L554.371,315.828 L554.383,315.644 L554.508,314.151 C554.614,312.106 555.386,310.208 556.259,308.443 C564.161,294.3 577.625,291.92 577.334,292.334 C577.233,291.981 566.696,298.504 560.281,310.461 C559.567,311.889 558.915,313.355 558.778,314.706 L558.587,315.726 L558.561,315.853 L558.555,315.885 L558.551,315.9 L558.549,315.909 C554.367,311.731 557.395,314.75 556.465,313.818 L556.543,313.822 L556.854,313.837 L557.472,313.868 L557.481,313.868 C557.93,313.426 553.621,317.734 555.445,315.905 L555.446,315.886 L555.448,315.848 L555.46,315.618 L555.477,315.313 L555.495,315.01 L555.499,314.934 L555.501,314.896 L555.501,314.887 C553.728,316.657 557.918,312.465 557.491,312.898 L557.512,312.9 L557.683,312.922 L559.024,313.102 C562.556,313.663 565.221,315.297 567.191,316.742 C571.077,319.765 572.86,322.123 572.918,322.083" id="Fill-78" fill="#56638C"></path>
        <path d="M539.996,485.663 C539.418,485.291 545.057,477.047 551.718,462.62 C558.31,448.313 565.316,426.835 561.339,402.829 C550.479,355.135 555.368,313.558 558.516,314.882 C557.579,314.374 554.937,354.264 565.8,402.239 C569.951,427.229 561.959,449.927 554.48,463.96 C546.9,478.31 540.317,485.905 539.996,485.663" id="Fill-79" fill="#56638C"></path>
        <path d="M500.902,382.783 C500.854,382.762 503.718,377.768 507.817,369.556 C511.788,361.354 517.079,349.695 518.118,336.058 C519.324,322.426 519.68,309.353 518.25,300.671 C517.396,296.189 516.507,292.553 515.903,290.04 C515.6,288.783 515.369,287.804 515.215,287.14 C515.526,287.733 515.222,288.152 515.305,288.133 C515.39,288.125 515.08,287.794 515.398,287.079 C515.669,287.705 516.067,288.628 516.571,289.821 C517.577,292.208 519.006,295.675 520.435,300.133 C523.095,309.404 523.823,322.188 522.594,336.523 C521.43,351.179 514.75,362.967 509.772,370.669 C504.632,378.432 500.86,382.75 500.902,382.783" id="Fill-80" fill="#56638C"></path>
        <path d="M465.922,392.042 C466.063,391.685 449.596,399.644 427.643,396.882 C405.036,394.232 393.486,378.208 393.906,378.668 C393.848,378.544 407.548,390.22 428.259,392.425 C448.674,395.101 465.944,391.755 465.922,392.042" id="Fill-81" fill="#3B476A"></path>
        <path d="M547.197,587.516 C545.716,587.473 548.856,569.255 563.733,544.707 C571.047,532.455 580.626,518.17 594.386,504.88 C601.139,498.007 610.006,492.803 618.277,487.155 C626.664,481.401 635.177,475.188 643.593,468.464 C660.244,454.978 675.698,440.844 684.819,424.972 C692.965,408.795 692.836,391.116 691.918,377.337 C691.22,348.599 677.753,334.474 680.943,333.4 C678.678,333.855 693.312,347.758 694.975,377.054 C696.266,391.155 697.044,409.088 688.426,426.931 C678.916,443.932 663.275,458.273 646.403,471.979 C637.879,478.789 629.259,485.035 620.751,490.79 C612.125,496.595 603.777,501.344 597.196,507.872 C583.705,520.547 573.918,534.441 566.355,546.305 C550.93,570.179 546.845,587.463 547.197,587.516" id="Fill-82" fill="#3B476A"></path>
        <path d="M507.074,523.729 C506.93,523.589 500.845,531.588 488.34,542.07 C481.994,547.098 473.676,552.772 462.856,555.467 C451.907,558.708 438.696,555.176 428.41,547.828 C407.165,533.089 397.898,510.766 392.489,495.896 C389.392,488.291 389.074,481.44 388.929,477.003 C388.637,472.495 388.5,470 388.5,470 C388.5,470 388.917,472.464 389.628,476.925 C390.22,481.464 391.025,487.794 394.582,495.07 C401.047,509.552 410.97,530.312 430.965,544.124 C440.652,550.959 452.09,554.26 462.021,551.763 C472.121,549.685 480.443,544.763 486.989,540.271 C499.947,530.87 506.964,523.564 507.074,523.729" id="Fill-83" fill="#56638C"></path>
        <path d="M522.506,470.232212 C522.429,470.21 516.751,454.692 510.165,435.553 C504.265,416.264 498.096,400.783 499.873,400.272 C498.086,400.817 508.397,414.458 514.432,434.124 C521.098,453.511 522.451,470.301 522.506,470.232212" id="Fill-84" fill="#3B476A"></path>
        <path d="M535.594682,587.082 C535.735,587.011 513.984,589.565 488.068,584.149 C474.878,581.681 463.616,577.296 456.159,572.354 C449.458,566.74 444.171,565.967 444.098,566.084 C445.084,562.988 463.325,576.055 488.846,579.717 C514.429,585.078 535.53,586.998 535.594682,587.082" id="Fill-85" fill="#3B476A"></path>
        <path d="M684,344 C684.335,343.782 691.634,355.421 696.325,371.423 C696.725,372.936 696.727,373.776 696.881,374.741 C696.911,374.975 696.959,375.117 696.992,375.311 L697.045,375.583 L697.068,375.719 L697.08,375.788 L697.083,375.805 C689.816,380.296 695.064,377.046 693.44,378.047 L693.433,378.04 L693.401,378.013 L692.418,377.15 C691.213,375.937 689.643,374.99 688.244,373.997 C685.335,372.168 682.421,370.224 680.371,368.698 C676.049,365.771 672.45,365.642 672.5,365.5 C672.424,365.673 676.008,364.539 681.413,366.704 C684.036,367.905 686.758,369.098 690.132,370.702 C691.764,371.595 693.544,372.437 695.214,373.875 L696.494,374.899 L696.534,374.932 L696.544,374.94 C694.925,375.944 700.183,372.704 692.916,377.193 L692.908,377.165 L692.878,377.052 L692.817,376.826 L692.699,376.37 L692.491,375.471 C692.316,374.455 692.171,373.241 692.029,372.762 C687.408,357.002 684.392,343.898 684,344" id="Fill-86" fill="#3B476A"></path>
        <path d="M730.4,102.339 C716.106,95.078 693.743,90.096 677.407,88.021 C644.735,84.909 613.535,103.17 587.56,123.29 C553.066,150.005 557.951,186.565 567.14,216.647 C572.244,232.207 584.496,244.654 593.685,257.102 C599.235,265.246 605.905,276.027 614.364,280.328 C620.286,271.908 625.877,262.575 638,265 C640.187,265.546 642.064,266.478 643.694,267.71 C651.674,258.705 658.928,248.306 666.177,239.468 C677.407,224.945 690.681,210.423 704.975,197.976 C715.185,189.677 726.415,182.416 736.625,174.118 C745.814,166.856 751.94,157.521 758.066,148.185 L758.066,140.924 C751.94,124.327 747.758,110.637 730.4,102.339" id="Fill-87" fill="#261C16"></path>
        <path d="M772.064,200.029 C770.951,192.072 768.821,184.292 766.12,176.737 C765.665,175.46 765.177,174.203 764.677,172.953 C765.526,172.266 766.054,171.146 765.773,169.704 C764.979,165.614 763.715,161.494 761.921,157.662 C761.541,156.524 761.16,155.386 760.782,154.243 C759.613,150.706 758.415,145.554 754.632,143.898 C753.771,143.521 752.897,143.467 752.129,143.663 C751.241,143.121 750.284,142.825 749.249,142.933 C748.485,143.013 747.946,143.501 747.771,144.103 C746.197,142.104 744.567,140.14 742.877,138.215 C740.838,135.895 737.52,138.917 738.869,141.332 C738.857,141.332 738.847,141.332 738.836,141.332 C746.691,152.935 753.678,165.645 758.279,178.899 C760.563,185.482 762.255,192.188 763.512,199.039 C764.928,206.753 766.432,214.898 767.207,222.688 C767.486,225.491 771.135,225.406 771.5,222.688 C772.559,214.808 773.175,207.977 772.064,200.029" id="Fill-88" fill="#261C16"></path>
        <path d="M769.467,143.861 C769.162,140.256 768.383,136.557 767.005,132.891 C762.915,124.072 758.648,119.7 753.697,114.219 C751.252,111.745 748.677,109.578 746.067,107.802 L744.107,106.542 C743.974,106.491 743.051,105.799 743.575,106.283 L742.779,105.669 C741.744,104.876 740.653,104.045 739.647,103.298 C735.519,100.252 731.548,98.234 728.572,97.725 C726.245,97.274 724.814,97.806 724.295,97.978 C725.425,98.059 730.653,100.085 735.433,107.569 C736.155,108.563 736.878,109.555 737.717,110.674 L738.342,111.508 C739.35,112.475 738.992,112.184 739.388,112.585 L740.718,114.021 C742.486,116.001 744.232,118.256 745.961,120.75 C749.031,125.382 753.719,132.404 755.81,137.211 C756.936,140.211 757.697,143.32 758.148,146.408 C757.307,145.136 756.242,144.071 754.827,143.452 C753.97,143.076 753.07,142.983 752.21,143.156 C751.215,142.589 750.204,142.343 749.198,142.448 C748.587,142.512 748.066,142.815 747.707,143.249 C746.246,141.411 744.75,139.608 743.243,137.893 C742.229,136.74 740.765,136.567 739.511,137.454 C738.519,138.154 737.825,139.498 738.164,140.844 L737.949,140.844 C737.916,140.844 738.432,141.605 738.432,141.605 C744.57,150.673 749.603,159.617 753.513,168.322 C753.494,168.347 753.475,168.375 753.455,168.399 C747.564,175.297 741.801,178.882 742.066,179.005 C742.018,178.706 747.53,178.531 755.847,173.806 C756.548,175.567 757.215,177.321 757.818,179.059 C759.583,184.145 761.03,189.41 762.22,195.037 C756.543,205.564 748.679,211.858 749.066,212.005 C748.981,211.831 754.158,211.171 761.578,206.841 C762.409,206.378 763.268,205.821 764.137,205.196 C765.182,211.048 766.147,216.972 766.722,222.736 C766.892,224.443 768.115,225.226 769.253,225.246379 C770.404,225.266 771.75,224.495 771.983,222.753 C773.147,214.09 773.612,207.583 772.547,199.961 C772.42,199.053 772.278,198.141 772.123,197.225 C775.855,192.227 778.866,185.816 779.662,178.378 C781.621,162.741 775.407,150.588 769.467,143.861" id="Fill-89" fill="#261C16"></path>
        <path d="M724.066,98.005 C724.059,98.053 724.142,98.029 724.295,97.978 C724.178,97.97 724.09,97.976 724.066,98.005" id="Fill-90" fill="#261C16"></path>
        <path d="M723.066,136.005 C722.8,136 698.207,137.174 698.066,128.005 C698.008,119.118 713.066,110.005 701.066,93.005 C685.066,81.005 660.404,84.257 661.066,84.005 C661.091,84.159 666.283,80.214 676.51,77.651 C686.469,75.294 702.187,73.825 717.701,83.111 C732.719,93.599 736.214,111.6 732.913,122.113 C729.476,133.084 722.671,135.873 723.066,136.005" id="Fill-91" fill="#261C16"></path>
        <path d="M728.066,128.005 C728.026,128.03 726.877,126.307 723.815,124.518 C720.952,122.876 715.617,120.172 710.785,115.988 C705.754,112.168 699.629,107.336 692.847,104.309 C685.925,101.13 677.478,99.729 668.198,99.222 C649.022,98.92 630.542,96.663 617.89,93.331 C611.496,91.683 606.357,89.828 603.102,87.746 C599.366,85.753 599.874,82.755 600.066,83.005 C599.918,83.022 600.237,85.365 603.877,86.039 C607.213,86.927 612.364,87.262 618.717,87.388 C631.6,87.69 644.937,83.665 665.066,84.005 C675.373,84.545 689.524,90.275 697.593,95.365 C705.791,100.536 710.758,106.665 714.989,111.707 C718.893,117.068 722.361,120.132 725.029,123.088 C727.571,125.93 728.035,128.065 728.066,128.005" id="Fill-92" fill="#261C16"></path>
        <path d="M649.066,102.005 C649.435,102.3 620.972,98.122 597.459,116.292 C591.505,120.732 586.189,125.299 582.468,130.125 C578.71,134.674 577.718,139.527 577.066,145.029 C575.566,155.518 574.066,162.005 574.066,162.005 C574.066,162.005 572.566,155.518 571.066,145.029 C570.139,140.197 569.675,131.832 573.922,124.697 C577.664,117.792 583.553,111.652 590.425,106.57 C604.623,96.047 621.715,94.304 632.423,96.415 C643.389,98.304 649.023,102.201 649.066,102.005" id="Fill-93" fill="#261C16"></path>
        <path d="M593.066,208.005 C593.765,206.922 601.524,223.043 592.103,239.98 C587.795,248.125 579.678,254.252 572.567,254.5 C565.408,254.63 563.073,250.661 563.066,251.005 C562.971,250.864 567.189,251.402 570.96,248.72 C574.71,246.142 572.066,233.005 570.066,221.005 C577.562,208.125 593.867,208.471 593.066,208.005" id="Fill-94" fill="#261C16"></path>
        <path d="M608.066,224.005 C608.019,224.012 608.778,227.365 608.508,232.785 C608.209,238.037 606.69,246.274 599.736,252.853 C598.158,254.567 596.045,255.626 594.217,256.793 C593.318,257.313 590.929,258.574 589.441,259.115 C586.054,260.446 582.811,261.197 579.939,261.427 C573.959,262.314 570.578,259.083 571.066,259.005 C571.843,261.161 581.683,252.983 591.555,244.074 C600.12,235.989 607.696,223.551 608.066,224.005" id="Fill-95" fill="#261C16"></path>
        <path d="M621.066,237.005 C620.999,236.45 620.679,256.463 602.213,271.454 C597.605,274.99 592.373,277.417 586.932,278.255 C581.324,279.161 576.494,277.695 573.223,276.253 C566.764,273.093 563.197,270.979 563.066,271.005 C562.955,270.928 567.69,270.225 574.441,270.378 C581.271,270.599 587.403,267.746 594.941,261.907 C609.48,250.633 620.981,236.948 621.066,237.005" id="Fill-96" fill="#261C16"></path>
        <path d="M616.5,266 C616.574,265.505 622.415,276.262 611.238,282.109 C599.689,287.459 590.577,279.743 591.066,280.005 C591.338,279.908 599.206,274.896 605.951,271.337 C612.904,268.099 616.281,266.122 616.5,266" id="Fill-97" fill="#261C16"></path>
        <path d="M765.576,183.923 C765.576,187.902 761.598,191.881 763.587,193.871 C767.841,194.721 769.904,197.032 771.35,200.013 C771.098,194.159 770.906,188.186 765.576,183.923" id="Fill-98" fill="#261C16"></path>
        <path d="M765.576,235.654 C766.365,232.501 767.16,229.349 768.318,226.32 C765.588,227.646 765.576,231.055 765.576,235.654" id="Fill-99" fill="#261C16"></path>
        <path d="M750.709,238.355 C748.52,237.998 747.314,235.481 747.314,233.07 C747.7,232.413 748.28,231.877 749.16,231.505 C752.199,232.25 751.542,236.286 750.709,238.355 Z M719.391,305.687 C713.687,311.077 706.552,312.774 700.521,310.599 L700.387,311.019 C688.517,307.01 683.032,299.571 680.032,287.143 L678.756,286.231 C678.682,285.249 681.905,287.353 681.814,286.355 C684.033,289.155 689.157,289.244 692.195,289.988 C702.038,293.013 716.365,294.755 726.031,291.507 L726.254,292.164 C726.657,297.123 722.116,302.47 719.391,305.687 Z M682.768,231.968 L682.783,231.968 C682.783,230.806 684.719,229.347 686.327,230.701 C688.473,232.517 686.982,238.608 683.766,235.898 C682.947,234.87 682.634,233.396 682.768,231.968 Z M765.125,183.371 C764.226,178.787 755.15,149.231 750.066,144.005 C748.665,147.32 742.992,149.125 740.066,152.005 C732.635,158.588 720.79,162.205 711.066,165.005 C693.481,169.009 676.784,163.545 654.066,178.005 C640.186,185.929 627.733,205.005 623.361,229.434 C622.96,231.342 622.781,233.204 622.913,234.931 C623.019,236.16 623.652,241.159 622.877,239.962 C619.5,254.5 622.5,264 624.753,273.651 L625.104,273.622 C625.609,279.593 630.107,298.091 631.253,299.981 C632.415,301.888 635.693,306.181 637.75,307.015 C643.057,312.157 647.203,314.976 654.003,319.952 C661.315,325.565 669.708,329.797 678.122,333.341 C683.169,335.472 691.167,339.224 697.869,339.224 C704.571,339.224 713.759,334.04 714.669,332.97 C714.669,332.97 730.023,313.772 738.362,306.116 C745.778,299.52 748.786,294.319 754.462,285.238 C758.186,279.281 762.816,271.448 763.025,266.622 C763.354,258.803 762.162,251.773 762.162,244.388 C761.81,241.336 762.594,237.388 762.504,236.39 C762.271,233.471 764.624,236.11 764.143,230.135 C764.888,227.082 764.409,223.285 765.154,220.231 C765.824,216.196 767.403,211.087 768.059,207.037 C769.384,198.965 766.838,192.202 765.125,183.371 L765.125,183.371 Z" id="Fill-100" fill="#A17A58"></path>
        <path d="M681.814,286.355 C684.033,289.155 689.157,290.733 692.195,291.478 C702.038,294.503 718.734,295.559 728.399,292.312 C726.911,295.663 722.116,303.958 719.391,307.175 C713.687,312.565 713.58,313.476 707.55,311.3 L701.965,310.556 C690.051,306.534 680.744,295.663 679.998,288.499 C680.878,288.426 681.041,289.185 681.055,289.363 L682.053,289.319 C681.979,288.336 681.905,287.353 681.814,286.355" id="Fill-101" fill="#FFFFFE"></path>
        <path d="M627,239.737 C629.258,251.95 644.847,261.651 646.489,262.376 C652.881,265.203 667.091,270.36 681.038,267.708 C687.265,266.523 691.707,265.178 697.458,262.234 C703.659,259.059 708.376,255.838 716.365,252.78 C723.518,250.046 728.547,251.116 732.521,256.209 C737.205,262.214 742.944,265.893 749.202,266.315 C751.886,266.497 766.812,262.715 768.72,261.045 C768.72,261.045 766.494,251.199 765.127,244.819 C764.719,237.604 767.689,234.16 768.112,227.902 C768.366,224.136 770.104,207.999 770.104,207.999 C770.104,207.999 758.502,206.231 752.077,206.038 C743.965,205.79 738.48,212.303 732.157,217.263 C726.269,221.89 716.936,221.026 710.022,216.969 C703.112,212.909 698.448,211.097 690.517,208.765 C683.486,206.493 677.347,206.431 671.087,206.009 C663.04,205.465 654.757,206.351 647.424,208.549 C640.089,210.752 637.191,210.369 633.074,218.172 C629.075,224.188 627,239.737 627,239.737" id="Fill-102" fill="#6D1B2F"></path>
        <path d="M731.383,214.587 C735.767,212.613 764.915,195.99 767.425,203.074 C768.604,206.405 773.775,205.078 772.775,201.599 C770.269,192.871 758.96,196.235 752.937,198.423 C745.192,201.234 734.929,205.647 729.416,212.038 C728.171,213.481 729.705,215.343 731.383,214.587" id="Fill-103" fill="#261C16"></path>
        <path d="M734.051,290.305 C734.051,290.305 728.558,294.727 712.073,294.735006 C695.581,294.744 674.785,285.238 674.785,285.238 C674.785,285.238 702.985,285.239 714.375,286.117 C725.763,286.993 734.051,290.305 734.051,290.305" id="Fill-104" fill="#74292B"></path>
        <path d="M726.988,295.692 C726.988,295.692 727.81,313.981 707.907,314.976 C691.041,315.819 675.553,289.831 675.553,289.831 C675.553,289.831 692.072,303.936 707.756,304.732 C723.068,305.509 726.988,295.692 726.988,295.692" id="Fill-105" fill="#8F3933"></path>
        <path d="M622.877,239.962 C621.049,237.144 618.917,234.505 616.584,232.023 C612.21,227.372 605.631,222.419 598.915,222.228 C596.447,221.826 591.519,224.119 589.733,229.672 C586.59,239.888 588.4,259.672 607.455,277.062 C611.267,278.343 613.573,279.833 616,279 C618.146,278.27 620.472,275.395 623.123,273.786 L624.753,273.651 C627.132,262.716 628.125,250.564 622.877,239.962" id="Fill-106" fill="#A17A58"></path>
        <path d="M593.58,230.254 C603.268,221.439 611.219,232.395 615.32,241.048 C615.86,242.195 615.768,243.422 614.206,243.71 C609.919,244.5 607.396,249.862 608.272,253.307 C609.426,257.826 615.794,261.466 618.8,263.514 C619.311,263.863 618.902,263.868 618.284,263.73 C606.19,261.011 598.601,246.216 610.361,240.882 C606.945,231.63 603.29,227.84 593.729,230.577 C593.57,230.624 593.463,230.363 593.58,230.254" id="Fill-107" fill="#633A27"></path>
        <path d="M755.208,229.637 C753.223,222.688 747.266,223.186 742.799,227.654 C738.825,231.625 735.352,236.59 732.87,241.551 C732.373,243.041 731.875,245.027 731.38,246.517 L754.215,243.538 C755.703,239.07 756.201,234.105 755.208,229.637" id="Fill-108" fill="#FFFFFE"></path>
        <path d="M652.164,242.782 C653.428,235.517 665.557,229.88 671.743,226.426 C677.884,223.538 685.93,221.374 690.016,227.385 C693.545,232.215 693.631,239.026 691.907,243.986 L691.21,244.494 C687.953,244.222 684.606,245.077 681.352,244.807 C679.396,244.642 678.124,245.161 676.099,244.935 C662.451,243.393 661.57,242.571 655.712,242.083 L652.164,242.782" id="Fill-109" fill="#FFFFFE"></path>
        <path d="M691.834,235.973 C691.206,241.308 686.66,245.155 681.688,244.569 C676.72,243.982 673.192,239.183 673.822,233.848 C674.447,228.512 678.995,224.665 683.967,225.25 C688.945,225.84 692.465,230.638 691.834,235.973" id="Fill-110" fill="#261C16"></path>
        <path d="M755.342,233.56 C755.176,238.489 752.122,242.384 748.533,242.263 C744.942,242.139 742.166,238.043 742.334,233.117 C742.503,228.186 745.555,224.292 749.144,224.412 C752.735,224.539 755.512,228.631 755.342,233.56" id="Fill-111" fill="#261C16"></path>
        <path d="M652.83,241.939 C654.959,238.599 659.301,235.827 662.456,233.508 C666.336,230.658 670.601,228.731 675.249,227.541 C678.718,226.652 682.319,226.26 685.832,227.095 C690.188,228.131 691.201,232.812 693.442,235.965 C693.702,236.33 694.329,236.548 694.664,236.123 C697.517,232.5 694.232,228.335 691.67,225.416 C688.69,222.022 682.882,221.944 678.818,222.507 C672.665,223.358 666.936,225.653 662.007,229.457 C658.672,232.032 651.928,236.92 652.224,241.775 C652.243,242.098 652.651,242.22 652.83,241.939" id="Fill-112" fill="#261C16"></path>
        <path d="M731.617,240.625 C733.977,234.836 739.696,231.084 744.704,227.873 C746.922,226.45 749.143,225.639 751.798,225.464 C755.849,225.196 757.233,229.264 758.089,232.421 C758.365,233.443 760.066,233.56 760.268,232.421 C761.951,222.906 754.64,218.75 746.284,221.959 C740.098,224.335 730.501,233.281 731.134,240.56 C731.159,240.846 731.513,240.881 731.617,240.625" id="Fill-113" fill="#261C16"></path>
        <path d="M649.395,207.975 C658.804,210.806 668.998,212.074 678.729,213.45 C687.411,214.678 694.209,214.292 702.427,211.331 C704.156,210.708 704.034,207.744 701.965,207.922 C693.836,208.622 685.786,208.85 677.662,208.022 C668.24,207.062 658.768,205.08 649.395,207.407 C649.104,207.479 649.124,207.893 649.395,207.975" id="Fill-114" fill="#261C16"></path>
        <path d="M734.123,266.573 C734.123,266.638 734.618,266.435 735.623,266.847 C737.242,267.478 736.171,270.296 734.978,271.217 C732.891,274.139 727.241,276.057 722.703,276.12 C717.4,276.427 713.127,274.984 709.995,274.053 C707.78,273.679 706.972,270.979 707.583,270.236 C707.97,269.325 708.208,268.903 708.207,268.898 C708.319,268.547 708.01,272.172 710.398,271.352 C713.549,270.927 717.936,270.94 722.285,270.673 C732.25,271.156 737.582,267.14 734.123,266.573" id="Fill-115" fill="#633A27"></path>
        <path d="M691.066,136.004786 C690.847,136.091 695.039,138.798 697.258,146.665 C699.794,154.477 696.331,167.33 687.242,175.409 C678.348,183.725 667.617,186.726 660.116,187.251 C652.464,187.794 648.029,185.905 648.06577,186.005 C648.245,186.262 665.385,179.954 679.002,166.685 C685.939,160.275 690.335,153.396 691.271,147.048 C692.325,140.725 690.903,135.968 691.066,136.004786" id="Fill-116" fill="#261C16"></path>
    </g>
</svg>